<?xml version="1.0" encoding="UTF-8"?>
<svg xmlns="http://www.w3.org/2000/svg" xmlns:xlink="http://www.w3.org/1999/xlink" viewBox="0 0 1799.89 1918.42">
  <defs>
    <style>
      .cls-1 {
        fill: url(#linear-gradient-15);
      }

      .cls-2 {
        fill: url(#linear-gradient-13);
      }

      .cls-3 {
        fill: url(#linear-gradient-28);
      }

      .cls-4 {
        stroke: #a2c6db;
        stroke-miterlimit: 10;
      }

      .cls-4, .cls-5, .cls-6 {
        fill: none;
      }

      .cls-7 {
        fill: url(#linear-gradient-42);
      }

      .cls-8 {
        fill: #a62b24;
      }

      .cls-9 {
        fill: url(#linear-gradient-2);
      }

      .cls-10 {
        letter-spacing: -.03em;
      }

      .cls-11 {
        fill: url(#linear-gradient-25);
      }

      .cls-12 {
        fill: url(#linear-gradient-10);
      }

      .cls-13 {
        fill: url(#linear-gradient-12);
      }

      .cls-14 {
        fill: url(#linear-gradient-40);
      }

      .cls-15 {
        fill: url(#linear-gradient-27);
      }

      .cls-16 {
        letter-spacing: -.01em;
      }

      .cls-17 {
        fill: url(#linear-gradient-37);
      }

      .cls-18 {
        letter-spacing: -.02em;
      }

      .cls-19 {
        fill: #fff;
      }

      .cls-20 {
        fill: url(#linear-gradient-39);
      }

      .cls-21 {
        letter-spacing: -.02em;
      }

      .cls-5, .cls-22 {
        opacity: .22;
      }

      .cls-23 {
        font-family: Gilroy-Medium, Gilroy-Medium;
        font-weight: 500;
      }

      .cls-24 {
        fill: url(#linear-gradient-26);
      }

      .cls-25 {
        letter-spacing: 0em;
      }

      .cls-26 {
        fill: url(#linear-gradient-4);
      }

      .cls-27 {
        fill: url(#linear-gradient-35);
      }

      .cls-28 {
        fill: url(#linear-gradient-30);
      }

      .cls-29 {
        fill: url(#radial-gradient);
      }

      .cls-30 {
        fill: url(#linear-gradient-3);
      }

      .cls-31 {
        fill: url(#linear-gradient-34);
      }

      .cls-32 {
        clip-path: url(#clippath-1);
      }

      .cls-33 {
        fill: url(#linear-gradient-5);
      }

      .cls-34 {
        fill: url(#linear-gradient-38);
      }

      .cls-35 {
        fill: url(#linear-gradient-22);
      }

      .cls-36 {
        fill: url(#linear-gradient-24);
      }

      .cls-37 {
        isolation: isolate;
      }

      .cls-38 {
        fill: url(#linear-gradient-33);
      }

      .cls-39 {
        fill: url(#linear-gradient-8);
      }

      .cls-40 {
        clip-path: url(#clippath-3);
      }

      .cls-41 {
        fill: #fffff3;
        font-size: 90.17px;
      }

      .cls-42 {
        letter-spacing: -.02em;
      }

      .cls-43 {
        letter-spacing: -.01em;
      }

      .cls-44 {
        fill: url(#linear-gradient-14);
      }

      .cls-45 {
        fill: url(#linear-gradient-29);
      }

      .cls-46 {
        fill: #c2c2a5;
      }

      .cls-47 {
        letter-spacing: -.04em;
      }

      .cls-48 {
        fill: url(#linear-gradient-20);
      }

      .cls-49 {
        fill: #fdffe3;
        font-size: 52.75px;
      }

      .cls-49, .cls-50 {
        font-family: Gilroy-Bold, Gilroy-Bold;
        font-weight: 700;
      }

      .cls-51 {
        fill: url(#linear-gradient-17);
      }

      .cls-52 {
        fill: url(#linear-gradient-7);
      }

      .cls-53 {
        fill: url(#linear-gradient-9);
      }

      .cls-54 {
        fill: url(#linear-gradient-11);
      }

      .cls-55 {
        fill: #cd4a32;
      }

      .cls-56 {
        fill: url(#linear-gradient-19);
      }

      .cls-57 {
        fill: url(#linear-gradient-6);
      }

      .cls-22 {
        fill: #705a6c;
      }

      .cls-58 {
        fill: #cecdb7;
      }

      .cls-59 {
        letter-spacing: -.03em;
      }

      .cls-60 {
        fill: url(#linear-gradient-36);
      }

      .cls-61 {
        fill: url(#linear-gradient-21);
      }

      .cls-62 {
        letter-spacing: 0em;
      }

      .cls-63 {
        fill: #edeece;
      }

      .cls-64 {
        fill: #ea7d6e;
      }

      .cls-65, .cls-66 {
        opacity: .32;
      }

      .cls-65, .cls-67 {
        fill: #e88e7c;
      }

      .cls-68 {
        clip-path: url(#clippath-2);
      }

      .cls-69 {
        fill: url(#linear-gradient-32);
      }

      .cls-70 {
        fill: url(#linear-gradient-41);
      }

      .cls-71 {
        fill: url(#linear-gradient-16);
      }

      .cls-72 {
        fill: url(#linear-gradient);
      }

      .cls-73 {
        fill: url(#linear-gradient-23);
      }

      .cls-74 {
        fill: url(#linear-gradient-31);
      }

      .cls-75 {
        letter-spacing: -.02em;
      }

      .cls-76 {
        letter-spacing: 0em;
      }

      .cls-77 {
        letter-spacing: 0em;
      }

      .cls-78 {
        fill: url(#linear-gradient-18);
      }

      .cls-79 {
        mix-blend-mode: multiply;
        opacity: .5;
      }
    </style>
    <linearGradient id="linear-gradient" x1="541.33" y1="851.89" x2="621.55" y2="1034.89" gradientUnits="userSpaceOnUse">
      <stop offset="0" stop-color="#d66319"/>
      <stop offset=".36" stop-color="#d45d1b"/>
      <stop offset=".81" stop-color="#cf4d21"/>
      <stop offset=".89" stop-color="#ce4a23"/>
    </linearGradient>
    <clipPath id="clippath-1">
      <path class="cls-6" d="M470.41,759.38v4.79c0,.93.44,1.8,1.19,2.34,5.91,4.28,23.67,20.79,31.82,60.59h50.3c4.24,0,7.07,4.37,5.34,8.24l-74.4,166.42c-.99,2.23-1.5,4.65-1.4,7.08.1,2.58.52,6.11,1.78,9.89,2.51,7.52,21.93,56.26,49.51,56.26h97.35v-57.93h-75.36c-5.63,0-9.41-5.79-7.14-10.95l76.86-174.75c1.52-3.45,3.97-7.18,3.97-10.95v-61.83h-159c-.44,0-.8.36-.8.8Z"/>
    </clipPath>
    <linearGradient id="linear-gradient-2" x1="285.79" y1="-2930.18" x2="14.4" y2="-2488.45" gradientTransform="translate(3114.51 1699.45) rotate(-74.62)" gradientUnits="userSpaceOnUse">
      <stop offset=".01" stop-color="#f1533e"/>
      <stop offset=".19" stop-color="#ed4d3f"/>
      <stop offset=".41" stop-color="#e23d43"/>
      <stop offset=".66" stop-color="#d1234a"/>
      <stop offset=".88" stop-color="#be0752"/>
    </linearGradient>
    <linearGradient id="linear-gradient-3" x1="-516.66" y1="-1349.76" x2="-101.99" y2="-1208.51" gradientTransform="translate(1762.26 1374.04) rotate(-53.54)" gradientUnits="userSpaceOnUse">
      <stop offset=".12" stop-color="#f8951e"/>
      <stop offset=".72" stop-color="#f26526"/>
      <stop offset="1" stop-color="#f04e2a"/>
    </linearGradient>
    <linearGradient id="linear-gradient-4" x1=".17" y1="-2800.68" x2="362.77" y2="-2496.88" gradientTransform="translate(3114.51 1699.45) rotate(-74.62)" gradientUnits="userSpaceOnUse">
      <stop offset=".01" stop-color="#eb2747"/>
      <stop offset=".32" stop-color="#d4284c"/>
      <stop offset=".63" stop-color="#c4294f"/>
      <stop offset=".88" stop-color="#bf2a51"/>
    </linearGradient>
    <linearGradient id="linear-gradient-5" x1="-339.44" y1="-1834.35" x2="43.26" y2="-1834.35" gradientTransform="translate(2270.38 1535.11) rotate(-63.71)" gradientUnits="userSpaceOnUse">
      <stop offset="0" stop-color="#f6901f"/>
      <stop offset=".96" stop-color="#e1274d"/>
    </linearGradient>
    <linearGradient id="linear-gradient-6" x1="78.36" y1="-1869.03" x2="-217.15" y2="-2070.99" gradientTransform="translate(2323.56 1747.44) rotate(-60.96)" xlink:href="#linear-gradient-2"/>
    <linearGradient id="linear-gradient-7" x1="-214.04" y1="-1974.68" x2="61.6" y2="-1974.68" gradientTransform="translate(2323.56 1747.44) rotate(-60.96)" gradientUnits="userSpaceOnUse">
      <stop offset=".01" stop-color="#eb2747"/>
      <stop offset=".26" stop-color="#e52748"/>
      <stop offset=".57" stop-color="#d5284b"/>
      <stop offset=".88" stop-color="#bf2a51"/>
    </linearGradient>
    <linearGradient id="linear-gradient-8" x1="26.59" y1="-2686.79" x2="245.87" y2="-2686.79" gradientTransform="translate(3114.51 1699.45) rotate(-74.62)" gradientUnits="userSpaceOnUse">
      <stop offset="0" stop-color="#aa0145"/>
      <stop offset=".36" stop-color="#c7283b"/>
      <stop offset=".76" stop-color="#e44d31"/>
      <stop offset=".96" stop-color="#ef5c2e"/>
    </linearGradient>
    <linearGradient id="linear-gradient-9" x1="226.19" y1="-2665.88" x2="7.89" y2="-2716.44" gradientTransform="translate(3114.51 1699.45) rotate(-74.62)" xlink:href="#linear-gradient-3"/>
    <linearGradient id="linear-gradient-10" x1="609.45" y1="589.75" x2="382.65" y2="958.91" gradientTransform="matrix(1,0,0,1,0,0)" xlink:href="#linear-gradient-2"/>
    <linearGradient id="linear-gradient-11" x1="1096.17" y1="1784.21" x2="1442.71" y2="1902.24" gradientTransform="translate(-44.87 -1390.13) rotate(21.08)" xlink:href="#linear-gradient-3"/>
    <linearGradient id="linear-gradient-12" x1="370.75" y1="697.98" x2="673.78" y2="951.87" gradientTransform="matrix(1,0,0,1,0,0)" xlink:href="#linear-gradient-4"/>
    <linearGradient id="linear-gradient-13" x1="1083.51" y1="1764.69" x2="1403.34" y2="1764.69" gradientTransform="translate(-84.33 -1289.27) rotate(19.89)" xlink:href="#linear-gradient-5"/>
    <linearGradient id="linear-gradient-14" x1="1213.13" y1="1412.88" x2="966.18" y2="1244.1" gradientTransform="translate(-256.04 -749.89) rotate(13.66)" xlink:href="#linear-gradient-2"/>
    <linearGradient id="linear-gradient-15" x1="968.77" y1="1324.59" x2="1199.13" y2="1324.59" gradientTransform="translate(-256.04 -749.89) rotate(13.66)" xlink:href="#linear-gradient-7"/>
    <linearGradient id="linear-gradient-16" x1="992.26" y1="1324.59" x2="1175.64" y2="1324.59" gradientTransform="translate(-256.04 -749.89) rotate(13.66)" xlink:href="#linear-gradient-8"/>
    <linearGradient id="linear-gradient-17" x1="559.64" y1="810.63" x2="377.2" y2="768.38" gradientTransform="matrix(1,0,0,1,0,0)" xlink:href="#linear-gradient-3"/>
    <linearGradient id="linear-gradient-18" x1="689.71" y1="1074.08" x2="303.98" y2="1236.99" gradientUnits="userSpaceOnUse">
      <stop offset=".01" stop-color="#f1533e"/>
      <stop offset=".21" stop-color="#df3944"/>
      <stop offset=".47" stop-color="#cd1d4c"/>
      <stop offset=".7" stop-color="#c10c50"/>
      <stop offset=".88" stop-color="#be0752"/>
    </linearGradient>
    <linearGradient id="linear-gradient-19" x1="617.31" y1="764.57" x2="747.43" y2="1061.39" gradientUnits="userSpaceOnUse">
      <stop offset="0" stop-color="#c33036"/>
      <stop offset=".27" stop-color="#bd2e35"/>
      <stop offset=".61" stop-color="#ad2b32"/>
      <stop offset=".89" stop-color="#9b2830"/>
    </linearGradient>
    <clipPath id="clippath-2">
      <path class="cls-6" d="M648.67,1095.39h67.75s-12.95,124.92-134.95,124.92c-77.71,0-90.23-45.27-166.28-49.72-64.34-3.76-94.84,28.41-94.84,28.41l-36.35-60.58s43.87-39.27,122.41-39.27,115.73,50.97,177.14,50.97,65.11-54.73,65.11-54.73Z"/>
    </clipPath>
    <linearGradient id="linear-gradient-20" x1="782.29" y1="847.05" x2="343.56" y2="1561.16" gradientTransform="matrix(1,0,0,1,0,0)" xlink:href="#linear-gradient-2"/>
    <linearGradient id="linear-gradient-21" x1="1138.25" y1="2123.08" x2="1808.63" y2="2351.41" gradientTransform="translate(-44.87 -1390.13) rotate(21.08)" xlink:href="#linear-gradient-3"/>
    <linearGradient id="linear-gradient-22" x1="320.54" y1="1056.4" x2="906.74" y2="1547.54" gradientTransform="matrix(1,0,0,1,0,0)" xlink:href="#linear-gradient-4"/>
    <linearGradient id="linear-gradient-23" x1="1139.02" y1="2166.35" x2="1757.71" y2="2166.35" gradientTransform="translate(-84.33 -1289.27) rotate(19.89)" xlink:href="#linear-gradient-5"/>
    <linearGradient id="linear-gradient-24" x1="1493.96" y1="1916.93" x2="1016.23" y2="1590.42" gradientTransform="translate(-256.04 -749.89) rotate(13.66)" xlink:href="#linear-gradient-2"/>
    <linearGradient id="linear-gradient-25" x1="1021.26" y1="1746.13" x2="1466.87" y2="1746.13" gradientTransform="translate(-256.04 -749.89) rotate(13.66)" xlink:href="#linear-gradient-7"/>
    <linearGradient id="linear-gradient-26" x1="1066.7" y1="1746.13" x2="1421.43" y2="1746.13" gradientTransform="translate(-256.04 -749.89) rotate(13.66)" xlink:href="#linear-gradient-8"/>
    <linearGradient id="linear-gradient-27" x1="685.95" y1="1274.33" x2="333.03" y2="1192.59" gradientTransform="matrix(1,0,0,1,0,0)" xlink:href="#linear-gradient-3"/>
    <linearGradient id="linear-gradient-28" x1="682.5" y1="1075.81" x2="682.5" y2="791.33" gradientUnits="userSpaceOnUse">
      <stop offset=".01" stop-color="#eb2747"/>
      <stop offset=".02" stop-color="#e82647"/>
      <stop offset=".11" stop-color="#d32548"/>
      <stop offset=".21" stop-color="#c22548"/>
      <stop offset=".33" stop-color="#b62449"/>
      <stop offset=".51" stop-color="#af2449"/>
      <stop offset="1" stop-color="#ae244a"/>
    </linearGradient>
    <linearGradient id="linear-gradient-29" x1="671.47" y1="777.03" x2="671.47" y2="865.8" gradientTransform="matrix(1,0,0,1,0,0)" xlink:href="#linear-gradient-5"/>
    <linearGradient id="linear-gradient-30" x1="693.53" y1="782.94" x2="693.53" y2="868.62" gradientTransform="matrix(1,0,0,1,0,0)" xlink:href="#linear-gradient-5"/>
    <linearGradient id="linear-gradient-31" x1="670.39" y1="867.14" x2="670.39" y2="985.03" gradientTransform="matrix(1,0,0,1,0,0)" xlink:href="#linear-gradient-5"/>
    <linearGradient id="linear-gradient-32" x1="694.61" y1="869.11" x2="694.61" y2="960.83" gradientTransform="matrix(1,0,0,1,0,0)" xlink:href="#linear-gradient-5"/>
    <linearGradient id="linear-gradient-33" x1="682.5" y1="940.97" x2="682.5" y2="1158.11" gradientTransform="matrix(1,0,0,1,0,0)" xlink:href="#linear-gradient-2"/>
    <clipPath id="clippath-3">
      <path class="cls-6" d="M521.34,1090.73c-4.69-1.69-28.71-11.94-45.98-49.86-17.74-38.94-36.18-72.9-38.92-77.91-.23-.42-.35-.89-.35-1.37v-1.64c0-1.27.82-2.39,2.04-2.75,9.88-2.97,52.27-20.11,52.27-95.42s-56.38-99.83-67.16-103.47c-1.1-.37-2.23-.55-3.39-.55l-141.26.83v13.65h5.57v290.5h-5.19v12.22h85.68v-12.22h-5.29v-92.75h8.16c3.03,0,5.81,1.68,7.21,4.37l52.17,100.08s22.56,20.33,47.63,20.33h46.39c.69,0,1.24-.56,1.24-1.24v-1.62c0-.52-.32-.99-.81-1.16ZM428.29,887.09c0,13.4-10.86,24.27-24.27,24.27h-42.97c-2.09,0-3.79-1.7-3.79-3.79v-79.59c0-2.09,1.7-3.79,3.79-3.79h42.97c13.4,0,24.27,10.86,24.27,24.27v38.65Z"/>
    </clipPath>
    <linearGradient id="linear-gradient-34" x1="262.24" y1="769.73" x2="496.01" y2="1112.03" gradientUnits="userSpaceOnUse">
      <stop offset="0" stop-color="#177bad"/>
      <stop offset=".83" stop-color="#144b82"/>
    </linearGradient>
    <linearGradient id="linear-gradient-35" x1="1184.14" y1="1703.7" x2="802.33" y2="1438.82" gradientTransform="translate(-256.04 -749.89) rotate(13.66)" gradientUnits="userSpaceOnUse">
      <stop offset="0" stop-color="#0074bc"/>
      <stop offset=".96" stop-color="#3956a5"/>
    </linearGradient>
    <linearGradient id="linear-gradient-36" x1="1119.23" y1="1668.8" x2="679.31" y2="1335.92" gradientTransform="translate(-256.04 -749.89) rotate(13.66)" gradientUnits="userSpaceOnUse">
      <stop offset=".01" stop-color="#095c98"/>
      <stop offset=".26" stop-color="#085e9b"/>
      <stop offset=".46" stop-color="#0767a4"/>
      <stop offset=".63" stop-color="#0575b5"/>
      <stop offset=".79" stop-color="#0289cc"/>
      <stop offset=".88" stop-color="#0197db"/>
    </linearGradient>
    <linearGradient id="linear-gradient-37" x1="783.7" y1="1488.07" x2="1117.12" y2="1601.64" gradientTransform="translate(-256.04 -749.89) rotate(13.66)" gradientUnits="userSpaceOnUse">
      <stop offset=".12" stop-color="#8bc151"/>
      <stop offset=".3" stop-color="#87be52"/>
      <stop offset=".46" stop-color="#7cb658"/>
      <stop offset=".62" stop-color="#69aa62"/>
      <stop offset=".78" stop-color="#4e9870"/>
      <stop offset=".94" stop-color="#2c8182"/>
      <stop offset="1" stop-color="#1d778b"/>
    </linearGradient>
    <linearGradient id="linear-gradient-38" x1="1074.04" y1="1673.92" x2="834.69" y2="1410.37" gradientTransform="translate(-256.04 -749.89) rotate(13.66)" gradientUnits="userSpaceOnUse">
      <stop offset="0" stop-color="#8bc151"/>
      <stop offset="1" stop-color="#00a5df"/>
    </linearGradient>
    <linearGradient id="linear-gradient-39" x1="1093" y1="1639.21" x2="838.59" y2="1465.33" gradientTransform="translate(-256.04 -749.89) rotate(13.66)" gradientUnits="userSpaceOnUse">
      <stop offset=".01" stop-color="#0271bb"/>
      <stop offset=".28" stop-color="#0176bf"/>
      <stop offset=".62" stop-color="#0186cd"/>
      <stop offset=".88" stop-color="#0197db"/>
    </linearGradient>
    <linearGradient id="linear-gradient-40" x1="828.55" y1="1548.25" x2="1091.28" y2="1548.25" xlink:href="#linear-gradient-35"/>
    <linearGradient id="linear-gradient-41" x1="841.26" y1="1548.25" x2="1078.56" y2="1548.25" xlink:href="#linear-gradient-39"/>
    <linearGradient id="linear-gradient-42" x1="865.46" y1="1548.25" x2="1054.37" y2="1548.25" xlink:href="#linear-gradient-35"/>
    <radialGradient id="radial-gradient" cx="959.91" cy="1548.25" fx="959.91" fy="1548.25" r="91.57" gradientTransform="translate(-256.04 -749.89) rotate(13.66)" gradientUnits="userSpaceOnUse">
      <stop offset=".12" stop-color="#8bc151"/>
      <stop offset=".28" stop-color="#87c054"/>
      <stop offset=".42" stop-color="#7cbe5f"/>
      <stop offset=".57" stop-color="#69ba72"/>
      <stop offset=".71" stop-color="#4fb58d"/>
      <stop offset=".85" stop-color="#2eaeaf"/>
      <stop offset=".98" stop-color="#06a6d8"/>
      <stop offset="1" stop-color="#00a5df"/>
    </radialGradient>
  </defs>
  <g class="cls-37">
    <g id="Layer_1" data-name="Layer 1">
      <text class="cls-41" transform="translate(787.9 848.94)"><tspan class="cls-23"><tspan class="cls-18" x="0" y="0">R</tspan><tspan class="cls-43" x="52.84" y="0">o</tspan><tspan class="cls-10" x="106.13" y="0">t</tspan><tspan x="137.68" y="0">a</tspan><tspan class="cls-59" x="194.76" y="0">r</tspan><tspan x="221.9" y="0">a</tspan><tspan class="cls-25" x="278.98" y="0">c</tspan><tspan class="cls-76" x="328.21" y="0">t </tspan><tspan class="cls-21" x="384.83" y="0">Z</tspan><tspan x="430.37" y="0">one</tspan></tspan><tspan class="cls-23"><tspan x="0" y="89.5">In</tspan><tspan class="cls-75" x="72.76" y="89.5">s</tspan><tspan class="cls-77" x="112.26" y="89.5">t</tspan><tspan x="146.07" y="89.5">itu</tspan><tspan class="cls-10" x="250.84" y="89.5">t</tspan><tspan class="cls-47" x="282.4" y="89.5">e</tspan><tspan x="331.36" y="89.5">, Chennai</tspan></tspan><tspan class="cls-50"><tspan class="cls-62" x="0" y="191.47">2</tspan><tspan class="cls-42" x="46.98" y="191.47">0</tspan><tspan class="cls-16" x="102.16" y="191.47">2</tspan><tspan x="148.87" y="191.47">6</tspan></tspan></text>
      <path class="cls-72" d="M470.41,759.38v4.79c0,.93.44,1.8,1.19,2.34,5.91,4.28,23.67,20.79,31.82,60.59h50.3c4.24,0,7.07,4.37,5.34,8.24l-74.4,166.42c-.99,2.23-1.5,4.65-1.4,7.08.1,2.58.52,6.11,1.78,9.89,2.51,7.52,21.93,56.26,49.51,56.26h97.35v-57.93h-75.36c-5.63,0-9.41-5.79-7.14-10.95l76.86-174.75c1.52-3.45,3.97-7.18,3.97-10.95v-61.83h-159c-.44,0-.8.36-.8.8Z"/>
      <g class="cls-32">
        <g>
          <circle class="cls-9" cx="560.13" cy="855.56" r="239.78"/>
          <path class="cls-30" d="M688.86,664.77l-.55-.33-.53.23c-10.52,4.46-20.73,12.91-28.27,22.92-1.49-.77-11.94-6.36-13.41-7.19,4.25-11.7,5.69-24.83,3.64-36.23l-.07-.57-.59-.28c-3.97-2.13-10.01-4.39-13.98-5.35l-.61-.12-.48.4c-9,7.1-16.65,17.86-21.25,29.48-1.61-.44-13.01-3.13-14.61-3.5.95-12.46-1.05-25.47-5.87-35.87l-.21-.53-.64-.18c-4.06-.94-10.48-1.56-14.86-1.52h-.6s-.39.55-.39.55c-6.84,9.06-11.43,21.37-13.08,33.95-1.68,0-13.61.36-15.26.39-2.19-12.31-7.54-24.35-14.89-33.17l-.41-.5-.63.07c-4.29.11-10.65,1.09-14.81,2.27l-.56.18-.3.58c-4.23,10.7-5.43,23.78-3.68,36.14-1.66.5-13.17,3.83-14.87,4.3-5.09-11.08-12.99-21.11-22.17-27.73-.26-.19-1.28-.85-1.28-.85l-.58.18c-4.25,1.23-10.04,3.85-13.7,6.15l-.48.33-.08.57c-1.35,11.37.84,24.27,5.73,35.73-1.45.95-12.08,7.44-13.5,8.28-3.99-4.75-8.46-9.13-13.48-12.74-5.05-3.64-10.46-6.62-15.96-8.48l-.55-.23-.55.36c-3.53,2.12-8.43,6.07-11.58,9.33l-.48.48.12.57c1.67,11.41,7.15,23.37,14.87,33.18-1.23,1.22-9.36,9.99-10.57,11.35-10.18-7.14-22.47-11.88-33.97-12.86l-.63-.09-.39.49c-2.94,3.16-6.74,8.42-8.75,12.13l-.37.56.28.57c4.51,10.49,12.9,20.62,22.92,28.11-.82,1.53-6.68,12.17-7.47,13.75-11.8-4.25-24.92-5.68-36.23-3.67l-.64.1-.32.61c-2.05,3.98-4.31,9.93-5.28,13.91l-.13.61.33.52c3.66,4.56,8.21,8.87,13.31,12.54,4.92,3.55,10.55,6.41,16.21,8.74-.36,1.6-3.08,13.91-3.49,15.54-12.46-.98-25.44,1-35.86,5.81l-.58.25-.2.63c-.87,4.1-1.52,10.48-1.43,14.88l-.05.64,1.34.97c9.09,6.55,21.11,10.94,33.26,12.35.11,1.68.54,12.73.63,14.42-12.28,2.21-24.33,7.51-33.22,14.89l-.43.4.08.59c.08,4.29,1.04,10.69,2.29,14.84l.18.6.57.23c10.65,4.23,23.78,5.47,36.19,3.74.52,1.54,4.1,13.48,4.59,15.13-11.27,5.26-21.57,13.42-28.21,22.91l-.32.49.2.61c1.25,4.03,3.79,9.82,6.13,13.66l.29.52.64.08c11.33,1.32,24.37-.87,35.92-5.76.9,1.37,7.02,11.21,7.89,12.66-9.68,8.21-17.4,18.85-21.22,29.62l-.22.57.3.49c2.17,3.56,6.11,8.45,9.43,11.64l.47.43.65-.07c11.35-1.68,23.35-7.2,33.07-14.99,1.23,1.19,9.94,9.39,11.14,10.51-7.11,10.27-11.94,22.61-12.9,34l-.07.62.48.42c1.6,1.46,3.66,3.15,5.86,4.74,2.18,1.57,4.42,2.98,6.3,4.03l.53.31.55-.27c10.49-4.52,20.67-12.89,28.16-22.96,1.53.8,12.39,6.56,13.88,7.37-4.17,11.83-5.5,24.93-3.51,36.23l.16.65.48.28c4.06,2.07,10.06,4.36,14,5.28l.59.12.49-.35c9.07-7.16,16.64-17.9,21.31-29.56,1.61.39,13.12,2.87,14.76,3.25-1.05,12.4.98,25.4,5.79,35.82l.3.55.58.16c4.14.97,10.56,1.57,14.9,1.48l.62-.03.35-.44c6.84-9.21,11.49-21.47,13-33.94,1.65-.08,13.85-.45,15.49-.47,2.11,12.17,7.38,24.23,14.87,33.15l.38.46h.62c4.28-.18,10.61-1.23,14.8-2.36l.63-.15.19-.6c4.26-10.65,5.49-23.69,3.75-36.15,1.67-.5,13.3-3.97,14.98-4.5,5.35,11.15,13.38,21.2,22.53,27.8l1.03.74.68-.21c4.02-1.23,9.74-3.83,13.61-6.07l.49-.34.11-.65c1.33-11.4-.87-24.4-5.84-36,1.38-.86,11.03-6.92,12.44-7.81,3.95,4.71,8.41,9,13.32,12.54,5.15,3.71,10.67,6.66,16.14,8.62l.56.23.55-.38c3.54-2.13,8.46-6.11,11.66-9.33l.47-.49-.16-.64c-1.69-11.46-7.21-23.43-14.95-33.01,1.25-1.25,9.75-10.11,10.89-11.38,10.31,7.14,22.64,11.86,33.97,12.79l.59.1.45-.5c2.98-3.18,6.73-8.38,8.75-12.14l.3-.54-.25-.56c-4.48-10.43-12.89-20.61-22.93-28.24.8-1.51,6.17-11.67,6.93-13.21,11.77,4.34,24.81,5.71,36.21,3.68l.6-.13.28-.48c2.08-4.1,4.37-10.02,5.35-14.02l.1-.6-.35-.49c-3.61-4.59-8.18-8.79-13.32-12.49-4.97-3.58-10.55-6.53-16.29-8.85.43-1.61,3.01-13.35,3.35-15.01,12.5,1,25.52-1.01,35.91-5.8l.49-.26.16-.6c.99-4.17,1.65-10.6,1.48-14.97l.05-.57s-1.05-.8-1.35-1.02c-8.96-6.46-21-10.84-33.16-12.44-.08-1.66-.5-13.2-.59-14.86,12.34-2.33,24.37-7.64,33.22-14.99l.47-.38-.07-.62c-.18-4.31-1.18-10.73-2.31-14.81l-.2-.65-.56-.15c-10.63-4.25-23.71-5.52-36.15-3.79-.5-1.6-4.03-13.21-4.56-14.82,11.37-5.39,21.59-13.63,28.05-23.03l.37-.51-.15-.58c-1.23-4.24-3.81-9.97-6.18-13.7l-.27-.51-.62-.08c-11.12-1.31-24.13.8-35.82,5.53-.88-1.4-6.96-11.15-7.82-12.58,9.6-7.99,17.37-18.59,21.22-29.44l.16-.55-.3-.52c-2.22-3.59-6.15-8.46-9.38-11.64l-.47-.42-.66.1c-11.42,1.64-23.31,7.14-33.05,14.81-1.19-1.18-9.51-9.18-10.78-10.3,7.2-10.36,11.98-22.73,12.9-34.1l.04-.59-.51-.43c-1.51-1.45-3.66-3.13-5.83-4.69-2.18-1.57-4.39-3.03-6.26-4.02M699.2,955.7c-55.67,77.22-163.83,94.76-241.1,39.06-77.25-55.69-94.78-163.85-39.12-241.07,55.7-77.26,163.84-94.78,241.09-39.09,77.27,55.7,94.82,163.84,39.13,241.1"/>
          <circle class="cls-26" cx="560.12" cy="855.58" r="211.12"/>
          <path class="cls-33" d="M637.34,680.73l-.5-.19-.4.27c-7.94,5.19-15.04,13.59-19.74,22.88-1.33-.41-10.69-3.45-12.01-3.91,1.76-10.19,1.01-21.12-2.34-30.14l-.14-.46-.52-.14c-3.56-1.16-8.83-2.12-12.21-2.32h-.51s-.33.39-.33.39c-6.31,7.13-10.99,17.04-13.04,27.21-1.38-.12-11.09-.65-12.45-.72-1.05-10.33-4.59-20.66-10.06-28.46l-.25-.4-.55-.06c-3.45-.17-8.8.27-12.37.94l-.49.09-.24.5c-4.26,8.41-6.2,19.14-5.71,29.66-1.38.24-11.07,2.29-12.41,2.56-3.6-9.74-9.73-18.8-17.03-24.93l-.41-.34-.51.15c-3.49.72-8.54,2.45-11.77,4.03l-.43.23-.16.51c-1.88,9.36-.95,20.23,2.3,30.08-1.28.65-10.2,5.06-11.52,5.69-5.79-8.31-13.71-15.35-22.19-19.41-.24-.12-1.17-.51-1.17-.51l-.45.23c-3.3,1.63-7.64,4.62-10.3,7.04l-.34.34.02.47c.57,9.49,4.25,19.71,9.93,28.36-1.05.99-8.78,7.85-9.82,8.75-3.96-3.29-8.25-6.22-12.89-8.44-4.66-2.23-9.52-3.88-14.29-4.59l-.49-.11-.39.37c-2.58,2.25-6,6.2-8.09,9.32l-.32.46.19.45c3.04,9.08,9.27,18.05,17.02,24.93-.83,1.18-6.19,9.54-6.97,10.82-9.37-4.34-20.1-6.41-29.65-5.53l-.52.02-.25.46c-1.94,3.01-4.27,7.87-5.37,11.2l-.22.51.31.43c5.23,7.91,13.57,14.96,22.86,19.61-.45,1.37-3.67,10.92-4.09,12.33-10.27-1.74-21.2-.99-30.15,2.32l-.51.18-.17.54c-1.09,3.56-2.07,8.75-2.27,12.14l-.02.51.35.38c3.66,3.19,8.01,6.04,12.72,8.3,4.55,2.18,9.56,3.69,14.53,4.76-.06,1.36-.48,11.82-.57,13.21-10.33,1.03-20.65,4.55-28.45,10.01l-.43.29-.07.55c-.11,3.48.3,8.79,1.01,12.37l.05.53,1.24.59c8.39,4.02,18.85,5.84,28.99,5.21.34,1.36,2.31,10.33,2.63,11.69-9.71,3.6-18.78,9.71-24.97,17.05l-.29.39.15.47c.69,3.5,2.42,8.58,4.05,11.79l.23.47.5.11c9.33,1.89,20.24.98,30.13-2.25.65,1.19,5.33,10.42,5.97,11.69-8.44,5.95-15.66,14.13-19.69,22.86l-.19.45.25.47c1.61,3.11,4.54,7.46,7.02,10.27l.31.38.54-.03c9.45-.58,19.79-4.28,28.51-9.98.94.99,7.38,8.13,8.31,9.19-6.71,8.13-11.45,17.96-12.99,27.32l-.1.5.32.35c2.29,2.59,6.23,6.01,9.42,8.13l.44.28.52-.15c9.03-3.04,18.02-9.31,24.83-17.1,1.18.79,9.5,6.21,10.64,6.95-4.3,9.43-6.44,20.23-5.55,29.68l.04.51.45.27c1.52.96,3.46,2.04,5.48,3.01,2.01.96,4.05,1.79,5.74,2.37l.48.18.41-.3c7.91-5.23,15-13.57,19.64-22.89,1.37.43,11.09,3.54,12.42,3.99-1.67,10.28-.84,21.18,2.45,30.12l.22.51.44.15c3.62,1.09,8.86,2.09,12.21,2.26h.5s.35-.34.35-.34c6.36-7.18,10.97-17.07,13.08-27.29,1.38.08,11.15.42,12.54.49.96,10.29,4.53,20.61,9.99,28.43l.32.4.5.05c3.53.19,8.86-.27,12.39-.98l.5-.11.22-.41c4.24-8.53,6.24-19.23,5.64-29.65,1.33-.31,11.25-2.4,12.59-2.65,3.51,9.64,9.59,18.72,17.01,24.91l.38.32.5-.1c3.47-.76,8.5-2.55,11.75-4.09l.49-.21.07-.52c1.91-9.33,1.01-20.16-2.24-30.1,1.29-.65,10.29-5.19,11.58-5.88,6.01,8.33,14.05,15.36,22.5,19.41l.95.46.52-.27c3.1-1.59,7.39-4.56,10.23-6.96l.35-.35v-.55c-.59-9.51-4.3-19.81-10.06-28.56,1-.9,8-7.27,9.02-8.21,3.92,3.27,8.2,6.12,12.73,8.29,4.75,2.28,9.69,3.88,14.45,4.67l.49.11.39-.39c2.58-2.26,6.02-6.24,8.16-9.33l.31-.47-.22-.5c-3.06-9.12-9.33-18.09-17.06-24.78.84-1.21,6.48-9.69,7.23-10.9,9.48,4.32,20.24,6.37,29.64,5.47h.49s.3-.48.3-.48c1.97-3.04,4.27-7.84,5.37-11.2l.17-.48-.29-.42c-5.2-7.86-13.56-14.95-22.88-19.72.43-1.36,3.33-10.44,3.72-11.82,10.25,1.82,21.12,1.02,30.13-2.31l.47-.19.16-.43c1.09-3.66,2.1-8.83,2.31-12.24v-.51s-.36-.35-.36-.35c-3.62-3.22-7.98-5.98-12.72-8.26-4.59-2.2-9.58-3.79-14.61-4.84.12-1.38.5-11.35.53-12.76,10.36-1.02,20.7-4.57,28.49-10.01l.36-.28.05-.51c.2-3.55-.21-8.91-.98-12.45l-.04-.48s-.97-.5-1.25-.63c-8.27-3.96-18.75-5.77-28.92-5.3-.31-1.34-2.34-10.71-2.66-12.06,9.75-3.72,18.8-9.82,24.95-17.12l.33-.38-.15-.5c-.78-3.5-2.54-8.6-4.06-11.76l-.26-.5-.48-.04c-9.31-1.91-20.19-1.03-30.1,2.21-.64-1.23-5.23-10.21-5.9-11.44,8.5-6.07,15.64-14.31,19.55-22.93l.22-.47-.21-.45c-1.63-3.28-4.58-7.59-7.07-10.29l-.3-.38-.52.02c-9.28.56-19.6,4.19-28.47,9.77-.92-1.01-7.33-8.09-8.24-9.13,6.67-7.94,11.47-17.74,13.02-27.17l.05-.47-.32-.38c-2.34-2.61-6.27-6.01-9.37-8.14l-.45-.27-.52.18c-9.09,3.02-18,9.25-24.83,16.95-1.15-.79-9.12-6.1-10.32-6.83,4.36-9.52,6.45-20.33,5.54-29.76l-.06-.48-.48-.28c-1.45-.96-3.45-2.02-5.45-2.98s-4.03-1.83-5.71-2.37M688.47,916.98c-34.16,71.27-119.98,101.48-191.3,67.3-71.3-34.18-101.5-119.99-67.34-191.27,34.18-71.31,119.99-101.5,191.29-67.32,71.32,34.18,101.54,119.98,67.35,191.29"/>
          <circle class="cls-57" cx="560.13" cy="855.56" r="170.54"/>
          <circle class="cls-52" cx="560.13" cy="855.56" r="137.82"/>
          <path class="cls-39" d="M609.16,757.57l-.28-.12-.23.14c-4.69,2.75-8.99,7.37-11.94,12.56-.75-.27-6.03-2.27-6.77-2.57,1.29-5.79,1.16-12.07-.51-17.32l-.07-.26-.29-.1c-2.01-.76-5-1.46-6.93-1.67l-.29-.02-.2.22c-3.81,3.91-6.76,9.45-8.22,15.22-.79-.11-6.33-.68-7.11-.75-.32-5.94-2.06-11.96-4.98-16.57l-.13-.24-.31-.05c-1.97-.19-5.05-.09-7.11.2l-.28.04-.15.28c-2.67,4.7-4.08,10.79-4.09,16.83-.79.1-6.4,1.01-7.18,1.12-1.79-5.68-5.06-11.03-9.07-14.74l-.23-.21-.29.07c-2.02.31-4.96,1.17-6.85,1.98l-.25.12-.11.29c-1.34,5.31-1.1,11.56.49,17.29-.75.34-5.98,2.62-6.75,2.94-3.09-4.92-7.43-9.17-12.17-11.73-.13-.07-.65-.32-.65-.32l-.26.12c-1.93.84-4.5,2.43-6.09,3.75l-.21.18v.27c.06,5.45,1.89,11.4,4.9,16.51-.63.54-5.25,4.25-5.86,4.74-2.18-1.99-4.56-3.79-7.15-5.19-2.61-1.41-5.35-2.48-8.06-3.02l-.28-.07-.24.2c-1.54,1.22-3.61,3.38-4.89,5.11l-.2.26.09.26c1.49,5.28,4.81,10.59,9.06,14.75-.51.65-3.81,5.29-4.29,6.01-5.25-2.75-11.34-4.22-16.83-3.98h-.3s-.15.25-.15.25c-1.2,1.67-2.66,4.39-3.38,6.26l-.14.29.17.25c2.78,4.67,7.36,8.94,12.55,11.86-.29.77-2.4,6.15-2.68,6.95-5.83-1.28-12.11-1.15-17.33.5l-.3.09-.11.31c-.72,2.01-1.42,4.95-1.64,6.89l-.02.29.19.22c2.01,1.93,4.42,3.68,7.05,5.1,2.54,1.37,5.38,2.38,8.19,3.13-.07.78-.6,6.76-.69,7.55-5.94.3-11.95,2.04-16.57,4.95l-.26.15-.05.31c-.16,1.99-.07,5.04.24,7.11l.02.3.69.37c4.69,2.53,10.64,3.87,16.46,3.78.16.79,1.04,5.98,1.18,6.77-5.66,1.8-11.02,5.04-14.77,9.08l-.18.21.07.27c.3,2.02,1.15,4.98,1.99,6.86l.12.27.28.07c5.29,1.34,11.56,1.12,17.32-.46.34.7,2.76,6.11,3.1,6.86-5,3.18-9.36,7.66-11.91,12.55l-.12.25.13.28c.84,1.82,2.4,4.4,3.74,6.07l.17.23h.31c5.43-.07,11.45-1.91,16.6-4.93.51.59,4,4.86,4.5,5.49-4.07,4.47-7.05,9.97-8.19,15.29l-.07.28.17.21c1.24,1.55,3.4,3.61,5.17,4.92l.25.17.3-.07c5.25-1.49,10.58-4.84,14.69-9.11.66.49,5.27,3.82,5.9,4.28-2.72,5.28-4.25,11.41-4,16.85v.3s.26.17.26.17c.84.59,1.92,1.26,3.06,1.87,1.12.61,2.27,1.13,3.22,1.51l.27.11.24-.16c4.67-2.78,8.96-7.36,11.88-12.57.77.28,6.25,2.34,7,2.63-1.24,5.84-1.06,12.11.57,17.32l.11.3.25.1c2.04.73,5.02,1.44,6.93,1.63l.29.02.21-.2c3.84-3.94,6.75-9.47,8.24-15.27.79.09,6.37.55,7.17.63.27,5.92,2.03,11.93,4.94,16.55l.17.24.29.04c2.01.2,5.08.09,7.12-.22l.29-.05.14-.23c2.66-4.77,4.1-10.84,4.05-16.82.77-.14,6.51-1.06,7.28-1.17,1.75,5.62,4.97,10.98,9.06,14.73l.21.19.29-.04c2.01-.34,4.94-1.23,6.84-2.02l.29-.11.05-.29c1.35-5.29,1.13-11.52-.46-17.3.76-.34,6.03-2.69,6.79-3.05,3.21,4.94,7.62,9.18,12.35,11.74l.53.29.31-.14c1.82-.83,4.36-2.41,6.05-3.7l.21-.19v-.31c-.06-5.46-1.9-11.46-4.96-16.63.6-.49,4.78-3.94,5.39-4.45,2.15,1.98,4.53,3.73,7.06,5.1,2.66,1.44,5.44,2.49,8.15,3.07l.28.08.24-.21c1.54-1.22,3.62-3.41,4.93-5.12l.19-.26-.11-.29c-1.5-5.3-4.85-10.62-9.09-14.66.51-.67,3.98-5.37,4.44-6.04,5.31,2.74,11.42,4.21,16.82,3.95h.28s.18-.25.18-.25c1.21-1.69,2.66-4.37,3.38-6.27l.11-.27-.15-.25c-2.76-4.65-7.35-8.94-12.56-11.92.29-.76,2.19-5.89,2.46-6.66,5.82,1.33,12.06,1.17,17.32-.49l.27-.1.1-.24c.73-2.06,1.45-5,1.66-6.95v-.29s-.18-.21-.18-.21c-1.99-1.94-4.4-3.65-7.06-5.08-2.57-1.39-5.38-2.44-8.23-3.18.11-.79.6-6.49.66-7.29,5.96-.3,11.98-2.05,16.59-4.95l.22-.15.04-.29c.21-2.03.13-5.11-.22-7.16v-.27s-.55-.31-.71-.4c-4.63-2.5-10.58-3.82-16.42-3.83-.14-.78-1.05-6.2-1.19-6.98,5.68-1.86,11.04-5.11,14.76-9.12l.2-.21-.07-.29c-.35-2.03-1.22-4.99-2-6.85l-.14-.29-.27-.04c-5.28-1.35-11.53-1.15-17.3.44-.33-.72-2.72-5.99-3.07-6.71,5.03-3.24,9.35-7.76,11.83-12.59l.14-.26-.11-.26c-.84-1.92-2.41-4.47-3.76-6.09l-.16-.22h-.3c-5.33.06-11.34,1.86-16.57,4.81-.5-.61-3.97-4.84-4.47-5.46,4.04-4.36,7.06-9.84,8.21-15.2l.04-.27-.17-.23c-1.27-1.56-3.42-3.61-5.14-4.92l-.25-.17-.3.09c-5.29,1.48-10.56,4.8-14.69,9.02-.64-.49-5.05-3.75-5.72-4.2,2.76-5.33,4.25-11.47,3.99-16.89l-.02-.28-.27-.17c-.8-.59-1.92-1.25-3.04-1.86-1.13-.61-2.26-1.16-3.2-1.51M631.94,894.27c-21.53,39.88-71.51,54.81-111.41,33.27-39.89-21.54-54.82-71.51-33.3-111.39,21.54-39.9,71.51-54.82,111.4-33.29,39.9,21.54,54.84,71.51,33.3,111.4"/>
          <circle class="cls-53" cx="560.13" cy="855.56" r="84.92"/>
        </g>
        <g>
          <circle class="cls-12" cx="484.44" cy="793.21" r="200.39"/>
          <path class="cls-54" d="M666.71,854.66l.15-.52-.3-.37c-5.92-7.49-15-13.84-24.74-17.7.29-1.37,2.48-11.03,2.82-12.4,10.37.83,21.27-.92,30-5.1l.44-.18.1-.54c.83-3.67,1.32-9.04,1.21-12.45l-.04-.52-.43-.3c-7.72-5.68-18.08-9.46-28.47-10.59,0-1.39-.36-11.17-.42-12.55,10.26-1.99,20.29-6.49,27.61-12.68l.38-.29v-.56c-.14-3.48-1.06-8.79-2.06-12.31l-.14-.48-.52-.19c-8.82-3.5-19.75-4.47-30.25-3.02-.37-1.36-3.31-10.89-3.7-12.21,9.43-4.5,17.95-11.47,23.43-19.35l.31-.44-.19-.49c-1.04-3.43-3.24-8.34-5.11-11.43l-.27-.41-.53-.11c-9.56-1.03-20.37.9-29.94,5.05-.77-1.22-6.01-9.76-6.76-11.03,7.8-6.56,14.13-15.15,17.43-24.01.09-.25.4-1.22.4-1.22l-.27-.43c-1.93-3.16-5.33-7.24-7.99-9.68l-.37-.31-.47.06c-9.46,1.44-19.37,6.06-27.52,12.54-1.08-.96-8.67-8.09-9.66-9.04,2.94-4.27,5.48-8.84,7.28-13.69,1.81-4.87,3.02-9.9,3.29-14.74l.06-.5-.41-.36c-2.49-2.38-6.76-5.45-10.08-7.26l-.49-.28-.44.23c-8.82,3.88-17.25,10.94-23.44,19.33-1.26-.72-10.12-5.33-11.49-6,3.5-9.79,4.59-20.74,2.84-30.22l-.06-.52-.48-.21c-3.2-1.67-8.28-3.56-11.71-4.36l-.53-.17-.4.35c-7.45,5.96-13.76,14.97-17.57,24.7-1.41-.32-11.28-2.68-12.74-2.97.81-10.45-.94-21.34-5.07-30.01l-.23-.49-.56-.12c-3.66-.77-8.96-1.27-12.38-1.17l-.52.03-.34.39c-2.87,3.96-5.33,8.58-7.16,13.51-1.77,4.75-2.83,9.92-3.45,15-1.37.07-11.89.6-13.3.63-1.97-10.26-6.44-20.28-12.63-27.61l-.33-.41-.55-.02c-3.5.21-8.78,1.1-12.31,2.14l-.53.1-.48,1.3c-3.26,8.77-4.14,19.43-2.58,29.54-1.33.46-10.14,3.26-11.48,3.7-4.5-9.41-11.44-17.94-19.37-23.47l-.42-.26-.46.19c-3.44,1.01-8.38,3.21-11.45,5.13l-.45.28-.06.51c-1.05,9.52.87,20.38,5.01,29.99-1.13.76-9.96,6.29-11.18,7.05-6.74-7.92-15.6-14.41-24.71-17.66l-.47-.15-.45.29c-2.97,1.9-7.07,5.23-9.65,7.97l-.35.35.07.53c1.45,9.42,6.1,19.44,12.6,27.67-.9,1.03-7.47,8.14-8.45,9.16-8.76-5.98-19.04-9.84-28.57-10.53l-.51-.05-.33.35c-2.39,2.54-5.46,6.79-7.29,10.18l-.24.47.2.51c3.87,8.77,10.98,17.22,19.41,23.33-.69,1.26-5.36,10.09-6,11.3-9.85-3.45-20.87-4.61-30.26-2.86l-.51.08-.23.48c-.82,1.61-1.73,3.65-2.52,5.77-.78,2.1-1.42,4.22-1.85,5.97l-.13.5.34.38c5.97,7.45,14.97,13.8,24.74,17.6-.31,1.41-2.54,11.44-2.86,12.81-10.46-.74-21.31,1.09-29.97,5.2l-.49.27-.12.45c-.76,3.73-1.28,9.07-1.16,12.45l.03.51.39.31c7.78,5.72,18.11,9.44,28.55,10.62.04,1.39.6,11.21.65,12.61-10.23,1.9-20.25,6.42-27.58,12.6l-.37.36v.51c.13,3.55,1.08,8.86,2.11,12.33l.16.49.43.19c8.94,3.47,19.84,4.5,30.23,2.95.43,1.31,3.43,11.06,3.81,12.38-9.34,4.4-17.89,11.32-23.42,19.33l-.29.41.15.5c1.08,3.41,3.33,8.28,5.17,11.41l.26.47.53.02c9.53,1.07,20.3-.83,29.96-4.99.77,1.23,6.15,9.84,6.95,11.07-7.8,6.79-14.12,15.48-17.41,24.32l-.37.99.32.5c1.88,2.97,5.25,6.99,7.91,9.62l.38.32.55-.06c9.48-1.46,19.47-6.11,27.71-12.69,1,.92,8.02,7.36,9.05,8.29-2.92,4.22-5.39,8.78-7.15,13.51-1.85,4.97-3.01,10.07-3.37,14.92l-.06.5.43.36c2.5,2.38,6.8,5.46,10.1,7.33l.5.27.48-.27c8.86-3.9,17.28-11.01,23.28-19.36,1.29.73,10.3,5.61,11.58,6.25-3.47,9.89-4.54,20.87-2.78,30.21l.05.49.5.25c3.22,1.69,8.25,3.56,11.72,4.36l.5.12.39-.33c7.41-5.92,13.75-14.96,17.68-24.73,1.4.31,10.77,2.38,12.18,2.66-.89,10.44.9,21.26,5.06,29.99l.23.45.45.12c3.76.76,9.04,1.3,12.48,1.2l.51-.05.31-.39c2.9-3.93,5.27-8.54,7.12-13.5,1.79-4.8,2.93-9.95,3.52-15.09,1.39,0,11.43-.53,12.84-.63,1.97,10.29,6.47,20.34,12.63,27.65l.32.34h.52c3.58-.12,8.91-1.02,12.39-2.12l.47-.08s.41-1.02.52-1.31c3.22-8.65,4.08-19.32,2.67-29.48,1.32-.43,10.52-3.32,11.84-3.77,4.61,9.43,11.56,17.95,19.44,23.45l.41.3.48-.2c3.44-1.1,8.39-3.33,11.42-5.15l.48-.31v-.48c1.06-9.51-.81-20.33-4.96-29.97,1.18-.76,9.75-6.18,10.93-6.96,6.86,7.97,15.77,14.37,24.77,17.5l.49.18.43-.25c3.14-1.93,7.19-5.28,9.67-8.02l.35-.33-.07-.52c-1.41-9.25-5.99-19.27-12.39-27.64.93-1.02,7.45-8.08,8.4-9.09,8.57,5.96,18.83,9.88,28.43,10.58h.48s.35-.35.35-.35c2.4-2.58,5.45-6.83,7.3-10.14l.23-.47-.23-.51c-3.85-8.84-10.92-17.2-19.26-23.35.69-1.22,5.29-9.7,5.91-10.97,9.94,3.51,20.97,4.61,30.34,2.84l.48-.1.23-.5c.83-1.54,1.71-3.64,2.49-5.73.78-2.11,1.47-4.21,1.85-5.94M434.57,927.47c-74.56-27.74-112.67-111.01-84.91-185.61,27.75-74.59,111.02-112.69,185.58-84.95,74.6,27.76,112.69,111.01,84.94,185.6-27.76,74.61-111,112.72-185.6,84.97"/>
          <circle class="cls-13" cx="484.42" cy="793.22" r="176.44"/>
          <path class="cls-2" d="M636.82,841.07l.11-.43-.26-.3c-5.05-6.11-12.69-11.23-20.84-14.27.22-1.15,1.87-9.2,2.13-10.34,8.63.51,17.64-1.13,24.81-4.75l.37-.16.07-.45c.63-3.06.94-7.53.79-10.35l-.04-.43-.36-.24c-6.51-4.58-15.17-7.54-23.81-8.3-.03-1.16-.49-9.27-.56-10.41,8.48-1.83,16.73-5.74,22.7-11l.31-.25v-.46c-.18-2.88-1.04-7.28-1.93-10.18l-.12-.4-.43-.15c-7.38-2.75-16.48-3.37-25.16-1.98-.33-1.12-2.93-8.98-3.28-10.07,7.75-3.9,14.71-9.83,19.12-16.47l.25-.37-.17-.41c-.92-2.83-2.83-6.87-4.44-9.4l-.23-.34-.44-.08c-7.95-.69-16.89,1.1-24.76,4.71-.66-1-5.15-8-5.8-9.04,6.36-5.58,11.47-12.82,14.06-20.23.07-.21.31-1.02.31-1.02l-.23-.35c-1.66-2.59-4.55-5.92-6.8-7.9l-.31-.25-.39.06c-7.83,1.36-15.97,5.36-22.63,10.88-.92-.78-7.34-6.56-8.18-7.34,2.37-3.59,4.4-7.43,5.81-11.49,1.42-4.08,2.34-8.27,2.48-12.29l.04-.41-.35-.29c-2.11-1.93-5.71-4.4-8.49-5.85l-.41-.22-.36.2c-7.26,3.37-14.13,9.38-19.12,16.45-1.06-.58-8.49-4.25-9.64-4.78,2.74-8.19,3.45-17.29,1.83-25.14l-.06-.43-.4-.16c-2.68-1.33-6.93-2.81-9.8-3.42l-.45-.13-.32.3c-6.08,5.08-11.16,12.66-14.16,20.81-1.18-.24-9.41-2.03-10.62-2.25.49-8.69-1.15-17.7-4.73-24.82l-.2-.41-.47-.09c-3.05-.58-7.46-.9-10.3-.76l-.43.03-.28.33c-2.31,3.34-4.27,7.22-5.71,11.33-1.39,3.98-2.18,8.29-2.6,12.51-1.14.08-9.86.7-11.03.76-1.81-8.48-5.7-16.72-10.96-22.7l-.28-.33h-.46c-2.9.23-7.27,1.06-10.18,1.99l-.43.09-.38,1.08c-2.56,7.34-3.1,16.2-1.63,24.56-1.09.41-8.36,2.88-9.46,3.27-3.9-7.73-9.81-14.69-16.48-19.15l-.35-.21-.37.17c-2.84.9-6.9,2.81-9.41,4.46l-.37.24-.04.42c-.7,7.92,1.07,16.9,4.68,24.81-.92.65-8.16,5.39-9.16,6.05-5.73-6.46-13.2-11.69-20.82-14.23l-.39-.11-.37.25c-2.43,1.63-5.78,4.47-7.87,6.78l-.29.3.07.44c1.36,7.8,5.4,16.04,10.94,22.75-.73.87-6.06,6.89-6.86,7.75-7.38-4.82-15.98-7.84-23.9-8.25l-.42-.03-.26.3c-1.94,2.15-4.41,5.73-5.88,8.58l-.19.39.18.42c3.37,7.21,9.41,14.1,16.51,19.03-.55,1.06-4.28,8.47-4.78,9.49-8.23-2.69-17.4-3.47-25.17-1.85l-.42.08-.18.4c-.65,1.35-1.37,3.06-1.99,4.83-.61,1.76-1.11,3.53-1.43,4.98l-.1.41.29.31c5.08,6.08,12.66,11.19,20.84,14.18-.23,1.18-1.91,9.54-2.16,10.69-8.7-.43-17.67,1.28-24.79,4.83l-.4.23-.09.38c-.57,3.11-.91,7.55-.74,10.35l.04.42.33.25c6.55,4.61,15.19,7.52,23.88,8.32.06,1.15.69,9.3.76,10.46-8.46,1.75-16.7,5.68-22.68,10.94l-.3.31v.42c.18,2.95,1.06,7.33,1.97,10.2l.14.41.36.15c7.48,2.72,16.55,3.39,25.15,1.93.38,1.08,3.04,9.12,3.38,10.21-7.68,3.82-14.66,9.7-19.11,16.45l-.23.34.13.41c.96,2.81,2.91,6.82,4.49,9.38l.22.39h.44c7.93.73,16.84-1.03,24.79-4.66.66,1.01,5.27,8.06,5.96,9.07-6.36,5.77-11.45,13.1-14.03,20.49l-.29.83.28.41c1.61,2.43,4.48,5.72,6.73,7.85l.32.26.45-.06c7.85-1.37,16.06-5.41,22.78-11.01.84.75,6.78,5.97,7.66,6.73-2.35,3.56-4.32,7.38-5.7,11.34-1.45,4.16-2.32,8.41-2.54,12.44l-.04.42.36.29c2.12,1.93,5.74,4.42,8.51,5.91l.42.22.4-.23c7.29-3.39,14.15-9.43,18.99-16.48,1.08.59,8.65,4.48,9.72,4.99-2.71,8.27-3.41,17.4-1.79,25.13l.05.41.42.2c2.71,1.35,6.91,2.81,9.8,3.42l.42.09.32-.28c6.05-5.05,11.16-12.65,14.25-20.84,1.17.24,8.98,1.79,10.16,1.99-.56,8.68,1.12,17.63,4.72,24.81l.2.37.37.09c3.14.57,7.53.93,10.38.78l.42-.05.25-.33c2.34-3.31,4.23-7.18,5.67-11.33,1.4-4.02,2.26-8.31,2.66-12.58,1.16-.03,9.48-.64,10.65-.74,1.81,8.51,5.72,16.77,10.96,22.73l.27.28h.43c2.97-.17,7.38-1.01,10.25-1.99l.39-.08s.33-.86.41-1.1c2.52-7.23,3.05-16.11,1.71-24.51,1.09-.38,8.68-2.94,9.77-3.33,3.99,7.75,9.9,14.7,16.54,19.13l.35.24.4-.17c2.83-.97,6.9-2.91,9.39-4.47l.39-.26v-.4c.71-7.91-1.03-16.87-4.64-24.79.97-.65,7.99-5.3,8.95-5.97,5.83,6.49,13.34,11.66,20.87,14.1l.41.14.35-.21c2.58-1.66,5.88-4.51,7.89-6.83l.29-.28-.07-.43c-1.33-7.65-5.31-15.89-10.77-22.73.76-.86,6.04-6.84,6.82-7.69,7.22,4.8,15.8,7.87,23.78,8.29h.4s.29-.3.29-.3c1.95-2.19,4.41-5.76,5.89-8.54l.19-.4-.2-.42c-3.35-7.27-9.36-14.09-16.39-19.05.55-1.03,4.22-8.14,4.71-9.21,8.32,2.74,17.49,3.47,25.23,1.83l.4-.09.18-.42c.67-1.29,1.36-3.05,1.97-4.8.61-1.76,1.15-3.52,1.44-4.96M445.38,905.52c-62.37-21.74-95.45-90.21-73.69-152.62,21.75-62.4,90.21-95.46,152.58-73.72,62.41,21.75,95.46,90.21,73.71,152.6-21.75,62.41-90.2,95.49-152.61,73.74"/>
          <circle class="cls-44" cx="484.44" cy="793.21" r="142.53"/>
          <circle class="cls-1" cx="484.44" cy="793.21" r="115.18"/>
          <path class="cls-71" d="M574.27,811l.04-.25-.17-.16c-3.26-3.17-7.93-5.61-12.77-6.83.05-.67.49-5.36.57-6.03,4.95-.25,9.98-1.74,13.85-4.25l.2-.11v-.26c.18-1.79.08-4.35-.18-5.95l-.05-.24-.22-.11c-3.99-2.21-9.12-3.35-14.09-3.25-.09-.66-.86-5.25-.97-5.9,4.72-1.57,9.18-4.31,12.25-7.68l.16-.16-.03-.26c-.28-1.63-1.05-4.09-1.73-5.68l-.1-.22-.26-.06c-4.38-1.11-9.6-.9-14.47.44-.26-.62-2.23-4.94-2.5-5.54,4.18-2.7,7.77-6.52,9.87-10.57l.12-.23-.12-.22c-.7-1.56-2.04-3.74-3.12-5.08l-.15-.18-.26-.02c-4.58.1-9.56,1.68-13.82,4.22-.44-.53-3.44-4.24-3.87-4.79,3.28-3.58,5.74-8.02,6.75-12.41.03-.12.11-.6.11-.6l-.15-.18c-1.11-1.37-2.96-3.09-4.37-4.08l-.19-.13-.22.06c-4.38,1.26-8.77,4.05-12.22,7.61-.57-.39-4.59-3.28-5.12-3.67,1.12-2.2,2.04-4.51,2.6-6.91.56-2.41.82-4.86.65-7.16v-.24s-.22-.15-.22-.15c-1.32-.97-3.53-2.15-5.21-2.81l-.25-.1-.19.13c-3.93,2.37-7.47,6.23-9.87,10.57-.64-.26-5.11-1.89-5.79-2.13,1.05-4.84.89-10.07-.52-14.44l-.06-.24-.24-.07c-1.61-.59-4.13-1.17-5.8-1.34l-.26-.05-.17.19c-3.15,3.27-5.57,7.91-6.78,12.74-.69-.07-5.49-.57-6.19-.62-.26-4.98-1.76-10.02-4.24-13.85l-.14-.22-.27-.02c-1.78-.14-4.31-.05-5.92.21l-.24.05-.14.2c-1.11,2.05-1.99,4.38-2.55,6.82s-.72,4.86-.71,7.29c-.64.12-5.58,1.01-6.24,1.12-1.56-4.72-4.29-9.18-7.66-12.25l-.18-.17-.26.03c-1.64.31-4.08,1.06-5.68,1.77l-.24.08-.15.64c-1,4.34-.76,9.43.6,14.1-.6.3-4.59,2.16-5.19,2.45-2.7-4.16-6.51-7.76-10.59-9.89l-.21-.1-.2.12c-1.56.69-3.76,2.03-5.09,3.13l-.19.16v.24c.09,4.56,1.67,9.57,4.21,13.85-.49.43-4.31,3.58-4.84,4.02-3.67-3.32-8.25-5.84-12.75-6.81l-.23-.04-.19.17c-1.28,1.08-3.01,2.91-4.07,4.36l-.14.19.07.25c1.26,4.36,4.08,8.8,7.65,12.28-.36.54-3.03,4.3-3.43,4.85-4.5-2.29-9.59-3.47-14.13-3.21h-.24s-.13.19-.13.19c-.97,1.34-2.16,3.54-2.82,5.25l-.08.24.13.23c2.37,3.9,6.24,7.45,10.6,9.82-.25.64-1.91,5.09-2.14,5.71-4.86-1.02-10.13-.89-14.46.51l-.24.07-.08.24c-.29.81-.59,1.83-.83,2.88s-.41,2.08-.51,2.93l-.03.24.18.16c3.28,3.15,7.91,5.59,12.76,6.79-.06.69-.5,5.56-.56,6.23-4.98.29-9.99,1.83-13.83,4.3l-.22.16-.03.22c-.13,1.81-.05,4.36.22,5.95l.05.24.2.12c4.02,2.22,9.13,3.34,14.13,3.26.11.65.97,5.26,1.08,5.91-4.71,1.53-9.16,4.28-12.25,7.65l-.15.19.03.24c.28,1.67,1.05,4.11,1.76,5.69l.11.22.21.06c4.43,1.09,9.64.9,14.45-.47.28.59,2.3,5.01,2.56,5.61-4.14,2.65-7.75,6.44-9.87,10.56l-.11.21.1.23c.72,1.54,2.08,3.71,3.14,5.07l.15.21.25-.02c4.56-.08,9.53-1.64,13.84-4.2.44.54,3.51,4.27,3.96,4.8-3.27,3.68-5.71,8.18-6.72,12.55l-.11.49.18.21c1.07,1.28,2.91,2.98,4.33,4.06l.2.13.25-.06c4.39-1.27,8.81-4.08,12.3-7.69.53.37,4.24,2.98,4.78,3.36-1.12,2.17-2,4.47-2.55,6.82-.57,2.46-.8,4.94-.67,7.25v.24s.22.14.22.14c1.33.97,3.55,2.16,5.22,2.84l.25.1.21-.16c3.94-2.38,7.48-6.26,9.8-10.57.65.27,5.21,2.02,5.85,2.24-1.03,4.88-.86,10.13.55,14.43l.05.23.25.09c1.63.6,4.11,1.17,5.8,1.34l.24.03.17-.18c3.13-3.25,5.57-7.91,6.82-12.76.68.06,5.23.46,5.91.5.22,4.98,1.73,9.98,4.23,13.85l.14.2.22.03c1.82.13,4.35.06,5.97-.2l.24-.06.12-.2c1.13-2.03,1.96-4.36,2.53-6.81.55-2.38.77-4.87.73-7.34.66-.09,5.36-.95,6.02-1.09,1.56,4.74,4.31,9.2,7.66,12.27l.17.14.25-.03c1.68-.28,4.14-1.03,5.72-1.76l.22-.07s.13-.51.17-.65c.99-4.28.74-9.37-.55-14.08.6-.29,4.76-2.22,5.36-2.51,2.76,4.17,6.56,7.76,10.62,9.87l.21.11.22-.12c1.55-.73,3.75-2.09,5.08-3.13l.21-.18-.03-.23c-.08-4.55-1.63-9.55-4.18-13.84.51-.43,4.22-3.52,4.73-3.96,3.73,3.34,8.33,5.82,12.77,6.74l.24.06.19-.14c1.36-1.1,3.07-2.93,4.07-4.38l.15-.18-.07-.24c-1.23-4.28-4.01-8.73-7.55-12.29.38-.54,3.02-4.27,3.41-4.81,4.41,2.29,9.5,3.5,14.07,3.24l.23-.03.14-.19c.98-1.37,2.15-3.56,2.82-5.23l.08-.24-.14-.23c-2.36-3.93-6.21-7.45-10.53-9.84.25-.62,1.9-4.9,2.11-5.54,4.91,1.04,10.18.89,14.5-.53l.22-.08.08-.25c.3-.78.58-1.82.82-2.86s.43-2.08.51-2.92M469.17,859.66c-36.9-8.51-60.01-45.47-51.5-82.4,8.51-36.92,45.47-60.03,82.38-51.52,36.92,8.51,60.02,45.47,51.51,82.39-8.51,36.93-45.46,60.04-82.39,51.53"/>
          <circle class="cls-51" cx="484.44" cy="793.21" r="70.97"/>
        </g>
      </g>
      <path class="cls-78" d="M648.67,1095.39h67.75s-12.95,124.92-134.95,124.92c-77.71,0-90.23-45.27-166.28-49.72-64.34-3.76-94.84,28.41-94.84,28.41l-36.35-60.58s43.87-39.27,122.41-39.27,115.73,50.97,177.14,50.97,65.11-54.73,65.11-54.73Z"/>
      <rect class="cls-56" x="648.32" y="750.98" width="68.1" height="324.01"/>
      <g class="cls-68">
        <g>
          <circle class="cls-48" cx="540.48" cy="1240.64" r="387.64"/>
          <path class="cls-61" d="M893.07,1359.5l.28-1-.59-.72c-11.46-14.48-29.01-26.77-47.85-34.25.56-2.66,4.79-21.33,5.45-23.98,20.07,1.61,41.14-1.78,58.03-9.86l.86-.35.18-1.04c1.61-7.11,2.55-17.49,2.35-24.08l-.08-1-.83-.57c-14.93-10.99-34.97-18.3-55.07-20.49,0-2.69-.69-21.62-.81-24.27,19.84-3.86,39.25-12.55,53.4-24.53l.73-.56v-1.08c-.26-6.73-2.06-17.01-3.99-23.81l-.27-.93-1-.37c-17.05-6.77-38.21-8.65-58.52-5.83-.71-2.63-6.39-21.06-7.15-23.62,18.25-8.7,34.73-22.19,45.33-37.43l.6-.86-.37-.96c-2-6.64-6.27-16.13-9.89-22.11l-.52-.8-1.03-.22c-18.49-2-39.4,1.73-57.91,9.77-1.5-2.37-11.62-18.88-13.07-21.33,15.09-12.69,27.34-29.3,33.72-46.45.18-.49.77-2.35.77-2.35l-.52-.82c-3.74-6.1-10.3-14-15.46-18.72l-.72-.61-.91.13c-18.31,2.78-37.47,11.72-53.24,24.25-2.1-1.86-16.77-15.64-18.7-17.49,5.69-8.26,10.6-17.1,14.09-26.47,3.51-9.43,5.84-19.15,6.37-28.51l.12-.96-.8-.7c-4.83-4.6-13.08-10.53-19.5-14.04l-.95-.54-.84.44c-17.07,7.5-33.37,21.16-45.34,37.4-2.43-1.4-19.58-10.32-22.22-11.61,6.77-18.94,8.88-40.12,5.49-58.46l-.13-1.01-.93-.4c-6.19-3.23-16.02-6.89-22.66-8.43l-1.03-.33-.77.68c-14.41,11.53-26.61,28.95-33.99,47.78-2.73-.63-21.83-5.19-24.64-5.75,1.57-20.22-1.82-41.28-9.82-58.05l-.44-.95-1.08-.24c-7.09-1.49-17.32-2.46-23.95-2.26l-1,.05-.67.75c-5.54,7.67-10.3,16.61-13.84,26.13s-5.47,19.2-6.67,29.02c-2.65.13-23.01,1.16-25.72,1.23-3.82-19.85-12.47-39.23-24.43-53.4l-.64-.79-1.07-.03c-6.77.4-16.99,2.12-23.8,4.14l-1.02.2-.93,2.51c-6.31,16.97-8,37.59-4.99,57.14-2.57.89-19.62,6.3-22.2,7.16-8.7-18.2-22.14-34.7-37.46-45.4l-.81-.5-.88.38c-6.66,1.96-16.21,6.21-22.15,9.92l-.86.53-.12.99c-2.03,18.42,1.68,39.42,9.69,58.02-2.18,1.48-19.26,12.17-21.62,13.64-13.03-15.32-30.17-27.87-47.81-34.15l-.9-.28-.87.57c-5.74,3.67-13.67,10.12-18.67,15.42l-.68.68.14,1.03c2.8,18.23,11.8,37.61,24.37,53.52-1.75,1.99-14.46,15.75-16.35,17.73-16.95-11.57-36.84-19.04-55.26-20.37l-.98-.1-.63.68c-4.62,4.91-10.56,13.14-14.1,19.69l-.46.91.39.99c7.49,16.97,21.23,33.31,37.54,45.13-1.33,2.43-10.37,19.52-11.61,21.87-19.05-6.67-40.36-8.92-58.53-5.52l-.99.16-.45.93c-1.59,3.12-3.35,7.06-4.87,11.16-1.51,4.06-2.75,8.17-3.58,11.54l-.26.96.66.73c11.54,14.41,28.95,26.69,47.86,34.05-.59,2.73-4.92,22.13-5.54,24.79-20.23-1.43-41.21,2.11-57.97,10.06l-.95.53-.22.87c-1.48,7.22-2.48,17.54-2.24,24.08l.06.98.75.61c15.04,11.06,35.03,18.26,55.22,20.55.08,2.68,1.16,21.69,1.25,24.4-19.78,3.68-39.16,12.42-53.36,24.38l-.73.7v.98c.26,6.87,2.09,17.13,4.08,23.86l.31.96.83.36c17.29,6.71,38.38,8.7,58.48,5.71.83,2.53,6.64,21.39,7.37,23.95-18.06,8.51-34.61,21.89-45.3,37.39l-.56.79.28.96c2.1,6.6,6.45,16.02,10.01,22.06l.5.92,1.02.04c18.43,2.07,39.28-1.6,57.96-9.66,1.49,2.39,11.89,19.03,13.44,21.42-15.09,13.13-27.31,29.95-33.67,47.05l-.71,1.92.62.96c3.63,5.74,10.15,13.53,15.3,18.61l.74.63,1.06-.11c18.35-2.82,37.66-11.82,53.61-24.54,1.93,1.78,15.51,14.23,17.51,16.04-5.64,8.17-10.43,16.98-13.84,26.14-3.58,9.62-5.82,19.48-6.51,28.85l-.12.97.82.7c4.84,4.6,13.15,10.56,19.54,14.18l.96.52.93-.52c17.14-7.54,33.43-21.29,45.04-37.46,2.49,1.42,19.93,10.86,22.4,12.09-6.71,19.14-8.79,40.38-5.38,58.44l.1.95.97.49c6.24,3.28,15.95,6.89,22.67,8.43l.97.23.76-.63c14.33-11.46,26.6-28.93,34.19-47.84,2.7.6,20.84,4.61,23.57,5.14-1.72,20.2,1.74,41.13,9.79,58.02l.45.87.87.23c7.28,1.48,17.49,2.52,24.15,2.32l.98-.1.61-.75c5.6-7.59,10.19-16.52,13.76-26.12,3.46-9.29,5.66-19.24,6.81-29.18,2.7-.02,22.1-1.03,24.84-1.22,3.81,19.91,12.52,39.34,24.44,53.48l.61.65h1.01c6.93-.24,17.24-1.97,23.97-4.11l.92-.16s.8-1.98,1.01-2.54c6.22-16.73,7.89-37.38,5.17-57.02,2.55-.84,20.36-6.43,22.91-7.29,8.93,18.24,22.36,34.72,37.61,45.36l.79.57.93-.38c6.65-2.13,16.22-6.43,22.1-9.96l.93-.6v-.93c2.06-18.39-1.56-39.33-9.6-57.97,2.28-1.46,18.86-11.95,21.14-13.47,13.27,15.41,30.51,27.81,47.92,33.86l.95.35.83-.48c6.08-3.73,13.91-10.21,18.71-15.52l.68-.64-.14-1.01c-2.72-17.89-11.59-37.27-23.98-53.47,1.8-1.97,14.4-15.63,16.25-17.59,16.58,11.53,36.42,19.11,54.99,20.46l.92.02.68-.69c4.65-5,10.55-13.21,14.12-19.61l.45-.91-.44-.98c-7.46-17.09-21.12-33.28-37.25-45.16,1.33-2.37,10.22-18.76,11.43-21.22,19.24,6.78,40.57,8.92,58.68,5.49l.93-.2.45-.98c1.61-2.98,3.31-7.04,4.82-11.09,1.52-4.07,2.84-8.14,3.58-11.49M444.01,1500.36c-144.23-53.66-217.95-214.74-164.25-359.06,53.68-144.29,214.76-218,358.99-164.33,144.31,53.69,217.99,214.74,164.3,359.03-53.7,144.32-214.73,218.06-359.04,164.36"/>
          <circle class="cls-35" cx="540.44" cy="1240.65" r="341.31"/>
          <path class="cls-73" d="M835.25,1333.21l.22-.84-.5-.59c-9.76-11.82-24.54-21.72-40.31-27.6.42-2.22,3.61-17.79,4.11-20,16.69.99,34.12-2.19,48-9.19l.71-.3.14-.86c1.22-5.93,1.81-14.57,1.53-20.03l-.08-.83-.7-.46c-12.58-8.86-29.35-14.59-46.07-16.06-.05-2.23-.95-17.93-1.09-20.14,16.4-3.54,32.37-11.09,43.91-21.29l.6-.47v-.89c-.35-5.58-2.02-14.09-3.74-19.7l-.24-.77-.84-.29c-14.27-5.33-31.87-6.52-48.68-3.83-.63-2.17-5.67-17.37-6.35-19.48,15-7.54,28.45-19.02,36.98-31.85l.48-.72-.33-.79c-1.78-5.48-5.48-13.28-8.59-18.18l-.45-.65-.85-.16c-15.38-1.34-32.68,2.12-47.91,9.11-1.28-1.94-9.97-15.47-11.22-17.48,12.31-10.79,22.19-24.79,27.19-39.14.14-.41.6-1.97.6-1.97l-.45-.67c-3.21-5-8.79-11.45-13.16-15.28l-.61-.49-.76.12c-15.15,2.62-30.9,10.37-43.77,21.05-1.77-1.51-14.19-12.7-15.82-14.2,4.58-6.95,8.5-14.38,11.24-22.22,2.75-7.89,4.52-15.99,4.8-23.78l.08-.8-.67-.57c-4.09-3.73-11.04-8.52-16.43-11.32l-.8-.43-.69.38c-14.04,6.52-27.33,18.14-36.99,31.83-2.05-1.12-16.43-8.22-18.64-9.25,5.29-15.84,6.68-33.45,3.54-48.62l-.12-.84-.78-.31c-5.19-2.58-13.41-5.44-18.95-6.61l-.86-.26-.63.58c-11.76,9.82-21.59,24.5-27.39,40.25-2.28-.47-18.21-3.93-20.55-4.35.95-16.81-2.23-34.24-9.15-48.02l-.38-.78-.9-.18c-5.91-1.12-14.42-1.74-19.92-1.46l-.83.06-.54.63c-4.47,6.46-8.27,13.96-11.04,21.93-2.68,7.69-4.21,16.03-5.04,24.2-2.2.16-19.08,1.36-21.33,1.46-3.51-16.41-11.03-32.35-21.2-43.91l-.54-.64h-.89c-5.62.44-14.07,2.05-19.69,3.84l-.84.18-.73,2.1c-4.95,14.2-5.99,31.34-3.16,47.52-2.12.78-16.18,5.57-18.31,6.33-7.54-14.96-18.98-28.42-31.88-37.04l-.68-.4-.73.33c-5.5,1.74-13.35,5.44-18.21,8.62l-.71.46-.08.82c-1.36,15.32,2.07,32.69,9.04,48-1.79,1.26-15.78,10.43-17.71,11.7-11.08-12.49-25.53-22.61-40.28-27.53l-.75-.22-.71.49c-4.7,3.15-11.17,8.64-15.23,13.12l-.55.57.14.86c2.64,15.08,10.44,31.02,21.16,44.01-1.42,1.68-11.73,13.33-13.27,15-14.27-9.31-30.91-15.17-46.23-15.96l-.82-.07-.51.58c-3.75,4.15-8.54,11.09-11.37,16.59l-.37.76.34.81c6.51,13.95,18.2,27.28,31.94,36.81-1.06,2.04-8.27,16.39-9.26,18.35-15.93-5.21-33.66-6.71-48.69-3.58l-.82.15-.35.78c-1.26,2.62-2.65,5.92-3.85,9.35-1.18,3.4-2.14,6.83-2.77,9.64l-.2.8.56.6c9.83,11.77,24.49,21.65,40.32,27.44-.44,2.28-3.7,18.46-4.17,20.67-16.82-.84-34.18,2.47-47.95,9.35l-.78.45-.17.73c-1.1,6.02-1.76,14.61-1.44,20.03l.07.81.64.49c12.68,8.92,29.39,14.55,46.2,16.1.12,2.23,1.34,17.98,1.46,20.23-16.36,3.39-32.3,10.98-43.87,21.16l-.59.59.02.81c.33,5.7,2.03,14.18,3.8,19.73l.27.79.7.28c14.47,5.27,32.01,6.56,48.64,3.73.73,2.09,5.88,17.64,6.53,19.75-14.85,7.38-28.35,18.77-36.96,31.82l-.45.66.25.79c1.85,5.44,5.63,13.19,8.69,18.14l.43.75h.84c15.33,1.41,32.58-1.99,47.95-9.01,1.28,1.96,10.2,15.59,11.53,17.55-12.3,11.16-22.15,25.34-27.14,39.63l-.56,1.61.53.79c3.12,4.7,8.66,11.06,13.02,15.19l.62.51.88-.11c15.18-2.65,31.06-10.46,44.08-21.3,1.63,1.45,13.12,11.55,14.81,13.02-4.54,6.88-8.36,14.27-11.03,21.94-2.8,8.05-4.49,16.27-4.91,24.06l-.09.81.69.56c4.09,3.74,11.1,8.54,16.46,11.44l.81.42.77-.45c14.09-6.56,27.38-18.25,36.74-31.87,2.09,1.13,16.73,8.67,18.81,9.65-5.24,16-6.6,33.67-3.45,48.6l.1.79.82.39c5.23,2.61,13.36,5.44,18.96,6.61l.81.18.62-.54c11.7-9.76,21.58-24.48,27.56-40.31,2.26.45,17.38,3.47,19.65,3.86-1.08,16.8,2.16,34.11,9.13,48l.39.72.72.18c6.07,1.1,14.56,1.79,20.09,1.51l.81-.1.49-.64c4.52-6.4,8.18-13.89,10.98-21.92,2.71-7.77,4.37-16.07,5.15-24.34,2.24-.06,18.33-1.23,20.6-1.44,3.5,16.46,11.07,32.44,21.21,43.97l.52.53.84-.02c5.75-.32,14.28-1.93,19.82-3.82l.76-.15s.63-1.66.79-2.13c4.88-13.99,5.9-31.17,3.31-47.42,2.1-.74,16.79-5.69,18.89-6.45,7.72,14.99,19.16,28.43,32,37l.67.46.77-.33c5.48-1.88,13.35-5.62,18.17-8.65l.76-.51-.02-.77c1.4-15.3-1.97-32.63-8.96-47.96,1.87-1.26,15.45-10.25,17.32-11.54,11.28,12.56,25.81,22.56,40.36,27.28l.79.28.68-.41c4.98-3.21,11.37-8.72,15.26-13.2l.55-.54-.13-.83c-2.57-14.81-10.26-30.74-20.83-43.97,1.46-1.67,11.69-13.23,13.18-14.88,13.96,9.29,30.57,15.23,46,16.03h.77s.56-.59.56-.59c3.77-4.23,8.53-11.15,11.38-16.52l.36-.77-.38-.81c-6.48-14.06-18.11-27.26-31.7-36.85,1.07-1.99,8.16-15.75,9.12-17.81,16.09,5.3,33.83,6.7,48.81,3.55l.77-.18.36-.82c1.29-2.5,2.63-5.9,3.81-9.29,1.19-3.41,2.22-6.81,2.78-9.6M464.91,1457.89c-120.66-42.06-184.63-174.5-142.55-295.23,42.07-120.7,174.51-184.67,295.17-142.62,120.72,42.08,184.67,174.5,142.59,295.2-42.08,120.73-174.49,184.72-295.21,142.64"/>
          <circle class="cls-36" cx="540.48" cy="1240.64" r="275.71"/>
          <circle class="cls-11" cx="540.48" cy="1240.64" r="222.8"/>
          <path class="cls-24" d="M714.25,1275.05l.07-.49-.32-.3c-6.3-6.13-15.34-10.85-24.69-13.22.1-1.29.95-10.37,1.1-11.66,9.57-.48,19.31-3.37,26.78-8.23l.38-.22.02-.5c.32-3.45.13-8.41-.37-11.51l-.1-.47-.43-.22c-7.72-4.27-17.64-6.49-27.25-6.28-.17-1.27-1.66-10.16-1.88-11.41,9.13-3.04,17.76-8.34,23.7-14.87l.31-.31-.06-.51c-.54-3.16-2.02-7.9-3.35-11l-.18-.42-.5-.11c-8.47-2.15-18.57-1.73-27.98.85-.5-1.2-4.31-9.55-4.83-10.71,8.08-5.23,15.03-12.61,19.09-20.46l.23-.44-.24-.43c-1.35-3.01-3.95-7.23-6.03-9.83l-.29-.34-.5-.04c-8.85.19-18.49,3.24-26.74,8.17-.85-1.03-6.65-8.2-7.48-9.26,6.34-6.92,11.1-15.51,13.06-24,.06-.24.22-1.16.22-1.16l-.3-.36c-2.14-2.65-5.72-5.98-8.45-7.89l-.38-.24-.42.12c-8.47,2.44-16.97,7.84-23.64,14.72-1.1-.75-8.88-6.35-9.9-7.11,2.18-4.25,3.95-8.72,5.02-13.36,1.08-4.67,1.58-9.4,1.25-13.85v-.46s-.42-.28-.42-.28c-2.56-1.87-6.82-4.17-10.07-5.43l-.48-.2-.37.26c-7.6,4.59-14.45,12.04-19.1,20.44-1.24-.51-9.88-3.66-11.2-4.11,2.03-9.36,1.72-19.48-1.01-27.93l-.12-.47-.46-.13c-3.12-1.15-7.98-2.27-11.21-2.59l-.51-.09-.32.37c-6.09,6.33-10.78,15.31-13.11,24.65-1.33-.13-10.62-1.11-11.98-1.2-.51-9.64-3.4-19.38-8.21-26.8l-.26-.42-.52-.05c-3.44-.27-8.33-.1-11.44.41l-.47.09-.27.39c-2.14,3.96-3.84,8.47-4.93,13.18s-1.4,9.4-1.37,14.11c-1.24.23-10.79,1.96-12.07,2.16-3.02-9.13-8.3-17.75-14.82-23.71l-.35-.33-.51.05c-3.17.6-7.89,2.05-10.98,3.42l-.47.16-.29,1.24c-1.94,8.4-1.46,18.24,1.16,27.28-1.16.58-8.87,4.18-10.04,4.75-5.23-8.05-12.58-15.02-20.48-19.13l-.41-.19-.39.23c-3.02,1.33-7.27,3.93-9.84,6.05l-.38.3v.47c.18,8.82,3.22,18.5,8.15,26.79-.94.83-8.34,6.93-9.37,7.77-7.09-6.43-15.96-11.3-24.67-13.18l-.44-.08-.37.32c-2.48,2.09-5.83,5.62-7.87,8.43l-.28.36.13.48c2.44,8.43,7.88,17.03,14.8,23.76-.7,1.05-5.86,8.33-6.63,9.37-8.71-4.42-18.56-6.72-27.34-6.22h-.47s-.26.37-.26.37c-1.88,2.6-4.18,6.85-5.45,10.16l-.16.46.24.44c4.58,7.55,12.07,14.42,20.5,18.99-.48,1.23-3.69,9.85-4.13,11.04-9.4-1.98-19.6-1.73-27.97.99l-.46.14-.15.47c-.56,1.57-1.14,3.54-1.61,5.57-.46,2.01-.8,4.02-.98,5.67l-.06.47.36.31c6.34,6.09,15.31,10.82,24.69,13.13-.11,1.33-.96,10.75-1.09,12.04-9.64.57-19.32,3.53-26.75,8.31l-.42.31-.05.43c-.25,3.5-.09,8.43.43,11.51l.09.46.39.24c7.78,4.3,17.66,6.47,27.33,6.3.2,1.26,1.88,10.17,2.09,11.44-9.11,2.95-17.72,8.27-23.69,14.79l-.3.37.06.46c.55,3.23,2.04,7.96,3.4,11.01l.21.43.42.12c8.57,2.1,18.65,1.75,27.96-.9.55,1.15,4.45,9.69,4.95,10.85-8,5.13-14.99,12.46-19.08,20.44l-.21.41.19.44c1.4,2.99,4.03,7.17,6.08,9.8l.29.4.48-.04c8.83-.16,18.44-3.17,26.77-8.13.85,1.04,6.78,8.25,7.66,9.28-6.32,7.13-11.05,15.82-13,24.28l-.22.95.35.42c2.07,2.49,5.62,5.76,8.37,7.85l.39.25.49-.12c8.49-2.46,17.05-7.9,23.8-14.88,1.02.72,8.2,5.76,9.25,6.5-2.16,4.2-3.88,8.65-4.92,13.19-1.1,4.76-1.55,9.55-1.3,14.02v.47s.43.28.43.28c2.57,1.88,6.86,4.18,10.1,5.49l.49.19.41-.3c7.63-4.61,14.47-12.11,18.96-20.45,1.26.52,10.08,3.9,11.32,4.33-1.99,9.45-1.66,19.6,1.06,27.92l.1.44.49.17c3.15,1.16,7.95,2.27,11.22,2.59l.47.05.32-.35c6.06-6.29,10.78-15.29,13.2-24.69,1.31.12,10.12.89,11.44.97.43,9.64,3.35,19.31,8.19,26.79l.27.38.42.06c3.53.25,8.41.11,11.54-.39l.46-.11.24-.39c2.18-3.93,3.8-8.43,4.89-13.18,1.06-4.6,1.49-9.43,1.42-14.19,1.27-.17,10.37-1.85,11.65-2.1,3.02,9.16,8.33,17.8,14.83,23.74l.33.27.47-.06c3.26-.54,8.02-1.99,11.06-3.41l.42-.13s.26-.98.32-1.26c1.91-8.28,1.42-18.13-1.07-27.23,1.15-.55,9.21-4.29,10.37-4.85,5.34,8.06,12.69,15.01,20.54,19.1l.41.22.42-.24c3.01-1.41,7.26-4.04,9.82-6.06l.4-.34-.06-.44c-.16-8.81-3.15-18.47-8.09-26.78.99-.83,8.17-6.8,9.15-7.66,7.21,6.46,16.11,11.25,24.7,13.03l.47.11.36-.28c2.64-2.14,5.94-5.68,7.88-8.48l.28-.34-.13-.47c-2.38-8.28-7.76-16.88-14.61-23.77.73-1.04,5.84-8.27,6.59-9.3,8.53,4.43,18.37,6.78,27.22,6.27l.44-.05.28-.37c1.89-2.64,4.17-6.88,5.46-10.13l.16-.46-.27-.44c-4.57-7.61-12.02-14.41-20.36-19.03.48-1.2,3.67-9.48,4.09-10.72,9.5,2.02,19.7,1.72,28.04-1.02l.43-.15.15-.49c.58-1.51,1.13-3.53,1.59-5.53.46-2.02.84-4.02.98-5.64M510.94,1369.17c-71.39-16.46-116.1-87.96-99.63-159.39,16.46-71.41,87.97-116.12,159.35-99.66,71.42,16.47,116.11,87.96,99.65,159.37-16.47,71.43-87.95,116.14-159.37,99.68"/>
          <circle class="cls-15" cx="540.48" cy="1240.64" r="137.28"/>
        </g>
      </g>
      <text class="cls-49" transform="translate(346.5 1165.89) rotate(-20.13)"><tspan x="0" y="0">C</tspan></text>
      <text class="cls-49" transform="translate(395.8 1148.04) rotate(6.24)"><tspan x="0" y="0">H</tspan></text>
      <text class="cls-49" transform="translate(444.38 1158.69) rotate(25.5)"><tspan x="0" y="0">E</tspan></text>
      <text class="cls-49" transform="translate(487 1179.59) rotate(21.28)"><tspan x="0" y="0">N</tspan></text>
      <text class="cls-49" transform="translate(542.95 1198.5) rotate(7.22)"><tspan x="0" y="0">N</tspan></text>
      <text class="cls-49" transform="translate(607.25 1203.13) rotate(-19.34)"><tspan x="0" y="0">A</tspan></text>
      <text class="cls-49" transform="translate(661.33 1177.72) rotate(-36.21)"><tspan x="0" y="0">I</tspan></text>
      <g>
        <rect class="cls-3" x="648.69" y="760.19" width="67.62" height="314.8"/>
        <g>
          <rect class="cls-46" x="645.49" y="757.49" width="74.01" height="6.4"/>
          <polygon class="cls-63" points="700.08 757.49 717.61 757.49 693.97 699.72 671.02 699.72 647.38 757.49 663.41 757.49 700.08 757.49"/>
          <rect class="cls-19" x="645.49" y="759.67" width="74.01" height="2.11"/>
          <g>
            <polyline class="cls-6" points="699.96 759.67 719.51 759.67 719.51 763.89 700.09 763.89"/>
            <polyline class="cls-6" points="662.98 763.89 645.49 763.89 645.49 759.67 662.98 759.67"/>
          </g>
          <polygon class="cls-6" points="651.91 754.4 673.03 702.8 691.97 702.8 713.09 754.4 651.91 754.4"/>
          <polygon class="cls-55" points="665.61 787.88 699.38 787.88 699.38 767.76 699.38 763.89 699.38 751.51 692.99 751.51 688.39 741.48 682.5 728.6 676.6 741.48 672.01 751.51 665.61 751.51 665.61 763.89 665.61 767.76 665.61 787.88"/>
          <rect class="cls-64" x="665.47" y="783.09" width="33.92" height="4.78"/>
          <polygon class="cls-58" points="693.97 699.72 671.02 699.72 667.83 707.52 697.17 707.52 693.97 699.72"/>
          <rect class="cls-65" x="656.79" y="834.24" width="51.41" height="13.75"/>
          <path class="cls-45" d="M664.02,832.62v-27.18c0-4.2,3.34-7.62,7.44-7.62s7.44,3.42,7.44,7.62v27.18h-14.89Z"/>
          <path class="cls-28" d="M686.09,832.62v-27.18c0-4.2,3.34-7.62,7.44-7.62s7.44,3.42,7.44,7.62v27.18h-14.89Z"/>
          <polyline class="cls-6" points="663.41 757.49 647.38 757.49 671.02 699.72 693.97 699.72 717.61 757.49 700.08 757.49"/>
          <polyline class="cls-6" points="694.99 682.09 694.99 696.19 670.01 696.19 670.01 682.09"/>
          <g>
            <line class="cls-4" x1="672.67" y1="690.72" x2="672.67" y2="694.69"/>
            <line class="cls-4" x1="675.95" y1="690.72" x2="675.95" y2="694.69"/>
            <line class="cls-4" x1="679.22" y1="690.72" x2="679.22" y2="694.69"/>
            <line class="cls-4" x1="682.5" y1="661.96" x2="682.5" y2="694.69"/>
            <line class="cls-4" x1="685.77" y1="690.72" x2="685.77" y2="694.69"/>
            <line class="cls-4" x1="689.05" y1="690.72" x2="689.05" y2="694.69"/>
            <line class="cls-4" x1="692.33" y1="690.72" x2="692.33" y2="694.69"/>
          </g>
          <polyline class="cls-6" points="649.1 938.81 649.1 1074.28 715.89 1074.28 715.89 938.69"/>
          <polyline class="cls-6" points="715.89 928.76 715.89 765.74 699.38 765.74 699.38 751.51 692.99 751.51 688.39 741.48 682.5 728.6 676.6 741.48 672.01 751.51 665.61 751.51 665.61 765.74 649.1 765.74 649.1 929.17"/>
          <path class="cls-6" d="M664.02,832.62v-27.18c0-4.2,3.34-7.62,7.44-7.62s7.44,3.42,7.44,7.62v27.18h-14.89Z"/>
          <g>
            <path class="cls-6" d="M682.5,805.44c0-6.23-4.94-11.29-11.03-11.29h0c-6.09,0-11.03,5.05-11.03,11.29"/>
            <path class="cls-6" d="M704.56,805.44c0-6.23-4.94-11.29-11.03-11.29h0c-6.09,0-11.03,5.05-11.03,11.29"/>
          </g>
          <path class="cls-5" d="M686.09,832.62v-27.18c0-4.2,3.34-7.62,7.44-7.62s7.44,3.42,7.44,7.62v27.18h-14.89Z"/>
          <rect class="cls-6" x="656.79" y="834.24" width="51.41" height="13.75"/>
          <ellipse class="cls-19" cx="682.5" cy="769.68" rx="10.7" ry="10.94"/>
          <path class="cls-74" d="M662.21,931.62v-50.84c0-4.61,3.67-8.36,8.17-8.36s8.17,3.75,8.17,8.36v50.84h-16.35Z"/>
          <path class="cls-22" d="M686.44,931.62v-50.84c0-4.61,3.67-8.36,8.17-8.36s8.17,3.75,8.17,8.36v50.84h-16.35Z"/>
          <path class="cls-6" d="M682.5,880.78c0-6.85-5.42-12.39-12.11-12.39h0c-6.69,0-12.11,5.55-12.11,12.39"/>
          <path class="cls-6" d="M662.21,931.62v-50.84c0-4.61,3.67-8.36,8.17-8.36s8.17,3.75,8.17,8.36v50.84h-16.35Z"/>
          <path class="cls-6" d="M706.72,880.78c0-6.85-5.42-12.39-12.11-12.39h0c-6.69,0-12.11,5.55-12.11,12.39"/>
          <path class="cls-69" d="M686.44,931.62v-50.84c0-4.61,3.67-8.36,8.17-8.36s8.17,3.75,8.17,8.36v50.84h-16.35Z"/>
          <g class="cls-66">
            <rect class="cls-67" x="648.24" y="931.72" width="68.51" height="4.64"/>
            <rect class="cls-6" x="648.24" y="931.72" width="68.51" height="4.64"/>
          </g>
          <g>
            <ellipse class="cls-6" cx="682.5" cy="769.68" rx="10.7" ry="10.94"/>
            <polyline class="cls-6" points="682.5 761.36 682.5 769.68 687.07 773.83"/>
            <line class="cls-6" x1="675.41" y1="762.43" x2="675.99" y2="763.03"/>
            <line class="cls-6" x1="675.41" y1="776.94" x2="675.99" y2="776.34"/>
            <line class="cls-6" x1="689.59" y1="776.94" x2="689.01" y2="776.34"/>
            <line class="cls-6" x1="689.59" y1="762.43" x2="689.01" y2="763.03"/>
          </g>
          <g class="cls-79">
            <rect class="cls-8" x="649.1" y="763.89" width="16.74" height="11.85"/>
          </g>
          <g class="cls-79">
            <rect class="cls-8" x="699.16" y="763.89" width="16.74" height="11.85"/>
          </g>
          <g class="cls-79">
            <rect class="cls-8" x="649.1" y="763.89" width="16.74" height="5.79"/>
          </g>
          <g class="cls-79">
            <rect class="cls-8" x="699.16" y="763.89" width="16.74" height="5.79"/>
          </g>
          <g class="cls-79">
            <rect class="cls-8" x="656.79" y="847.99" width="51.41" height="4.92"/>
          </g>
          <g class="cls-79">
            <rect class="cls-8" x="656.79" y="834.24" width="51.41" height="4.92"/>
          </g>
          <g class="cls-79">
            <rect class="cls-8" x="649.1" y="937.21" width="66.79" height="9.21"/>
          </g>
          <g class="cls-79">
            <rect class="cls-8" x="649.1" y="937.21" width="66.79" height="3.8"/>
          </g>
          <g class="cls-79">
            <polygon class="cls-8" points="700.3 775.74 700.3 787.88 665.61 787.88 665.61 792.24 700.3 792.24 703.43 792.24 704.56 792.24 704.56 775.74 700.3 775.74"/>
          </g>
          <path class="cls-38" d="M703.83,1074.99v-109.11c0-12.04-9.57-21.83-21.33-21.83s-21.33,9.79-21.33,21.83v109.11h42.66Z"/>
          <path class="cls-63" d="M682.5,940.86h0c-13.5,0-24.45,11.2-24.45,25.02v109.11h3.12v-109.11c0-12.04,9.57-21.83,21.33-21.83s21.33,9.79,21.33,21.83v109.11h3.12v-109.11c0-13.82-10.95-25.02-24.45-25.02Z"/>
          <path class="cls-6" d="M664.99,939.78h35.02c3.83,0,6.94,3.11,6.94,6.94v127.19h-48.89v-127.19c0-3.83,3.11-6.94,6.94-6.94Z"/>
          <path class="cls-6" d="M661.17,1073.91v-109.11c0-12.04,9.57-21.83,21.33-21.83s21.33,9.79,21.33,21.83v109.11"/>
          <g>
            <g>
              <path class="cls-6" d="M657.45,775.7c0-2.07-1.64-3.74-3.66-3.74h0c-2.02,0-3.66,1.68-3.66,3.74"/>
              <path class="cls-6" d="M664.77,775.7c0-2.07-1.64-3.74-3.66-3.74h0c-2.02,0-3.66,1.68-3.66,3.74"/>
            </g>
            <g>
              <path class="cls-6" d="M707.54,775.7c0-2.07-1.64-3.74-3.66-3.74h0c-2.02,0-3.66,1.68-3.66,3.74"/>
              <path class="cls-6" d="M714.86,775.7c0-2.07-1.64-3.74-3.66-3.74h0c-2.02,0-3.66,1.68-3.66,3.74"/>
            </g>
          </g>
          <polyline class="cls-6" points="699.53 767.76 699.53 787.88 665.47 787.88 665.47 767.76"/>
        </g>
      </g>
      <g class="cls-40">
        <path class="cls-31" d="M521.34,1090.73c-4.69-1.69-28.71-11.94-45.98-49.86-17.74-38.94-36.18-72.9-38.92-77.91-.23-.42-.35-.89-.35-1.37v-1.64c0-1.27.82-2.39,2.04-2.75,9.88-2.97,52.27-20.11,52.27-95.42s-56.38-99.83-67.16-103.47c-1.1-.37-2.23-.55-3.39-.55l-141.26.83v13.65h5.57v290.5h-5.19v12.22h85.68v-12.22h-5.29v-92.75h8.16c3.03,0,5.81,1.68,7.21,4.37l52.17,100.08s22.56,20.33,47.63,20.33h46.39c.69,0,1.24-.56,1.24-1.24v-1.62c0-.52-.32-.99-.81-1.16ZM428.29,887.09c0,13.4-10.86,24.27-24.27,24.27h-42.97c-2.09,0-3.79-1.7-3.79-3.79v-79.59c0-2.09,1.7-3.79,3.79-3.79h42.97c13.4,0,24.27,10.86,24.27,24.27v38.65Z"/>
        <g>
          <path class="cls-27" d="M534.78,1025.55l.09-.63-.41-.39c-8.11-7.89-19.75-13.97-31.79-17.02.13-1.66,1.22-13.34,1.41-15,12.32-.61,24.86-4.34,34.48-10.59l.49-.28.03-.64c.42-4.45.16-10.83-.48-14.82l-.13-.6-.55-.28c-9.94-5.49-22.7-8.35-35.08-8.09-.22-1.64-2.13-13.08-2.42-14.69,11.75-3.91,22.86-10.73,30.51-19.13l.4-.4-.08-.66c-.7-4.07-2.6-10.17-4.32-14.15l-.24-.54-.64-.15c-10.9-2.76-23.91-2.23-36.02,1.09-.64-1.54-5.55-12.29-6.22-13.78,10.4-6.73,19.35-16.23,24.58-26.33l.29-.57-.3-.55c-1.74-3.88-5.09-9.31-7.76-12.65l-.38-.44-.64-.05c-11.39.25-23.8,4.17-34.42,10.52-1.1-1.32-8.55-10.55-9.63-11.93,8.17-8.9,14.29-19.97,16.81-30.89.07-.31.28-1.49.28-1.49l-.38-.46c-2.75-3.41-7.37-7.69-10.88-10.15l-.48-.31-.55.15c-10.9,3.14-21.84,10.09-30.43,18.95-1.42-.97-11.43-8.18-12.75-9.15,2.8-5.47,5.09-11.23,6.46-17.2,1.39-6.01,2.03-12.1,1.61-17.83v-.59s-.54-.36-.54-.36c-3.3-2.41-8.78-5.37-12.96-6.99l-.62-.25-.48.33c-9.78,5.91-18.6,15.5-24.59,26.31-1.59-.66-12.72-4.72-14.42-5.3,2.61-12.04,2.22-25.08-1.3-35.96l-.16-.61-.6-.17c-4.02-1.47-10.28-2.92-14.44-3.33l-.65-.12-.41.48c-7.84,8.15-13.88,19.7-16.87,31.72-1.71-.16-13.67-1.43-15.43-1.54-.65-12.41-4.38-24.94-10.56-34.49l-.34-.55-.68-.06c-4.42-.35-10.72-.12-14.73.52l-.6.11-.35.51c-2.76,5.1-4.94,10.91-6.34,16.97-1.35,5.86-1.8,12.1-1.76,18.16-1.6.29-13.89,2.53-15.53,2.78-3.89-11.76-10.68-22.85-19.07-30.51l-.45-.43-.65.06c-4.08.78-10.16,2.64-14.14,4.4l-.6.2-.37,1.6c-2.49,10.81-1.89,23.47,1.49,35.11-1.49.75-11.42,5.38-12.92,6.11-6.73-10.37-16.2-19.33-26.36-24.62l-.53-.24-.51.3c-3.89,1.72-9.36,5.06-12.67,7.78l-.48.39v.61c.24,11.35,4.15,23.82,10.49,34.49-1.21,1.07-10.74,8.92-12.06,10-9.13-8.28-20.54-14.54-31.75-16.97l-.57-.1-.48.42c-3.2,2.69-7.51,7.23-10.12,10.85l-.36.47.17.62c3.14,10.85,10.15,21.92,19.05,30.59-.9,1.35-7.54,10.72-8.53,12.07-11.22-5.69-23.89-8.65-35.19-8l-.6.02-.33.46c-2.42,3.35-5.38,8.82-7.01,13.08l-.21.59.31.57c5.89,9.72,15.54,18.56,26.38,24.45-.62,1.58-4.75,12.68-5.32,14.21-12.1-2.55-25.23-2.22-36.01,1.28l-.59.18-.2.6c-.72,2.02-1.47,4.56-2.07,7.17-.6,2.59-1.02,5.18-1.26,7.3l-.08.6.46.39c8.16,7.84,19.71,13.92,31.78,16.9-.14,1.71-1.23,13.84-1.4,15.5-12.41.73-24.88,4.55-34.43,10.7l-.54.4-.07.55c-.33,4.5-.12,10.86.55,14.81l.12.59.51.31c10.02,5.53,22.73,8.32,35.18,8.11.26,1.62,2.42,13.09,2.69,14.73-11.73,3.8-22.81,10.65-30.49,19.04l-.39.48.08.6c.7,4.16,2.62,10.24,4.37,14.17l.26.56.54.15c11.04,2.71,24.01,2.25,35.99-1.16.7,1.47,5.73,12.47,6.37,13.97-10.3,6.6-19.29,16.04-24.56,26.31l-.28.52.25.56c1.8,3.84,5.19,9.23,7.83,12.61l.38.52.62-.06c11.36-.2,23.74-4.08,34.45-10.46,1.09,1.33,8.73,10.62,9.86,11.95-8.13,9.17-14.22,20.36-16.73,31.25l-.28,1.22.45.53c2.66,3.2,7.24,7.42,10.77,10.1l.5.32.63-.15c10.92-3.16,21.95-10.17,30.63-19.16,1.31.93,10.55,7.42,11.91,8.36-2.78,5.41-4.99,11.14-6.34,16.98-1.41,6.13-1.99,12.3-1.67,18.05v.6s.56.36.56.36c3.3,2.41,8.83,5.38,12.99,7.07l.63.24.53-.39c9.82-5.94,18.63-15.58,24.4-26.33,1.63.66,12.97,5.02,14.57,5.57-2.56,12.16-2.14,25.23,1.36,35.94l.13.57.63.22c4.05,1.5,10.24,2.92,14.44,3.33l.61.07.41-.45c7.8-8.1,13.87-19.69,16.99-31.78,1.69.15,13.03,1.15,14.73,1.25.55,12.41,4.32,24.85,10.54,34.48l.35.49.55.07c4.54.32,10.83.15,14.86-.5l.59-.14.31-.51c2.8-5.06,4.89-10.85,6.3-16.96,1.36-5.92,1.92-12.14,1.83-18.27,1.64-.22,13.35-2.37,15-2.71,3.89,11.8,10.72,22.91,19.08,30.56l.42.35.61-.08c4.19-.69,10.32-2.56,14.24-4.39l.54-.17s.33-1.27.41-1.62c2.46-10.66,1.83-23.34-1.37-35.06,1.48-.71,11.86-5.52,13.35-6.24,6.87,10.38,16.33,19.32,26.44,24.58l.53.28.54-.31c3.87-1.82,9.35-5.19,12.64-7.8l.52-.44-.08-.57c-.2-11.34-4.06-23.78-10.42-34.47,1.27-1.07,10.52-8.76,11.78-9.86,9.29,8.31,20.74,14.48,31.8,16.78l.6.14.47-.36c3.4-2.75,7.64-7.31,10.14-10.91l.36-.44-.17-.6c-3.07-10.66-9.99-21.73-18.8-30.59.94-1.34,7.51-10.64,8.48-11.97,10.99,5.7,23.65,8.73,35.03,8.08l.56-.06.36-.47c2.43-3.4,5.36-8.86,7.03-13.03l.2-.59-.34-.56c-5.88-9.8-15.47-18.55-26.21-24.49.62-1.55,4.73-12.21,5.26-13.8,12.23,2.6,25.36,2.21,36.09-1.31l.55-.19.2-.63c.74-1.94,1.45-4.54,2.05-7.12s1.08-5.17,1.27-7.26M273.07,1146.7c-91.89-21.19-149.44-113.22-128.24-205.17,21.19-91.92,113.23-149.47,205.12-128.28,91.94,21.2,149.46,113.22,128.27,205.15-21.2,91.95-113.21,149.5-205.15,128.31"/>
          <circle class="cls-60" cx="311.1" cy="981.25" r="206.43"/>
          <path class="cls-17" d="M492.65,1017.21l.08-.51-.34-.32c-6.58-6.41-16.03-11.34-25.8-13.81.11-1.35.99-10.83,1.15-12.18,10-.5,20.18-3.52,27.98-8.59l.4-.23.02-.52c.34-3.61.13-8.79-.39-12.03l-.1-.49-.45-.23c-8.07-4.46-18.43-6.78-28.48-6.57-.17-1.33-1.73-10.62-1.96-11.92,9.54-3.18,18.55-8.71,24.76-15.53l.33-.32-.06-.53c-.57-3.3-2.11-8.26-3.5-11.49l-.19-.44-.52-.12c-8.85-2.24-19.4-1.81-29.24.88-.52-1.25-4.51-9.98-5.05-11.19,8.44-5.46,15.7-13.18,19.95-21.37l.24-.46-.25-.45c-1.42-3.15-4.13-7.55-6.3-10.27l-.31-.36-.52-.04c-9.25.2-19.32,3.39-27.94,8.54-.89-1.07-6.94-8.56-7.82-9.68,6.63-7.23,11.6-16.21,13.65-25.08.06-.25.23-1.21.23-1.21l-.31-.37c-2.24-2.77-5.98-6.24-8.83-8.24l-.39-.25-.44.12c-8.85,2.55-17.73,8.19-24.7,15.38-1.15-.78-9.28-6.64-10.35-7.42,2.27-4.44,4.13-9.11,5.25-13.96,1.12-4.88,1.65-9.82,1.31-14.47v-.48s-.44-.29-.44-.29c-2.68-1.96-7.13-4.36-10.52-5.67l-.51-.21-.39.27c-7.94,4.8-15.1,12.58-19.96,21.36-1.29-.53-10.32-3.83-11.7-4.3,2.12-9.78,1.8-20.36-1.05-29.19l-.13-.49-.49-.14c-3.26-1.2-8.34-2.37-11.72-2.7l-.53-.1-.34.39c-6.37,6.61-11.26,15.99-13.69,25.75-1.39-.13-11.1-1.16-12.52-1.25-.53-10.07-3.55-20.24-8.57-28l-.28-.44-.55-.05c-3.59-.28-8.7-.1-11.96.42l-.49.09-.28.41c-2.24,4.14-4.01,8.85-5.15,13.77-1.1,4.76-1.46,9.82-1.43,14.74-1.3.24-11.27,2.05-12.61,2.26-3.16-9.54-8.67-18.55-15.48-24.77l-.36-.35-.53.05c-3.31.63-8.24,2.14-11.47,3.57l-.49.16-.3,1.3c-2.02,8.78-1.53,19.05,1.21,28.5-1.21.61-9.27,4.37-10.49,4.96-5.46-8.42-13.15-15.69-21.39-19.98l-.43-.2-.41.24c-3.16,1.39-7.6,4.11-10.28,6.32l-.39.32v.49c.19,9.21,3.37,19.33,8.51,27.99-.98.87-8.72,7.24-9.79,8.12-7.41-6.72-16.67-11.81-25.77-13.77l-.46-.08-.39.34c-2.6,2.18-6.09,5.87-8.22,8.8l-.29.38.14.5c2.55,8.81,8.24,17.79,15.46,24.83-.73,1.09-6.12,8.7-6.92,9.79-9.1-4.62-19.39-7.02-28.56-6.5h-.49s-.27.39-.27.39c-1.96,2.72-4.36,7.16-5.69,10.62l-.17.48.25.46c4.78,7.89,12.61,15.06,21.42,19.84-.5,1.29-3.86,10.3-4.32,11.53-9.82-2.07-20.48-1.81-29.22,1.04l-.48.14-.16.49c-.58,1.64-1.2,3.7-1.68,5.82-.48,2.1-.83,4.2-1.02,5.92l-.06.49.37.32c6.62,6.37,15.99,11.3,25.79,13.72-.12,1.39-1,11.23-1.14,12.58-10.07.59-20.19,3.69-27.95,8.69l-.43.32-.05.44c-.27,3.66-.1,8.81.45,12.02l.09.48.41.25c8.13,4.49,18.45,6.76,28.56,6.58.21,1.32,1.97,10.62,2.19,11.95-9.52,3.08-18.52,8.64-24.75,15.46l-.31.39.06.48c.57,3.37,2.13,8.31,3.55,11.5l.21.45.43.12c8.96,2.2,19.49,1.82,29.21-.94.57,1.2,4.65,10.12,5.17,11.34-8.36,5.36-15.66,13.02-19.94,21.35l-.22.42.2.46c1.46,3.12,4.21,7.49,6.35,10.24l.31.42.5-.05c9.22-.17,19.27-3.32,27.97-8.49.89,1.08,7.09,8.62,8,9.7-6.6,7.44-11.54,16.53-13.58,25.37l-.23.99.37.43c2.16,2.6,5.88,6.02,8.74,8.2l.4.26.52-.12c8.87-2.57,17.81-8.25,24.86-15.55,1.06.76,8.56,6.02,9.67,6.79-2.26,4.39-4.05,9.04-5.14,13.78-1.15,4.97-1.62,9.98-1.36,14.65v.49s.45.29.45.29c2.68,1.96,7.17,4.36,10.55,5.74l.51.2.43-.32c7.97-4.82,15.12-12.65,19.8-21.37,1.32.54,10.53,4.08,11.83,4.52-2.08,9.87-1.74,20.48,1.1,29.17l.11.46.51.18c3.29,1.21,8.31,2.37,11.72,2.7l.49.05.34-.36c6.33-6.57,11.26-15.98,13.79-25.79,1.37.12,10.57.93,11.95,1.02.45,10.07,3.5,20.17,8.56,27.99l.28.4.44.06c3.69.26,8.79.12,12.06-.41l.48-.11.25-.41c2.28-4.11,3.97-8.8,5.11-13.77,1.11-4.8,1.56-9.85,1.48-14.83,1.33-.18,10.84-1.93,12.17-2.2,3.16,9.57,8.7,18.6,15.49,24.81l.34.28.5-.07c3.4-.56,8.38-2.08,11.56-3.57l.44-.14s.27-1.03.33-1.32c1.99-8.65,1.49-18.94-1.11-28.45,1.2-.58,9.63-4.48,10.83-5.07,5.57,8.42,13.26,15.69,21.46,19.95l.43.23.44-.25c3.14-1.48,7.59-4.22,10.26-6.33l.42-.35-.06-.46c-.16-9.2-3.3-19.3-8.46-27.98,1.03-.87,8.54-7.11,9.56-8,7.54,6.75,16.83,11.75,25.81,13.62l.49.11.38-.29c2.76-2.23,6.2-5.93,8.23-8.85l.29-.36-.13-.49c-2.49-8.65-8.11-17.64-15.26-24.83.76-1.09,6.1-8.64,6.88-9.72,8.92,4.62,19.19,7.08,28.44,6.56l.46-.05.29-.38c1.97-2.76,4.35-7.19,5.7-10.58l.16-.48-.28-.46c-4.78-7.95-12.56-15.05-21.28-19.88.51-1.25,3.84-9.91,4.27-11.2,9.92,2.11,20.58,1.79,29.3-1.06l.45-.16.16-.51c.6-1.57,1.18-3.68,1.66-5.78.49-2.11.88-4.2,1.03-5.9M280.23,1115.54c-74.58-17.2-121.3-91.9-104.09-166.53,17.2-74.61,91.91-121.32,166.49-104.12,74.62,17.21,121.31,91.9,104.11,166.51-17.21,74.63-91.89,121.35-166.51,104.14"/>
          <circle class="cls-34" cx="311.1" cy="981.25" r="169.76"/>
          <circle class="cls-20" cx="311.1" cy="981.25" r="146.83"/>
          <path class="cls-14" d="M439.8,1006.74l.05-.36-.24-.23c-4.67-4.54-11.36-8.04-18.29-9.79.08-.95.7-7.68.81-8.63,7.09-.35,14.3-2.5,19.84-6.09l.28-.16.02-.37c.24-2.56.09-6.23-.28-8.53l-.07-.35-.32-.16c-5.72-3.16-13.06-4.81-20.19-4.65-.12-.94-1.23-7.53-1.39-8.45,6.76-2.25,13.15-6.18,17.55-11.01l.23-.23-.05-.38c-.4-2.34-1.5-5.85-2.48-8.14l-.14-.31-.37-.08c-6.27-1.59-13.76-1.28-20.73.63-.37-.89-3.2-7.07-3.58-7.93,5.98-3.87,11.13-9.34,14.14-15.15l.17-.33-.17-.32c-1-2.23-2.93-5.36-4.46-7.28l-.22-.25-.37-.03c-6.56.14-13.7,2.4-19.8,6.05-.63-.76-4.92-6.07-5.54-6.86,4.7-5.12,8.23-11.49,9.67-17.78.04-.18.16-.86.16-.86l-.22-.26c-1.58-1.96-4.24-4.43-6.26-5.84l-.28-.18-.31.09c-6.27,1.81-12.57,5.8-17.51,10.91-.82-.56-6.58-4.7-7.33-5.26,1.61-3.15,2.93-6.46,3.72-9.9.8-3.46,1.17-6.96.93-10.26v-.34s-.31-.21-.31-.21c-1.9-1.39-5.05-3.09-7.46-4.02l-.36-.15-.27.19c-5.63,3.4-10.7,8.92-14.15,15.14-.91-.38-7.32-2.71-8.3-3.05,1.5-6.93,1.28-14.43-.75-20.69l-.09-.35-.34-.1c-2.31-.85-5.91-1.68-8.31-1.92l-.38-.07-.24.27c-4.51,4.69-7.99,11.34-9.71,18.25-.98-.09-7.87-.82-8.88-.89-.37-7.14-2.52-14.35-6.08-19.85l-.2-.31-.39-.03c-2.55-.2-6.17-.07-8.48.3l-.35.06-.2.29c-1.59,2.93-2.85,6.28-3.65,9.77-.78,3.37-1.04,6.96-1.01,10.45-.92.17-7.99,1.45-8.94,1.6-2.24-6.77-6.15-13.15-10.97-17.56l-.26-.25-.38.04c-2.35.45-5.84,1.52-8.13,2.53l-.35.12-.21.92c-1.43,6.22-1.08,13.51.86,20.2-.86.43-6.57,3.1-7.44,3.52-3.87-5.97-9.32-11.12-15.17-14.17l-.3-.14-.29.17c-2.24.99-5.39,2.91-7.29,4.48l-.28.23v.35c.14,6.53,2.39,13.71,6.04,19.85-.7.62-6.18,5.13-6.94,5.75-5.25-4.76-11.82-8.37-18.27-9.76l-.33-.06-.28.24c-1.84,1.55-4.32,4.16-5.83,6.24l-.21.27.1.35c1.81,6.24,5.84,12.61,10.96,17.6-.52.78-4.34,6.17-4.91,6.94-6.45-3.27-13.75-4.98-20.25-4.6h-.35s-.19.28-.19.28c-1.39,1.93-3.09,5.08-4.03,7.53l-.12.34.18.33c3.39,5.59,8.94,10.68,15.18,14.07-.36.91-2.74,7.3-3.06,8.17-6.96-1.47-14.52-1.28-20.72.74l-.34.1-.11.34c-.41,1.16-.85,2.62-1.19,4.12s-.59,2.98-.72,4.2l-.05.35.26.23c4.69,4.51,11.34,8.01,18.28,9.72-.08.98-.71,7.96-.81,8.92-7.14.42-14.31,2.62-19.81,6.16l-.31.23-.04.32c-.19,2.59-.07,6.25.32,8.52l.07.34.29.18c5.76,3.18,13.08,4.79,20.24,4.67.15.93,1.39,7.53,1.55,8.47-6.75,2.19-13.13,6.13-17.54,10.96l-.22.28.04.34c.4,2.39,1.51,5.89,2.51,8.16l.15.32.31.09c6.35,1.56,13.82,1.29,20.71-.67.41.85,3.3,7.18,3.67,8.04-5.93,3.8-11.1,9.23-14.13,15.14l-.16.3.14.32c1.03,2.21,2.98,5.31,4.5,7.26l.22.3.36-.03c6.54-.12,13.66-2.35,19.83-6.02.63.77,5.02,6.11,5.67,6.88-4.68,5.28-8.18,11.72-9.63,17.98l-.16.7.26.31c1.53,1.84,4.17,4.27,6.2,5.81l.29.19.37-.09c6.29-1.82,12.63-5.85,17.62-11.02.75.54,6.07,4.27,6.85,4.81-1.6,3.11-2.87,6.41-3.65,9.77-.81,3.53-1.15,7.08-.96,10.38v.35s.32.21.32.21c1.9,1.39,5.08,3.09,7.48,4.07l.36.14.3-.22c5.65-3.42,10.72-8.97,14.04-15.15.94.38,7.46,2.89,8.38,3.21-1.47,7-1.23,14.52.78,20.68l.08.33.36.13c2.33.86,5.89,1.68,8.31,1.92l.35.04.24-.26c4.49-4.66,7.98-11.33,9.77-18.29.97.09,7.5.66,8.47.72.32,7.14,2.48,14.3,6.07,19.84l.2.28.31.04c2.61.18,6.23.08,8.55-.29l.34-.08.18-.29c1.61-2.91,2.81-6.24,3.62-9.76.78-3.4,1.1-6.98,1.05-10.51.94-.13,7.68-1.37,8.63-1.56,2.24,6.79,6.17,13.18,10.98,17.58l.24.2.35-.05c2.41-.4,5.94-1.47,8.19-2.53l.31-.1s.19-.73.24-.93c1.41-6.13,1.05-13.43-.79-20.17.85-.41,6.82-3.18,7.68-3.59,3.95,5.97,9.4,11.12,15.22,14.14l.3.16.31-.18c2.23-1.05,5.38-2.99,7.27-4.49l.3-.25-.04-.33c-.12-6.52-2.34-13.68-6-19.83.73-.62,6.05-5.04,6.78-5.67,5.34,4.78,11.93,8.33,18.3,9.65l.35.08.27-.21c1.96-1.58,4.4-4.2,5.83-6.28l.21-.25-.09-.35c-1.77-6.13-5.75-12.5-10.82-17.6.54-.77,4.32-6.12,4.88-6.89,6.32,3.28,13.61,5.02,20.16,4.65l.32-.04.21-.27c1.4-1.96,3.09-5.1,4.04-7.5l.12-.34-.2-.32c-3.39-5.64-8.9-10.67-15.08-14.09.36-.89,2.72-7.03,3.03-7.94,7.03,1.49,14.59,1.27,20.77-.75l.32-.11.11-.36c.43-1.12.84-2.61,1.18-4.1s.62-2.98.73-4.18M289.22,1076.45c-52.87-12.19-85.99-65.15-73.79-118.06,12.19-52.89,65.15-86,118.03-73.81,52.9,12.2,86,65.15,73.81,118.04-12.2,52.91-65.14,86.02-118.04,73.83"/>
          <circle class="cls-70" cx="311.1" cy="981.25" r="118.65"/>
          <path class="cls-7" d="M403.64,999.58l.04-.26-.17-.16c-3.35-3.27-8.17-5.78-13.15-7.04.05-.69.51-5.52.59-6.21,5.1-.25,10.28-1.79,14.26-4.38l.2-.12v-.27c.19-1.84.08-4.48-.19-6.13l-.05-.25-.23-.12c-4.11-2.27-9.39-3.46-14.51-3.35-.09-.68-.88-5.41-1-6.08,4.86-1.62,9.46-4.44,12.62-7.92l.17-.16-.03-.27c-.29-1.68-1.08-4.21-1.79-5.86l-.1-.22-.26-.06c-4.51-1.14-9.89-.92-14.9.45-.26-.64-2.3-5.08-2.57-5.7,4.3-2.78,8-6.72,10.17-10.89l.12-.24-.13-.23c-.72-1.6-2.1-3.85-3.21-5.23l-.16-.18-.26-.02c-4.71.1-9.85,1.73-14.24,4.35-.45-.55-3.54-4.37-3.98-4.93,3.38-3.68,5.91-8.26,6.96-12.78.03-.13.12-.62.12-.62l-.16-.19c-1.14-1.41-3.05-3.18-4.5-4.2l-.2-.13-.23.06c-4.51,1.3-9.04,4.17-12.59,7.84-.59-.4-4.73-3.38-5.27-3.78,1.16-2.26,2.1-4.65,2.67-7.12.57-2.49.84-5,.67-7.38v-.25s-.22-.15-.22-.15c-1.36-1-3.63-2.22-5.36-2.89l-.26-.11-.2.14c-4.05,2.44-7.69,6.41-10.17,10.89-.66-.27-5.26-1.95-5.97-2.19,1.08-4.98.92-10.38-.54-14.88l-.06-.25-.25-.07c-1.66-.61-4.25-1.21-5.97-1.38l-.27-.05-.17.2c-3.24,3.37-5.74,8.15-6.98,13.12-.71-.07-5.66-.59-6.38-.64-.27-5.13-1.81-10.32-4.37-14.27l-.14-.23-.28-.02c-1.83-.14-4.44-.05-6.09.22l-.25.05-.14.21c-1.14,2.11-2.05,4.51-2.62,7.02s-.75,5-.73,7.51c-.66.12-5.75,1.04-6.43,1.15-1.61-4.86-4.42-9.45-7.89-12.62l-.19-.18-.27.03c-1.69.32-4.2,1.09-5.85,1.82l-.25.08-.15.66c-1.03,4.47-.78,9.71.62,14.53-.62.31-4.72,2.23-5.35,2.53-2.78-4.29-6.7-8-10.91-10.19l-.22-.1-.21.12c-1.61.71-3.87,2.09-5.24,3.22l-.2.16v.25c.1,4.7,1.72,9.85,4.34,14.27-.5.44-4.44,3.69-4.99,4.14-3.78-3.42-8.5-6.02-13.14-7.02l-.24-.04-.2.17c-1.32,1.11-3.11,2.99-4.19,4.49l-.15.19.07.26c1.3,4.49,4.2,9.07,7.88,12.66-.37.56-3.12,4.43-3.53,4.99-4.64-2.35-9.88-3.58-14.56-3.31h-.25s-.14.2-.14.2c-1,1.38-2.22,3.65-2.9,5.41l-.09.24.13.24c2.44,4.02,6.43,7.68,10.92,10.12-.26.66-1.97,5.25-2.2,5.88-5.01-1.05-10.44-.92-14.9.53l-.24.07-.08.25c-.3.84-.61,1.89-.86,2.97-.25,1.07-.42,2.14-.52,3.02l-.03.25.19.16c3.37,3.25,8.15,5.76,13.15,6.99-.06.71-.51,5.72-.58,6.41-5.13.3-10.29,1.88-14.24,4.43l-.22.16-.03.23c-.14,1.86-.05,4.49.23,6.13l.05.24.21.13c4.14,2.29,9.4,3.44,14.55,3.36.11.67,1,5.41,1.11,6.09-4.85,1.57-9.44,4.4-12.61,7.88l-.16.2.03.25c.29,1.72,1.09,4.24,1.81,5.86l.11.23.22.06c4.57,1.12,9.93.93,14.89-.48.29.61,2.37,5.16,2.64,5.78-4.26,2.73-7.98,6.64-10.16,10.88l-.11.22.1.23c.74,1.59,2.15,3.82,3.24,5.22l.16.21.26-.02c4.7-.08,9.82-1.69,14.25-4.33.45.55,3.61,4.39,4.08,4.94-3.36,3.79-5.88,8.42-6.92,12.93l-.12.51.19.22c1.1,1.32,3,3.07,4.46,4.18l.21.13.26-.06c4.52-1.31,9.08-4.21,12.67-7.93.54.39,4.37,3.07,4.93,3.46-1.15,2.24-2.06,4.61-2.62,7.02-.58,2.53-.82,5.09-.69,7.47v.25s.23.15.23.15c1.37,1,3.65,2.22,5.38,2.93l.26.1.22-.16c4.06-2.46,7.71-6.45,10.09-10.89.67.27,5.37,2.08,6.03,2.31-1.06,5.03-.89,10.44.56,14.87l.06.24.26.09c1.67.62,4.24,1.21,5.98,1.38l.25.03.17-.18c3.23-3.35,5.74-8.14,7.03-13.15.7.06,5.39.48,6.09.52.23,5.13,1.79,10.28,4.36,14.27l.14.2.23.03c1.88.13,4.48.06,6.15-.21l.24-.06.13-.21c1.16-2.09,2.02-4.49,2.6-7.02s.79-5.02.76-7.56c.68-.09,5.52-.98,6.2-1.12,1.61,4.88,4.44,9.48,7.9,12.64l.18.14.25-.03c1.73-.29,4.27-1.06,5.89-1.82l.22-.07s.14-.52.17-.67c1.02-4.41.76-9.66-.57-14.5.61-.29,4.91-2.28,5.52-2.58,2.84,4.29,6.76,7.99,10.94,10.17l.22.12.22-.13c1.6-.75,3.87-2.15,5.23-3.23l.21-.18-.03-.23c-.08-4.69-1.68-9.84-4.31-14.26.53-.44,4.35-3.62,4.87-4.08,3.84,3.44,8.58,5.99,13.16,6.94l.25.06.19-.15c1.41-1.14,3.16-3.02,4.19-4.51l.15-.18-.07-.25c-1.27-4.41-4.13-8.99-7.78-12.66.39-.55,3.11-4.4,3.51-4.95,4.54,2.36,9.78,3.61,14.49,3.34l.23-.03.15-.2c1.01-1.41,2.22-3.67,2.91-5.39l.08-.24-.14-.23c-2.43-4.05-6.4-7.67-10.84-10.13.26-.64,1.96-5.05,2.18-5.71,5.06,1.07,10.49.91,14.93-.54l.23-.08.08-.26c.31-.8.6-1.88.85-2.95s.45-2.14.52-3.01M295.36,1049.7c-38.02-8.76-61.83-46.84-53.06-84.88,8.77-38.03,46.85-61.84,84.86-53.07,38.04,8.77,61.83,46.84,53.07,84.87-8.77,38.04-46.84,61.85-84.87,53.08"/>
          <circle class="cls-29" cx="311.1" cy="981.25" r="73.11"/>
        </g>
        <path class="cls-6" d="M278.58,758.58v13.65h5.57v290.5h-5.19v12.22h85.68v-12.22h-5.29v-92.75h8.16c3.03,0,5.81,1.68,7.21,4.37l52.17,100.08s22.56,20.33,47.63,20.33h46.39c.69,0,1.24-.56,1.24-1.24v-1.62c0-.52-.32-.99-.81-1.16-4.69-1.69-28.71-11.94-45.98-49.86-17.74-38.94-36.18-72.9-38.92-77.91-.23-.42-.35-.89-.35-1.37v-1.64c0-1.27.82-2.39,2.04-2.75,9.88-2.97,52.27-20.11,52.27-95.42s-56.38-99.83-67.16-103.47c-1.1-.37-2.23-.55-3.39-.55l-141.26.83Z"/>
      </g>
    </g>
  </g>
</svg>