<?xml version="1.0" encoding="UTF-8"?>
<svg id="Layer_1" data-name="Layer 1" xmlns="http://www.w3.org/2000/svg" xmlns:xlink="http://www.w3.org/1999/xlink" viewBox="0 0 3000 400">
  <defs>
    <style>
      .cls-1 {
        fill: #00adbb;
      }

      .cls-1, .cls-2, .cls-3, .cls-4, .cls-5 {
        fill-rule: evenodd;
      }

      .cls-6 {
        fill: #f9a31a;
      }

      .cls-7 {
        fill: none;
        stroke: #929497;
        stroke-width: 2.37px;
      }

      .cls-2 {
        fill: #67c8d3;
      }

      .cls-3 {
        fill: #0e84a9;
      }

      .cls-4 {
        fill: url(#linear-gradient-2);
      }

      .cls-8 {
        fill: #1a468c;
      }

      .cls-9 {
        fill: #025073;
      }

      .cls-10 {
        fill: #d31b68;
      }

      .cls-5 {
        fill: url(#linear-gradient);
      }
    </style>
    <linearGradient id="linear-gradient" x1="2178.26" y1="145.53" x2="2391.37" y2="145.53" gradientUnits="userSpaceOnUse">
      <stop offset="0" stop-color="#fcc117"/>
      <stop offset=".36" stop-color="#fbbe17"/>
      <stop offset=".55" stop-color="#fab618"/>
      <stop offset=".7" stop-color="#f9a919"/>
      <stop offset=".83" stop-color="#f6951c"/>
      <stop offset=".95" stop-color="#f37d1f"/>
      <stop offset="1" stop-color="#f27021"/>
    </linearGradient>
    <linearGradient id="linear-gradient-2" x1="2233.64" y1="187.42" x2="2338.35" y2="187.42" gradientUnits="userSpaceOnUse">
      <stop offset="0" stop-color="#f27021"/>
      <stop offset=".05" stop-color="#f37d1f"/>
      <stop offset=".17" stop-color="#f6951c"/>
      <stop offset=".3" stop-color="#f9a919"/>
      <stop offset=".45" stop-color="#fab618"/>
      <stop offset=".64" stop-color="#fbbe17"/>
      <stop offset="1" stop-color="#fcc117"/>
    </linearGradient>
  </defs>
  <g>
    <g>
      <g>
        <path class="cls-8" d="M281.99,260.9c3.7,0,7.12.42,10.26,1.26,3.14.85,5.84,2.16,8.11,3.95,2.27,1.79,4.04,4.07,5.3,6.85,1.26,2.78,1.89,6.12,1.89,10.04s-.69,7.39-2.05,10.16c-1.37,2.78-3.22,5.04-5.56,6.79-2.33,1.75-5.05,3.02-8.14,3.82-3.09.8-6.37,1.2-9.82,1.2h-8.96v-44.06h8.96ZM277.38,301.17h4.36c3.24,0,6.18-.35,8.81-1.04,2.63-.69,4.87-1.78,6.72-3.25,1.85-1.47,3.28-3.36,4.29-5.65,1-2.29,1.51-5.02,1.51-8.17,0-3.41-.52-6.29-1.58-8.65-1.05-2.36-2.53-4.25-4.42-5.68-1.89-1.43-4.14-2.46-6.75-3.09-2.61-.63-5.47-.95-8.58-.95h-4.36v36.49Z"/>
        <path class="cls-8" d="M321.44,265.76h-4.86v-5.11h4.86v5.11ZM321.06,304.96h-4.1v-32.07h4.1v32.07Z"/>
        <path class="cls-8" d="M330.09,300.17c2.57,1.35,5.26,2.02,8.08,2.02.92,0,1.81-.1,2.65-.32.84-.21,1.59-.54,2.24-1.01.65-.46,1.18-1.05,1.58-1.77.4-.72.6-1.56.6-2.53,0-.8-.13-1.49-.38-2.08-.25-.59-.66-1.14-1.23-1.64-.57-.51-1.31-.99-2.24-1.45-.93-.46-2.06-.99-3.41-1.58-1.18-.51-2.24-1.02-3.19-1.55-.94-.53-1.77-1.12-2.46-1.77s-1.23-1.42-1.61-2.3c-.38-.88-.57-1.92-.57-3.09,0-1.39.27-2.64.82-3.76.55-1.12,1.3-2.05,2.24-2.81.95-.76,2.05-1.34,3.31-1.74s2.63-.6,4.1-.6c2.74,0,5.18.42,7.32,1.26l-.38,3.66c-1.18-.59-2.32-.99-3.44-1.2-1.12-.21-2.28-.32-3.5-.32-1.73,0-3.23.44-4.51,1.33-1.28.88-1.92,2.19-1.92,3.91,0,1.47.56,2.64,1.67,3.5,1.12.86,2.85,1.74,5.21,2.62,2.9,1.09,5.02,2.35,6.35,3.76,1.33,1.41,1.99,3.23,1.99,5.46,0,1.6-.31,3-.91,4.2-.61,1.2-1.42,2.19-2.43,2.97-1.01.78-2.19,1.36-3.54,1.74-1.35.38-2.74.57-4.16.57-1.6,0-3.11-.14-4.51-.41-1.41-.27-2.81-.68-4.2-1.23l.44-3.85Z"/>
        <path class="cls-8" d="M364.05,273.08h8.46v3.41h-8.46v17.86c0,2.57.42,4.49,1.26,5.78s2.25,1.92,4.23,1.92c1.18,0,2.29-.23,3.34-.69l.19,3.28c-1.26.46-2.65.69-4.16.69-1.73,0-3.17-.24-4.32-.72-1.16-.48-2.07-1.17-2.75-2.05-.67-.88-1.15-1.95-1.42-3.22-.27-1.26-.41-2.69-.41-4.29v-18.56h-6.88v-3.41h6.88v-7.32l4.04-1.39v8.71Z"/>
        <path class="cls-8" d="M384.76,279.14c.72-2.02,1.87-3.68,3.47-4.99,1.6-1.31,3.43-1.96,5.49-1.96.92,0,1.81.13,2.65.38l-.06,3.79c-.42-.13-.84-.21-1.26-.25s-.88-.06-1.39-.06c-1.35,0-2.57.3-3.66.91-1.09.61-2.03,1.46-2.81,2.56-.78,1.09-1.38,2.4-1.8,3.92-.42,1.52-.63,3.15-.63,4.92v16.6h-4.1v-22.41c0-1.73-.02-3.43-.06-5.12-.04-1.68-.13-3.2-.25-4.54h4.04c.04.42.07.91.09,1.45s.04,1.1.06,1.67c.02.57.04,1.13.06,1.67.02.55.03,1.03.03,1.45h.13Z"/>
        <path class="cls-8" d="M407.54,265.76h-4.86v-5.11h4.86v5.11ZM407.17,304.96h-4.1v-32.07h4.1v32.07Z"/>
        <path class="cls-8" d="M439.11,277.56c-1.94-.97-4.21-1.45-6.82-1.45-1.77,0-3.37.32-4.8.95-1.43.63-2.65,1.51-3.66,2.65-1.01,1.14-1.79,2.48-2.34,4.04-.55,1.56-.82,3.24-.82,5.05s.26,3.63.79,5.21,1.3,2.93,2.31,4.07c1.01,1.14,2.24,2.02,3.69,2.65,1.45.63,3.08.94,4.89.94,1.26,0,2.46-.13,3.6-.38s2.27-.67,3.41-1.26l.32,3.79c-1.09.46-2.26.83-3.5,1.11-1.24.27-2.6.41-4.07.41-2.4,0-4.58-.39-6.53-1.17-1.96-.78-3.63-1.89-5.02-3.31-1.39-1.43-2.45-3.16-3.19-5.18-.74-2.02-1.1-4.25-1.1-6.69s.38-4.54,1.13-6.56c.76-2.02,1.83-3.76,3.22-5.24,1.39-1.47,3.06-2.62,5.02-3.44,1.96-.82,4.13-1.23,6.53-1.23,1.34,0,2.63.1,3.85.29s2.38.51,3.47.98l-.38,3.79Z"/>
        <path class="cls-8" d="M453.44,273.08h8.46v3.41h-8.46v17.86c0,2.57.42,4.49,1.26,5.78.84,1.28,2.25,1.92,4.23,1.92,1.18,0,2.29-.23,3.34-.69l.19,3.28c-1.26.46-2.65.69-4.16.69-1.73,0-3.17-.24-4.32-.72-1.16-.48-2.07-1.17-2.75-2.05-.67-.88-1.15-1.95-1.42-3.22-.27-1.26-.41-2.69-.41-4.29v-18.56h-6.88v-3.41h6.88v-7.32l4.04-1.39v8.71Z"/>
        <path class="cls-8" d="M491.25,283.75h-1.2c-.47,0-.86.02-1.2.06v-3.6c.34.04.73.06,1.2.06h1.2c4.38,0,7.78-.68,10.2-2.05,2.42-1.37,3.63-3.52,3.63-6.47,0-1.39-.27-2.59-.82-3.6-.55-1.01-1.3-1.84-2.24-2.5-.95-.65-2.03-1.13-3.25-1.45s-2.5-.48-3.85-.48c-1.64,0-3.24.17-4.8.51-1.56.34-3.28.93-5.18,1.77l-.38-3.85c1.77-.71,3.52-1.22,5.27-1.51,1.75-.29,3.57-.44,5.46-.44,2.06,0,3.95.24,5.68.72,1.73.48,3.21,1.21,4.45,2.18,1.24.97,2.2,2.16,2.87,3.57.67,1.41,1.01,3.02,1.01,4.83,0,1.6-.28,3.01-.85,4.23-.57,1.22-1.36,2.26-2.37,3.12-1.01.86-2.21,1.55-3.6,2.05s-2.9.82-4.54.95v.19c1.64.08,3.18.36,4.61.82,1.43.46,2.67,1.15,3.73,2.05,1.05.91,1.88,2.02,2.49,3.35.61,1.32.91,2.85.91,4.58,0,1.98-.4,3.76-1.2,5.36-.8,1.6-1.9,2.95-3.31,4.04-1.41,1.09-3.12,1.94-5.11,2.53-2,.59-4.2.88-6.6.88-1.73,0-3.48-.15-5.27-.44-1.79-.29-3.59-.74-5.39-1.33l.44-3.91c1.89.8,3.67,1.37,5.33,1.7,1.66.34,3.29.51,4.89.51s3.06-.19,4.51-.57c1.45-.38,2.72-.96,3.79-1.74,1.07-.78,1.93-1.78,2.59-3,.65-1.22.98-2.67.98-4.35,0-3.03-1.19-5.25-3.57-6.66-2.38-1.41-5.88-2.11-10.51-2.11Z"/>
        <path class="cls-8" d="M521.17,262.86c1.73-.84,3.5-1.49,5.33-1.95,1.83-.46,3.78-.69,5.84-.69,1.85,0,3.59.24,5.21.72,1.62.48,3.03,1.22,4.23,2.21,1.2.99,2.15,2.22,2.84,3.69.69,1.47,1.04,3.2,1.04,5.18,0,3.24-1.02,6.53-3.06,9.88-2.04,3.35-5.15,7.1-9.31,11.27-1.85,1.81-3.56,3.39-5.12,4.74-1.56,1.35-3.03,2.5-4.42,3.47v.13c.97-.04,2.02-.07,3.16-.09,1.13-.02,2.28-.04,3.44-.06,1.15-.02,2.29-.04,3.41-.06,1.12-.02,2.14-.03,3.06-.03h9.72v3.73h-27.02v-4.23c3.75-3.2,6.98-6.13,9.69-8.77,2.71-2.65,4.96-5.12,6.72-7.42,1.77-2.29,3.07-4.45,3.92-6.47.84-2.02,1.26-3.98,1.26-5.87,0-1.43-.24-2.67-.73-3.72-.48-1.05-1.15-1.93-1.99-2.62-.84-.69-1.82-1.21-2.93-1.55-1.12-.34-2.3-.51-3.57-.51-1.6,0-3.22.23-4.86.69-1.64.46-3.35,1.2-5.12,2.21l-.76-3.85Z"/>
        <path class="cls-8" d="M563.72,283.75h-1.2c-.47,0-.86.02-1.2.06v-3.6c.34.04.73.06,1.2.06h1.2c4.38,0,7.78-.68,10.2-2.05,2.42-1.37,3.63-3.52,3.63-6.47,0-1.39-.27-2.59-.82-3.6-.55-1.01-1.3-1.84-2.24-2.5-.95-.65-2.03-1.13-3.25-1.45s-2.5-.48-3.85-.48c-1.64,0-3.24.17-4.8.51-1.56.34-3.28.93-5.18,1.77l-.38-3.85c1.77-.71,3.52-1.22,5.27-1.51,1.75-.29,3.57-.44,5.46-.44,2.06,0,3.95.24,5.68.72,1.73.48,3.21,1.21,4.45,2.18,1.24.97,2.2,2.16,2.87,3.57.67,1.41,1.01,3.02,1.01,4.83,0,1.6-.28,3.01-.85,4.23-.57,1.22-1.36,2.26-2.37,3.12-1.01.86-2.21,1.55-3.6,2.05-1.39.51-2.9.82-4.54.95v.19c1.64.08,3.18.36,4.61.82s2.67,1.15,3.73,2.05c1.05.91,1.88,2.02,2.49,3.35.61,1.32.91,2.85.91,4.58,0,1.98-.4,3.76-1.2,5.36-.8,1.6-1.9,2.95-3.31,4.04-1.41,1.09-3.12,1.94-5.11,2.53-2,.59-4.2.88-6.6.88-1.73,0-3.48-.15-5.27-.44s-3.59-.74-5.39-1.33l.44-3.91c1.89.8,3.67,1.37,5.33,1.7,1.66.34,3.29.51,4.89.51s3.06-.19,4.51-.57c1.45-.38,2.72-.96,3.79-1.74,1.07-.78,1.93-1.78,2.59-3s.98-2.67.98-4.35c0-3.03-1.19-5.25-3.57-6.66-2.38-1.41-5.88-2.11-10.51-2.11Z"/>
        <path class="cls-8" d="M615.48,290.89h6.19v3.72h-6.19v10.35h-4.16v-10.35h-21.46v-3.91l19.69-29.79h5.93v29.98ZM611.31,277.19c0-1.98.02-4.16.06-6.53.04-2.38.13-4.77.25-7.17h-.13c-.29.59-.67,1.28-1.14,2.08-.46.8-.97,1.65-1.52,2.56-.55.91-1.12,1.82-1.7,2.75-.59.93-1.14,1.79-1.64,2.59l-11.36,17.42h17.17v-13.7Z"/>
      </g>
      <path class="cls-8" d="M477.77,206.36l.4,7.59c.06,1.14-.75,2.16-1.86,2.37-3.21.59-7.61,1.31-10.38,1.31-13.91,0-18.15-5.32-18.15-22.75v-26.63h-5.33c-1.27,0-2.29-1.04-2.29-2.31v-7.88c0-1.27,1.02-2.29,2.29-2.29h5.33v-9.37c0-1.06.73-1.98,1.74-2.23l9.22-2.25c.68-.16,1.4,0,1.95.42.55.44.88,1.1.88,1.81v11.62h14.05c1.25,0,2.28,1.02,2.28,2.29v7.88c0,1.27-1.02,2.31-2.28,2.31h-14.05v24.68c0,8.54.3,11.5,6.29,11.5,2.21,0,5.68-.15,7.53-.25,1.23-.03,2.34.9,2.38,2.18M434.22,185.68c0,22-8.36,31.81-27.09,31.81s-27.23-9.81-27.23-31.81,8.4-31.35,27.23-31.35,27.09,9.95,27.09,31.35M420.2,185.68c0-13.51-3.67-18.76-13.06-18.76s-13.2,4.91-13.2,18.76c0,12.56,2.1,19.36,13.2,19.36s13.06-7.1,13.06-19.36M640.2,156.66c-.42-.56-1.09-.89-1.8-.89h-8.96c-1.04,0-1.93.7-2.21,1.7l-11.99,45.25h-.93l-12.01-45.25c-.26-1.01-1.17-1.7-2.22-1.7h-8.94c-.72,0-1.39.33-1.82.89-.42.57-.58,1.29-.4,1.97l13.22,50.75c.66,2.52,2.98,6.77,7.59,6.77h2.57c-.22.86-.45,1.77-.7,2.54l-.12.38c-.72,2.34-1.8,5.88-8.33,5.88l-11.42-.7c-.66-.05-1.28.19-1.74.65-.47.46-.72,1.09-.68,1.74l.28,5.98c.04,1.02.74,1.87,1.74,2.12,3.37.83,9.8,1.8,15.1,2,.25.02.47.02.72.02,8.62,0,14.48-5.58,17.43-16.56,3.42-12.87,7.7-29.42,10.84-41.51,1.42-5.44,2.64-10.13,3.5-13.47l1.72-6.59c.2-.69.03-1.42-.41-1.98M371.5,212.96c.3.7.23,1.52-.18,2.17-.44.65-1.16,1.03-1.94,1.03h-10.7c-.91,0-1.74-.53-2.09-1.36l-13.71-30.85c-6.82-.05-12.74-.41-15.94-.64v30.56c0,1.27-1.02,2.29-2.28,2.29h-9.56c-1.28,0-2.32-1.02-2.32-2.29v-77.38c0-1.17.88-2.15,2.05-2.28,12.29-1.39,22.11-1.53,25.75-1.53,1.26,0,1.91,0,1.91,0,23.57,0,28.51,13.92,28.51,25.57,0,9.74-4.65,16.77-14.2,21.52l14.69,33.17ZM342.47,145.97h-5.05c-5.63,0-8.84.43-10.47.75v23.86c2.69.19,7.88.46,14.85.38,8.99-.09,14.59-4.87,14.59-12.45,0-6.06-3.66-12.55-13.92-12.55M534.07,174.78v40.04c0,.67-.29,1.3-.79,1.73-.5.44-1.17.63-1.82.55-4.68-.66-6.91-2.13-9.13-3.83-.1.04-10.46,4.22-19.72,4.22-11.15,0-17.54-7.04-17.54-19.34s5.85-17.34,20.21-18.41l15-1.2v-3.64c0-4.61-2.74-7.25-7.51-7.25-6.57,0-15.95.77-20.94,1.21-.63.07-1.25-.13-1.74-.55-.46-.4-.75-1.01-.78-1.63l-.29-7.66c-.06-1.16.79-2.18,1.91-2.35,4.47-.71,15.61-2.33,22.56-2.33,14.04,0,20.58,6.5,20.58,20.45M506.95,190.01c-5.42.51-7.98,2.99-7.98,7.75,0,2.94.8,7.89,6.16,7.89,6.39,0,15.04-2.41,15.14-2.43v-13.91l-13.31.71ZM578.84,155.32c-6.09.37-12.09,3.85-15.82,6.5v-3.75c0-1.27-1.02-2.29-2.3-2.29h-9.21c-1.28,0-2.31,1.02-2.31,2.29v55.81c0,1.27,1.03,2.29,2.31,2.29h9.21c1.28,0,2.3-1.02,2.3-2.29v-38.58c2.07-1.74,8.51-6.56,16.17-7.23,1.18-.11,2.09-1.1,2.09-2.29v-8.17c0-.64-.25-1.24-.72-1.66-.44-.44-1.08-.68-1.71-.63"/>
      <path class="cls-6" d="M879.11,178.22l-.02-.3-.23-.13c-4.51-2.73-10.43-4.28-16.22-4.4-.11-.77-.84-6.19-.93-6.96,5.53-1.57,10.84-4.57,14.55-8.42l.19-.18-.05-.3c-.28-2.06-1.06-4.93-1.77-6.68l-.12-.26-.28-.07c-5.09-1.45-11.18-1.42-16.78,0-.27-.72-2.34-5.71-2.63-6.42,4.93-3.01,9.26-7.27,11.85-11.88l.14-.22-.11-.29c-.74-1.78-2.25-4.35-3.44-5.98l-.16-.22h-.31c-5.24-.12-11.09,1.49-16.25,4.27-.45-.63-3.81-5-4.27-5.61,4.02-4.14,7.09-9.4,8.4-14.53l.08-.29-.2-.22c-1.19-1.58-3.28-3.7-4.85-4.93l-.22-.17-.3.05c-5.15,1.3-10.38,4.39-14.53,8.38-.64-.49-4.99-3.9-5.62-4.41,2.77-4.9,4.4-10.56,4.4-15.79,0-.15-.03-.71-.03-.71l-.22-.17c-1.61-1.26-4.16-2.72-6-3.47l-.25-.09-.24.13c-4.62,2.57-8.86,6.87-11.83,11.79-.74-.29-6.04-2.52-6.74-2.82.7-2.77,1.13-5.64,1.13-8.49s-.35-5.7-1.13-8.27l-.07-.27-.29-.11c-1.75-.75-4.55-1.52-6.62-1.82l-.31-.05-.18.2c-3.82,3.71-6.83,8.99-8.41,14.53-.79-.13-6.27-.81-7.11-.9-.07-5.74-1.62-11.62-4.35-16.19l-.13-.26h-.29c-1.97-.27-4.97-.27-6.91-.01h-.31s-.14.27-.14.27c-2.71,4.52-4.24,10.4-4.34,16.18-.8.1-6.37.78-7.17.92-1.59-5.57-4.6-10.87-8.41-14.56l-.22-.22-.31.05c-2.05.31-4.89,1.07-6.64,1.78l-.26.11-.1.27c-.72,2.6-1.11,5.47-1.11,8.37s.45,5.68,1.11,8.43c-.7.3-6.05,2.6-6.76,2.89-3-4.93-7.24-9.26-11.86-11.86l-.25-.15-.29.1c-1.77.78-4.34,2.26-5.96,3.48l-.25.15v.77c0,5.17,1.6,10.86,4.35,15.79-.6.49-4.62,3.64-5.22,4.13-4.15-4.01-9.39-7.09-14.56-8.43l-.26-.05-.2.19c-1.59,1.19-3.72,3.28-4.93,4.86l-.18.23.07.28c1.29,5.13,4.37,10.38,8.37,14.57-.43.61-3.94,5.17-4.43,5.81-5.01-2.8-10.85-4.46-16.2-4.38h-.27s-.18.25-.18.25c-1.17,1.56-2.65,4.07-3.46,5.99l-.12.25.14.26c2.57,4.6,6.9,8.89,11.85,11.9-.27.71-2.3,5.66-2.61,6.38-5.69-1.41-11.76-1.43-16.82.05l-.27.07-.1.24c-.74,1.78-1.52,4.57-1.81,6.68l-.04.29.2.22c3.7,3.8,9,6.8,14.54,8.34-.11.78-.83,6.26-.93,7.01-5.76.11-11.69,1.63-16.22,4.35l-.25.14-.03.3c-.12.99-.19,2.22-.19,3.47s.07,2.46.19,3.44l.03.29.25.13c4.53,2.71,10.41,4.26,16.2,4.35.11.79.89,6.42.99,7.19-5.56,1.63-10.82,4.67-14.52,8.47l-.2.24.02.26c.33,2.08,1.09,4.94,1.8,6.67l.11.26.27.09c5.13,1.46,11.19,1.4,16.83,0,.29.71,2.47,5.69,2.76,6.41-4.93,2.95-9.24,7.22-11.85,11.84l-.12.26.1.26c.76,1.81,2.27,4.38,3.47,5.98l.18.23h.26c5.29.09,11.14-1.48,16.22-4.28.47.59,3.91,5.06,4.35,5.68-3.99,4.08-7.08,9.31-8.4,14.52l-.07.27.17.23c1.22,1.56,3.32,3.65,4.87,4.91l.23.2.28-.09c5.14-1.28,10.36-4.34,14.55-8.36.64.49,5.08,3.91,5.73,4.39-2.73,5.01-4.32,10.74-4.32,15.94v.59l.26.19c1.55,1.18,4.07,2.62,5.95,3.46l.26.09.27-.13c4.63-2.58,8.9-6.92,11.9-11.91.7.29,5.57,2.26,6.29,2.55-.7,2.75-1.1,5.58-1.1,8.38s.38,5.79,1.13,8.37l.07.27.29.11c1.75.75,4.58,1.52,6.65,1.85l.31.04.2-.23c3.83-3.73,6.83-9.03,8.32-14.52.81.13,6.42.93,7.2,1.01.11,5.79,1.67,11.69,4.38,16.18l.12.25.31.04c1.99.25,4.95.25,6.9,0l.29-.04.14-.25c2.69-4.49,4.24-10.39,4.39-16.21.78-.11,6.04-.84,6.82-.98,1.55,5.58,4.56,10.84,8.4,14.56l.21.19.26-.02c2.09-.33,4.93-1.07,6.69-1.79l.25-.13.09-.26c.75-2.59,1.09-5.44,1.09-8.36s-.4-5.71-1.09-8.49c.72-.27,5.82-2.48,6.53-2.8,3,4.95,7.26,9.28,11.86,11.88l.23.11.27-.1c1.83-.76,4.42-2.24,6-3.49l.23-.13s.02-.61.02-.78c0-5.1-1.62-10.79-4.3-15.78.6-.47,4.81-3.75,5.41-4.23,4.2,3.99,9.44,7.07,14.58,8.39l.28.08.21-.2c1.57-1.23,3.7-3.34,4.92-4.87l.19-.25-.1-.25c-1.27-5.13-4.33-10.37-8.34-14.57.46-.61,3.86-5.07,4.32-5.71,5.09,2.8,10.94,4.4,16.2,4.29h.29l.18-.21c1.25-1.61,2.71-4.12,3.46-6.02l.12-.24-.14-.26c-2.51-4.52-6.81-8.82-11.74-11.92.29-.7,2.3-5.62,2.6-6.33,5.59,1.44,11.66,1.49,16.76,0l.25-.08.12-.25c.75-1.8,1.51-4.59,1.83-6.66l.03-.29-.21-.22c-3.7-3.83-8.97-6.81-14.47-8.38.12-.77.87-6.04.95-6.82,5.82-.1,11.75-1.65,16.26-4.37l.23-.15.02-.31c.14-.96.19-2.21.19-3.45s-.05-2.46-.19-3.43M772.94,260.65c-43.95,0-79.73-35.78-79.73-79.75s35.78-79.74,79.73-79.74,79.74,35.77,79.74,79.74-35.77,79.75-79.74,79.75"/>
      <path class="cls-6" d="M772.94,110.74c-38.66,0-70.14,31.47-70.14,70.15s31.47,70.16,70.14,70.16,70.16-31.47,70.16-70.16-31.48-70.15-70.16-70.15M781.77,122.02c.68-.55,1.57-.38,2.46-.19,14.09,3.41,24.44,9.37,34.54,19.98.72.76,1.1,1.47,1.1,2.09,0,.06-.02.16-.02.25-.22.97-1.3,1.48-2.26,1.94l-29.51,14.29c-1.16.55-2.25.6-3.1.07-.87-.5-1.41-1.47-1.51-2.74l-2.38-32.69c-.1-1.56.11-2.53.68-3.01M726.98,142.06h.02c10.1-10.6,20.43-16.58,34.53-19.97.87-.2,1.8-.37,2.42.19.6.46.81,1.43.7,3l-2.39,32.69c-.07,1.26-.59,2.25-1.48,2.73-.86.52-1.98.49-3.1-.06l-29.5-14.28c-.97-.48-2.09-.99-2.28-1.96-.1-.67.23-1.45,1.09-2.34M719.97,202.66c-1.28.88-2.23,1.19-2.95.93-.8-.28-1.07-1.16-1.33-2.03-4.17-13.92-4.17-25.87-.05-39.91.36-1.2.86-1.87,1.5-2.1.95-.34,1.93.36,2.82.96l27.11,18.45c1.03.68,1.62,1.62,1.62,2.65s-.59,1.93-1.58,2.65l-27.15,18.4ZM764.48,241.04c-.65.53-1.55.37-2.45.14-14.09-3.36-24.45-9.33-34.53-19.96-.74-.76-1.09-1.43-1.09-2.03,0-.11,0-.18.02-.3.14-.93,1.28-1.48,2.23-1.93l29.51-14.32c1.15-.53,2.27-.56,3.14-.05.85.5,1.38,1.46,1.48,2.71l2.39,32.76c.09,1.56-.14,2.51-.7,2.98M772.89,200.21c-10.57,0-19.17-8.6-19.17-19.16,0-6.45,3.22-12.44,8.62-16,1.78-1.19,4.18-.68,5.36,1.09,1.17,1.79.7,4.19-1.09,5.37-3.23,2.12-5.14,5.69-5.14,9.55,0,6.29,5.13,11.42,11.42,11.42s11.43-5.13,11.43-11.42c0-3.86-1.91-7.44-5.15-9.56-1.78-1.18-2.27-3.58-1.08-5.36,1.17-1.77,3.58-2.28,5.35-1.1,5.39,3.57,8.62,9.55,8.62,16.02,0,10.56-8.6,19.16-19.17,19.16M818.81,220.85c-10.05,10.59-20.35,16.54-34.52,19.94-1.2.3-2.03.21-2.55-.22-.74-.62-.64-1.87-.57-2.94l2.35-32.71c.15-1.27.65-2.23,1.55-2.76.87-.47,1.98-.43,3.08.1l29.52,14.29c1.38.68,2.11,1.35,2.26,2.08.15.82-.46,1.54-1.12,2.22M828.76,159.4c.8.27,1.11,1.15,1.35,2.01,4.15,13.94,4.15,25.86,0,39.91-.34,1.21-.82,1.87-1.47,2.13-.92.28-1.93-.38-2.78-1.01l-27.14-18.42c-1.04-.69-1.66-1.64-1.66-2.66s.6-1.94,1.66-2.67l27.14-18.4c1.22-.88,2.18-1.16,2.9-.9"/>
    </g>
    <g>
      <g>
        <path class="cls-8" d="M1024.84,117.23c-5.18,16.74-10.35,29.02-27.58,29.02-10.65,0-18.48-4.22-16.96-16.59.51-4.15,1.47-7.54,2.24-9.95l8.67-26.99h12.82l-9.36,29.78c-.78,2.49-1.44,4.52-1.59,5.73-.53,4.3,1.3,7.61,5.78,7.61,8.14,0,10.76-10.86,13.43-19.3l7.61-23.82h12.55l-7.62,24.5Z"/>
        <path class="cls-8" d="M1040.09,92.73h15.81l5.22,36.49h.14l11.13-36.49h11.94l-16.5,52.62h-15.74l-5.44-36.41h-.14l-11.05,36.41h-11.94l16.57-52.62Z"/>
        <path class="cls-8" d="M1092.49,92.73h12.76l-16.3,52.62h-12.76l16.3-52.62Z"/>
        <path class="cls-8" d="M1118.86,103.13h-11.81l3.31-10.4h36.43l-3.31,10.4h-11.81l-13.26,42.22h-12.82l13.26-42.22Z"/>
        <path class="cls-8" d="M1151.6,92.73h33.31l-3.05,9.95h-20.83l-3.5,10.86h19.74l-3.19,9.95h-19.68l-3.77,11.91h21.64l-3.05,9.95h-34.26l16.64-52.62Z"/>
      </g>
      <g>
        <path class="cls-8" d="M1072.09,158.34h31.68l-2.99,9.95h-19.27l-3.79,11.53h18.59l-3.05,9.95h-18.32l-6.6,21.18h-12.76l16.5-52.62Z"/>
        <path class="cls-8" d="M1117.55,211.87c-15.4,0-19.73-10.63-18.4-21.41,2.45-19.98,13.48-33.02,31.74-33.02,15.4,0,19.73,10.63,18.39,21.48-2.44,19.9-13.48,32.94-31.73,32.94ZM1128.8,167.84c-9.77,0-15.39,12.59-16.48,21.48-.81,6.63.75,12.14,7.33,12.14,9.77,0,15.39-12.59,16.47-21.41.81-6.63-.74-12.21-7.32-12.21Z"/>
        <path class="cls-8" d="M1162.79,158.34h15.13c9.01.08,19.83.38,18.23,13.42-1.14,9.27-8.05,12.51-15.43,13.49l-.02.15c3.69.38,4.22,5.96,4.48,9.35l1.4,16.21h-12.62l-.79-13.42c-.38-6.86-.72-7.39-6.42-7.39h-1.36l-6.35,20.81h-12.69l16.43-52.62ZM1168.45,180.21h4.27c5.5,0,9.96-1.51,10.57-6.48.46-3.77-1.38-5.35-5.17-5.43h-6.04l-3.63,11.91Z"/>
      </g>
      <g>
        <path class="cls-8" d="M1126.29,238.1c-3.89-2.04-7.86-2.86-13.35-2.86-12.69,0-19,9.95-20.22,19.9-1.15,9.35,3.68,13.72,10.12,13.72,1.63,0,3.29-.3,5.13-.9l3.38-10.4h-7.53l3.05-9.95h19.88l-9.23,29.32c-4.94,1.58-12.7,2.34-16.77,2.34-15.27,0-22.79-10.03-21.01-24.5,2.15-17.49,13.11-29.93,35.09-29.93,5.77,0,10.52,1.06,15.49,2.56l-4.03,10.7Z"/>
        <path class="cls-8" d="M1147.93,279.26c-15.4,0-19.73-10.63-18.4-21.41,2.45-19.98,13.48-33.02,31.74-33.02,15.4,0,19.73,10.63,18.4,21.48-2.44,19.9-13.48,32.94-31.73,32.94ZM1159.17,235.23c-9.77,0-15.39,12.59-16.48,21.48-.81,6.63.75,12.14,7.33,12.14,9.77,0,15.39-12.59,16.47-21.41.81-6.63-.74-12.21-7.32-12.21Z"/>
        <path class="cls-8" d="M1199.66,279.26c-15.4,0-19.73-10.63-18.4-21.41,2.45-19.98,13.48-33.02,31.74-33.02,15.4,0,19.73,10.63,18.4,21.48-2.44,19.9-13.48,32.94-31.73,32.94ZM1210.9,235.23c-9.77,0-15.39,12.59-16.48,21.48-.81,6.63.75,12.14,7.33,12.14,9.77,0,15.39-12.59,16.47-21.41.81-6.63-.74-12.21-7.32-12.21Z"/>
        <path class="cls-8" d="M1244.37,225.73h16.42c15.06,0,23.28,7.09,21.56,21.11-2.7,22.01-16.29,31.51-34.06,31.51h-20.42l16.5-52.62ZM1243.93,267.95h5.56c12.42,0,18.5-10.33,19.7-20.13,1.18-9.65-4.54-11.68-12.27-11.68h-3.12l-9.88,31.81Z"/>
      </g>
    </g>
    <line class="cls-7" x1="926.75" y1="74.09" x2="926.75" y2="301.84"/>
  </g>
  <g>
    <g>
      <g>
        <path class="cls-10" d="M1510.49,245.63c3.67,0,7.06.42,10.16,1.25,3.11.84,5.79,2.14,8.04,3.91,2.25,1.77,4,4.03,5.26,6.79,1.25,2.75,1.88,6.07,1.88,9.95s-.68,7.32-2.03,10.07c-1.36,2.75-3.19,5-5.51,6.73-2.31,1.73-5.01,2.99-8.07,3.78-3.06.79-6.31,1.19-9.73,1.19h-8.88v-43.66h8.88ZM1505.92,285.53h4.32c3.21,0,6.12-.34,8.73-1.03,2.6-.69,4.83-1.76,6.66-3.22,1.84-1.46,3.25-3.33,4.26-5.6,1-2.27,1.5-4.97,1.5-8.1,0-3.38-.52-6.23-1.56-8.57-1.04-2.34-2.5-4.21-4.38-5.63-1.88-1.42-4.11-2.44-6.69-3.07-2.59-.63-5.42-.94-8.51-.94h-4.32v36.15Z"/>
        <path class="cls-10" d="M1549.58,250.44h-4.82v-5.07h4.82v5.07ZM1549.21,289.29h-4.07v-31.78h4.07v31.78Z"/>
        <path class="cls-10" d="M1558.15,284.53c2.54,1.33,5.21,2,8.01,2,.91,0,1.79-.1,2.63-.31.83-.21,1.57-.54,2.22-1s1.17-1.04,1.56-1.75c.4-.71.6-1.54.6-2.5,0-.79-.13-1.48-.38-2.06-.25-.58-.66-1.13-1.22-1.62-.56-.5-1.3-.98-2.22-1.44s-2.04-.98-3.38-1.56c-1.17-.5-2.22-1.01-3.16-1.53-.94-.52-1.75-1.11-2.44-1.75s-1.22-1.41-1.59-2.28c-.38-.88-.56-1.9-.56-3.07,0-1.38.27-2.62.81-3.72.54-1.11,1.28-2.03,2.22-2.78.94-.75,2.03-1.32,3.28-1.72,1.25-.4,2.6-.6,4.06-.6,2.71,0,5.13.42,7.26,1.25l-.38,3.63c-1.17-.58-2.3-.98-3.41-1.19s-2.26-.31-3.47-.31c-1.71,0-3.2.44-4.47,1.31-1.27.87-1.91,2.17-1.91,3.88,0,1.46.55,2.62,1.66,3.47,1.11.86,2.82,1.72,5.16,2.6,2.88,1.08,4.97,2.33,6.29,3.72,1.31,1.4,1.97,3.2,1.97,5.41,0,1.59-.3,2.97-.91,4.16-.6,1.19-1.41,2.17-2.41,2.94-1,.77-2.17,1.34-3.5,1.72-1.33.38-2.71.56-4.13.56-1.59,0-3.08-.14-4.47-.41-1.4-.27-2.79-.68-4.16-1.22l.44-3.81Z"/>
        <path class="cls-10" d="M1591.81,257.7h8.38v3.38h-8.38v17.7c0,2.54.41,4.45,1.25,5.72.83,1.27,2.23,1.91,4.19,1.91,1.17,0,2.27-.23,3.31-.69l.19,3.25c-1.25.46-2.63.69-4.13.69-1.71,0-3.14-.24-4.28-.72-1.15-.48-2.06-1.16-2.72-2.04-.67-.88-1.14-1.94-1.41-3.19-.27-1.25-.41-2.67-.41-4.26v-18.39h-6.82v-3.38h6.82v-7.26l4-1.38v8.63Z"/>
        <path class="cls-10" d="M1612.32,263.7c.71-2,1.85-3.65,3.44-4.94,1.59-1.29,3.4-1.94,5.44-1.94.91,0,1.79.13,2.63.38l-.06,3.75c-.42-.13-.83-.21-1.25-.25s-.87-.06-1.37-.06c-1.33,0-2.54.3-3.63.91-1.08.6-2.01,1.45-2.78,2.53-.77,1.08-1.37,2.38-1.78,3.88-.42,1.5-.63,3.13-.63,4.88v16.45h-4.07v-22.21c0-1.71-.02-3.4-.06-5.07-.04-1.67-.13-3.17-.25-4.5h4c.04.42.07.9.09,1.44.02.54.04,1.09.06,1.66.02.56.04,1.12.06,1.66.02.54.03,1.03.03,1.44h.13Z"/>
        <path class="cls-10" d="M1634.9,250.44h-4.82v-5.07h4.82v5.07ZM1634.53,289.29h-4.07v-31.78h4.07v31.78Z"/>
        <path class="cls-10" d="M1666.18,262.14c-1.92-.96-4.17-1.44-6.76-1.44-1.75,0-3.34.31-4.76.94-1.42.62-2.63,1.5-3.63,2.63-1,1.13-1.77,2.46-2.32,4-.54,1.54-.81,3.21-.81,5s.26,3.6.78,5.16c.52,1.56,1.28,2.91,2.29,4.03,1,1.13,2.22,2,3.66,2.63,1.44.62,3.05.94,4.85.94,1.25,0,2.44-.13,3.56-.38,1.13-.25,2.25-.66,3.38-1.25l.31,3.75c-1.08.46-2.24.83-3.47,1.1-1.23.27-2.58.41-4.03.41-2.38,0-4.54-.38-6.47-1.16-1.94-.77-3.6-1.87-4.97-3.28-1.38-1.42-2.43-3.13-3.16-5.13s-1.09-4.21-1.09-6.63.38-4.5,1.12-6.5c.75-2,1.81-3.73,3.19-5.19,1.38-1.46,3.03-2.6,4.97-3.41,1.94-.81,4.1-1.22,6.47-1.22,1.33,0,2.6.1,3.81.28,1.21.19,2.36.51,3.44.97l-.38,3.75Z"/>
        <path class="cls-10" d="M1680.37,257.7h8.38v3.38h-8.38v17.7c0,2.54.41,4.45,1.25,5.72.83,1.27,2.23,1.91,4.19,1.91,1.17,0,2.27-.23,3.31-.69l.19,3.25c-1.25.46-2.63.69-4.13.69-1.71,0-3.14-.24-4.28-.72-1.15-.48-2.06-1.16-2.72-2.04-.67-.88-1.14-1.94-1.41-3.19-.27-1.25-.41-2.67-.41-4.26v-18.39h-6.82v-3.38h6.82v-7.26l4-1.38v8.63Z"/>
        <path class="cls-10" d="M1717.84,268.27h-1.19c-.46,0-.86.02-1.19.06v-3.57c.33.04.73.06,1.19.06h1.19c4.34,0,7.71-.68,10.1-2.03,2.4-1.36,3.6-3.49,3.6-6.41,0-1.38-.27-2.56-.81-3.56-.54-1-1.28-1.82-2.22-2.47-.94-.64-2.01-1.12-3.22-1.44-1.21-.31-2.48-.47-3.81-.47-1.63,0-3.21.17-4.75.5-1.54.33-3.25.92-5.13,1.75l-.38-3.82c1.75-.71,3.49-1.21,5.22-1.5,1.73-.29,3.53-.44,5.41-.44,2.04,0,3.92.24,5.63.72,1.71.48,3.18,1.2,4.41,2.16,1.23.96,2.18,2.14,2.85,3.53.67,1.4,1,2.99,1,4.79,0,1.59-.28,2.98-.84,4.19s-1.35,2.24-2.35,3.1c-1,.86-2.19,1.53-3.57,2.03-1.38.5-2.88.81-4.5.94v.19c1.62.08,3.15.35,4.56.81,1.42.46,2.65,1.14,3.69,2.03,1.04.9,1.87,2,2.47,3.32.6,1.31.91,2.82.91,4.54,0,1.96-.4,3.73-1.19,5.32s-1.89,2.92-3.28,4c-1.4,1.08-3.09,1.92-5.07,2.5-1.98.58-4.16.88-6.54.88-1.71,0-3.45-.15-5.22-.44-1.77-.29-3.55-.73-5.35-1.31l.44-3.88c1.88.79,3.64,1.36,5.29,1.69,1.65.34,3.26.5,4.85.5s3.03-.19,4.47-.56c1.44-.38,2.69-.95,3.75-1.72,1.06-.77,1.92-1.76,2.56-2.97.65-1.21.97-2.65.97-4.31,0-3-1.18-5.2-3.53-6.6-2.36-1.4-5.83-2.09-10.42-2.09Z"/>
        <path class="cls-10" d="M1747.49,247.57c1.71-.83,3.47-1.48,5.29-1.94,1.81-.46,3.74-.69,5.79-.69,1.83,0,3.55.24,5.16.72,1.6.48,3,1.21,4.19,2.19,1.19.98,2.13,2.2,2.82,3.66.69,1.46,1.03,3.17,1.03,5.13,0,3.21-1.01,6.47-3.03,9.79-2.02,3.32-5.1,7.04-9.23,11.17-1.84,1.79-3.53,3.36-5.07,4.69-1.54,1.33-3,2.48-4.38,3.44v.13c.96-.04,2-.07,3.13-.09,1.12-.02,2.26-.04,3.41-.06,1.14-.02,2.27-.04,3.38-.06,1.11-.02,2.12-.03,3.03-.03h9.63v3.69h-26.77v-4.19c3.71-3.17,6.91-6.07,9.6-8.69,2.69-2.63,4.91-5.08,6.66-7.35,1.75-2.27,3.05-4.41,3.88-6.41.83-2,1.25-3.94,1.25-5.82,0-1.42-.24-2.65-.72-3.69-.48-1.04-1.14-1.91-1.97-2.6-.83-.69-1.8-1.2-2.91-1.53-1.11-.33-2.28-.5-3.53-.5-1.59,0-3.19.23-4.82.69-1.63.46-3.32,1.19-5.07,2.19l-.75-3.82Z"/>
        <path class="cls-10" d="M1789.65,268.27h-1.19c-.46,0-.86.02-1.19.06v-3.57c.33.04.73.06,1.19.06h1.19c4.34,0,7.71-.68,10.1-2.03,2.4-1.36,3.6-3.49,3.6-6.41,0-1.38-.27-2.56-.81-3.56-.54-1-1.28-1.82-2.22-2.47-.94-.64-2.01-1.12-3.22-1.44-1.21-.31-2.48-.47-3.81-.47-1.63,0-3.21.17-4.75.5-1.54.33-3.25.92-5.13,1.75l-.38-3.82c1.75-.71,3.49-1.21,5.22-1.5s3.53-.44,5.41-.44c2.04,0,3.92.24,5.63.72,1.71.48,3.18,1.2,4.41,2.16,1.23.96,2.18,2.14,2.85,3.53.67,1.4,1,2.99,1,4.79,0,1.59-.28,2.98-.84,4.19-.56,1.21-1.35,2.24-2.35,3.1-1,.86-2.19,1.53-3.57,2.03-1.38.5-2.88.81-4.5.94v.19c1.62.08,3.15.35,4.56.81s2.65,1.14,3.69,2.03c1.04.9,1.87,2,2.47,3.32.6,1.31.91,2.82.91,4.54,0,1.96-.4,3.73-1.19,5.32s-1.89,2.92-3.28,4c-1.4,1.08-3.09,1.92-5.07,2.5-1.98.58-4.16.88-6.54.88-1.71,0-3.45-.15-5.22-.44-1.77-.29-3.55-.73-5.35-1.31l.44-3.88c1.88.79,3.64,1.36,5.29,1.69,1.65.34,3.26.5,4.85.5s3.03-.19,4.47-.56c1.44-.38,2.69-.95,3.75-1.72,1.06-.77,1.92-1.76,2.56-2.97s.97-2.65.97-4.31c0-3-1.18-5.2-3.53-6.6-2.36-1.4-5.83-2.09-10.42-2.09Z"/>
        <path class="cls-10" d="M1840.94,275.34h6.13v3.69h-6.13v10.26h-4.13v-10.26h-21.27v-3.88l19.51-29.52h5.88v29.71ZM1836.81,261.77c0-1.96.02-4.12.06-6.47.04-2.36.13-4.72.25-7.1h-.13c-.29.58-.67,1.27-1.13,2.06-.46.79-.96,1.64-1.5,2.53s-1.11,1.81-1.69,2.72c-.59.92-1.13,1.77-1.63,2.57l-11.26,17.26h17.01v-13.57Z"/>
      </g>
      <g>
        <path class="cls-10" d="M2086.03,186.02l-.02-.29-.23-.13c-4.48-2.72-10.37-4.25-16.13-4.38-.11-.76-.84-6.15-.92-6.92,5.5-1.56,10.78-4.55,14.47-8.37l.19-.18-.05-.29c-.27-2.05-1.05-4.91-1.76-6.64l-.12-.26-.28-.07c-5.06-1.45-11.12-1.41-16.69,0-.27-.72-2.33-5.69-2.62-6.38,4.9-2.99,9.21-7.23,11.79-11.82l.14-.22-.1-.29c-.74-1.76-2.24-4.32-3.42-5.94l-.16-.22h-.3c-5.21-.11-11.03,1.48-16.16,4.24-.45-.63-3.79-4.97-4.24-5.58,4-4.12,7.05-9.35,8.36-14.45l.07-.29-.19-.22c-1.19-1.57-3.27-3.67-4.82-4.91l-.22-.16-.29.04c-5.12,1.3-10.32,4.36-14.45,8.34-.63-.48-4.96-3.88-5.59-4.38,2.76-4.87,4.38-10.51,4.38-15.71,0-.15-.03-.7-.03-.7l-.22-.17c-1.6-1.26-4.13-2.71-5.97-3.45l-.25-.09-.23.12c-4.6,2.55-8.82,6.83-11.77,11.73-.74-.29-6.01-2.5-6.71-2.8.7-2.76,1.13-5.6,1.13-8.44s-.34-5.68-1.13-8.22l-.06-.27-.28-.11c-1.74-.75-4.52-1.51-6.58-1.81l-.31-.05-.18.2c-3.8,3.69-6.79,8.94-8.37,14.45-.79-.13-6.23-.81-7.07-.89-.07-5.71-1.61-11.56-4.33-16.11l-.13-.26h-.29c-1.97-.26-4.95-.26-6.87-.01h-.31s-.14.27-.14.27c-2.69,4.5-4.22,10.34-4.32,16.09-.79.1-6.33.78-7.13.91-1.59-5.54-4.57-10.81-8.36-14.48l-.21-.21-.31.04c-2.03.3-4.86,1.06-6.6,1.77l-.26.11-.1.26c-.72,2.59-1.1,5.44-1.1,8.33s.45,5.65,1.1,8.39c-.69.3-6.01,2.59-6.73,2.87-2.98-4.91-7.21-9.21-11.79-11.8l-.25-.15-.29.1c-1.76.78-4.31,2.25-5.93,3.46l-.25.15v.76c0,5.14,1.59,10.8,4.33,15.71-.6.49-4.6,3.62-5.2,4.11-4.12-3.98-9.33-7.04-14.47-8.38l-.26-.05-.2.19c-1.58,1.18-3.7,3.26-4.91,4.84l-.18.23.07.27c1.29,5.1,4.35,10.33,8.33,14.49-.44.61-3.92,5.15-4.4,5.77-4.99-2.79-10.79-4.43-16.11-4.36h-.27s-.17.25-.17.25c-1.16,1.55-2.64,4.05-3.44,5.95l-.11.25.14.26c2.55,4.57,6.87,8.85,11.79,11.83-.27.7-2.29,5.63-2.6,6.34-5.66-1.4-11.69-1.42-16.73.05l-.27.07-.1.24c-.74,1.76-1.51,4.54-1.8,6.64l-.03.29.2.22c3.67,3.78,8.95,6.76,14.46,8.3-.11.78-.83,6.22-.92,6.97-5.73.11-11.63,1.62-16.13,4.33l-.25.14-.03.29c-.11.99-.19,2.21-.19,3.45s.08,2.45.19,3.43l.03.28.25.13c4.5,2.69,10.35,4.24,16.11,4.32.11.79.88,6.38.98,7.15-5.53,1.62-10.76,4.65-14.44,8.42l-.2.23.03.25c.32,2.07,1.08,4.92,1.79,6.63l.11.25.26.09c5.1,1.46,11.13,1.39,16.74,0,.29.71,2.46,5.66,2.75,6.37-4.9,2.94-9.2,7.19-11.79,11.78l-.12.26.1.26c.75,1.8,2.25,4.35,3.45,5.95l.18.22h.26c5.27.09,11.08-1.47,16.13-4.26.47.59,3.89,5.04,4.33,5.65-3.97,4.06-7.04,9.26-8.36,14.44l-.07.26.17.23c1.21,1.55,3.3,3.63,4.85,4.88l.22.19.27-.09c5.11-1.28,10.3-4.32,14.47-8.31.63.49,5.05,3.89,5.7,4.37-2.72,4.99-4.3,10.68-4.3,15.86v.58l.26.19c1.54,1.17,4.04,2.6,5.92,3.44l.26.09.27-.13c4.61-2.57,8.86-6.88,11.84-11.84.69.28,5.54,2.25,6.25,2.54-.69,2.73-1.09,5.55-1.09,8.33,0,2.91.38,5.76,1.12,8.33l.06.27.29.1c1.74.75,4.55,1.51,6.61,1.84l.31.04.2-.23c3.82-3.7,6.79-8.98,8.28-14.43.8.13,6.38.92,7.16,1,.11,5.76,1.66,11.62,4.36,16.09l.12.24.31.03c1.98.25,4.93.25,6.87,0l.28-.03.14-.24c2.68-4.47,4.22-10.34,4.36-16.12.78-.11,6-.84,6.78-.97,1.54,5.55,4.54,10.78,8.35,14.48l.21.19.25-.02c2.08-.33,4.91-1.06,6.66-1.77l.25-.12.09-.26c.74-2.58,1.08-5.41,1.08-8.32s-.4-5.68-1.08-8.44c.72-.27,5.78-2.46,6.49-2.78,2.99,4.92,7.23,9.23,11.8,11.82l.23.11.27-.1c1.82-.75,4.39-2.23,5.97-3.47l.23-.13s.02-.61.02-.78c0-5.07-1.6-10.73-4.27-15.69.6-.48,4.78-3.73,5.38-4.21,4.18,3.97,9.39,7.03,14.5,8.35l.27.07.21-.19c1.56-1.22,3.68-3.32,4.9-4.84l.19-.25-.09-.25c-1.27-5.1-4.31-10.32-8.3-14.48.46-.62,3.84-5.05,4.29-5.68,5.06,2.79,10.88,4.38,16.11,4.27h.29l.17-.21c1.25-1.6,2.69-4.1,3.44-5.98l.12-.24-.14-.25c-2.5-4.49-6.78-8.78-11.68-11.86.28-.7,2.29-5.59,2.58-6.29,5.56,1.43,11.59,1.48,16.67,0l.25-.09.11-.25c.74-1.79,1.5-4.56,1.82-6.62l.03-.29-.21-.22c-3.68-3.81-8.92-6.77-14.39-8.33.12-.76.86-6.01.94-6.78,5.79-.1,11.68-1.64,16.17-4.35l.23-.14.02-.3c.13-.95.18-2.2.18-3.43s-.05-2.45-.18-3.41M1980.43,268c-43.71,0-79.3-35.58-79.3-79.32s35.58-79.31,79.3-79.31,79.31,35.58,79.31,79.31-35.57,79.32-79.31,79.32"/>
        <path class="cls-10" d="M1980.43,118.9c-38.45,0-69.76,31.31-69.76,69.77s31.3,69.78,69.76,69.78,69.78-31.3,69.78-69.78-31.31-69.77-69.78-69.77M1989.21,130.12c.67-.55,1.56-.37,2.44-.19,14.02,3.39,24.31,9.31,34.36,19.87.71.75,1.09,1.46,1.09,2.08,0,.06-.02.16-.02.25-.21.96-1.29,1.47-2.25,1.93l-29.35,14.21c-1.16.55-2.24.6-3.08.08-.87-.5-1.41-1.46-1.5-2.72l-2.36-32.52c-.1-1.55.11-2.51.67-2.99M1934.71,150.05h.02c10.04-10.55,20.32-16.49,34.34-19.86.86-.19,1.79-.36,2.41.19.6.47.8,1.42.69,2.98l-2.37,32.51c-.07,1.25-.59,2.24-1.47,2.72-.85.51-1.97.49-3.09-.06l-29.33-14.21c-.96-.48-2.08-.98-2.28-1.95-.09-.67.23-1.45,1.08-2.33M1927.75,210.32c-1.27.87-2.22,1.18-2.94.92-.8-.27-1.07-1.15-1.32-2.02-4.15-13.85-4.15-25.73-.05-39.69.35-1.2.86-1.86,1.5-2.09.94-.33,1.92.35,2.81.96l26.97,18.35c1.02.67,1.61,1.62,1.61,2.63s-.6,1.92-1.57,2.64l-27.01,18.3ZM1972.01,248.5c-.65.53-1.55.37-2.43.14-14.02-3.35-24.32-9.28-34.35-19.85-.73-.76-1.07-1.43-1.07-2.02,0-.11,0-.17.02-.29.14-.92,1.27-1.47,2.21-1.92l29.36-14.24c1.14-.54,2.25-.56,3.12-.05.85.5,1.38,1.46,1.48,2.69l2.38,32.59c.09,1.55-.14,2.49-.7,2.97M1980.38,207.88c-10.52,0-19.06-8.54-19.06-19.05,0-6.42,3.2-12.37,8.57-15.92,1.77-1.18,4.16-.68,5.33,1.08,1.17,1.77.69,4.17-1.09,5.33-3.21,2.12-5.11,5.66-5.11,9.5,0,6.25,5.1,11.36,11.36,11.36s11.37-5.11,11.37-11.36c0-3.84-1.9-7.4-5.12-9.51-1.77-1.17-2.25-3.56-1.07-5.33,1.16-1.76,3.56-2.26,5.32-1.09,5.36,3.55,8.57,9.5,8.57,15.93,0,10.51-8.55,19.05-19.07,19.05M2026.05,228.41c-10,10.53-20.24,16.46-34.34,19.83-1.19.3-2.02.21-2.53-.21-.74-.62-.64-1.86-.57-2.93l2.34-32.54c.15-1.27.65-2.22,1.54-2.75.87-.47,1.97-.43,3.07.1l29.36,14.22c1.37.68,2.11,1.34,2.25,2.07.14.82-.46,1.54-1.11,2.21M2035.94,167.29c.79.26,1.1,1.14,1.35,2,4.12,13.86,4.12,25.72,0,39.7-.33,1.2-.82,1.86-1.46,2.12-.92.28-1.93-.38-2.77-1l-27-18.32c-1.04-.69-1.65-1.64-1.65-2.64s.6-1.94,1.65-2.66l27-18.3c1.22-.88,2.17-1.15,2.88-.9"/>
        <path class="cls-10" d="M1583.65,211.85c-1.85.09-5.28.25-7.49.25-5.95,0-6.25-2.95-6.25-11.44v-24.56h13.96c1.28,0,2.29-1.02,2.29-2.29v-7.83c0-1.27-1.01-2.28-2.29-2.28h-13.96v-11.55c0-.7-.33-1.36-.89-1.79-.55-.43-1.26-.58-1.94-.42l-9.18,2.23c-1.01.25-1.73,1.16-1.73,2.22v9.31h-5.3c-1.27,0-2.29,1.01-2.29,2.28v7.83c0,1.26,1.02,2.29,2.29,2.29h5.3v26.49c0,17.34,4.22,22.63,18.05,22.63,2.75,0,7.15-.72,10.33-1.31,1.11-.21,1.91-1.22,1.85-2.35l-.39-7.54c-.06-1.27-1.15-2.2-2.38-2.17"/>
        <path class="cls-10" d="M1515.76,162.26c-18.73,0-27.1,9.62-27.1,31.17s8.36,31.64,27.1,31.64,26.96-9.77,26.96-31.64-8.57-31.17-26.96-31.17M1515.76,212.68c-11.04,0-13.13-6.75-13.13-19.25,0-13.78,3.43-18.66,13.13-18.66s13,5.22,13,18.66c0,12.2-2.14,19.25-13,19.25"/>
        <path class="cls-10" d="M1465.7,187.58c9.51-4.72,14.14-11.71,14.14-21.4,0-11.6-4.93-25.44-28.36-25.44,0,0-.67,0-1.92,0-3.63,0-13.41.14-25.62,1.52-1.16.13-2.03,1.1-2.03,2.26v76.96c0,1.26,1.02,2.28,2.29,2.28h9.52c1.26,0,2.27-1.02,2.27-2.28v-30.39c3.18.22,9.06.59,15.85.63l13.64,30.68c.35.82,1.18,1.36,2.08,1.36h10.65c.78,0,1.49-.38,1.92-1.03.42-.65.48-1.47.17-2.17l-14.6-32.98ZM1450.77,178.81c-6.94.07-12.1-.2-14.77-.38v-23.73c1.62-.32,4.81-.75,10.42-.75h5.02c10.2,0,13.83,6.44,13.83,12.47,0,7.54-5.55,12.29-14.49,12.39"/>
        <path class="cls-10" d="M1846.19,211.85c-1.85.09-5.29.25-7.48.25-5.96,0-6.25-2.95-6.25-11.44v-24.56h13.96c1.27,0,2.28-1.02,2.28-2.29v-7.83c0-1.27-1.01-2.28-2.28-2.28h-13.96v-11.55c0-.7-.33-1.36-.88-1.79-.55-.43-1.27-.58-1.94-.42l-9.17,2.23c-1.02.25-1.73,1.16-1.73,2.22v9.31h-5.31c-1.26,0-2.28,1.01-2.28,2.28v7.83c0,1.26,1.02,2.29,2.28,2.29h5.31v26.49c0,17.34,4.22,22.63,18.05,22.63,2.75,0,7.14-.72,10.33-1.31,1.11-.21,1.91-1.22,1.85-2.35l-.39-7.54c-.06-1.27-1.15-2.2-2.38-2.17"/>
        <path class="cls-10" d="M1782.77,174.77c6.53,0,12.6,1.48,17.57,1.93.62.07,1.25-.14,1.72-.55.46-.4.75-1,.77-1.62l.3-7.62c.05-1.16-.78-2.17-1.92-2.34-4.44-.71-11.52-2.32-18.44-2.32-18.73,0-27.09,9.62-27.09,31.18,0,.16.01.31.01.47h-.01c0,21.56,8.36,31.17,27.09,31.17,6.92,0,14-1.61,18.44-2.32,1.14-.18,1.97-1.18,1.92-2.34l-.3-7.62c-.02-.61-.31-1.21-.77-1.62-.47-.42-1.1-.61-1.72-.54-4.97.44-11.04,1.92-17.57,1.92-8.4,0-12.1-3.67-12.93-13.62-.02-.2-.03-.39-.05-.6-.03-.38-.05-.78-.06-1.17-.02-.42-.04-.85-.05-1.29-.01-.29-.01-.6-.02-.9,0-.51-.02-1.01-.02-1.54,0-13.78,3.44-18.66,13.13-18.66"/>
        <path class="cls-10" d="M1725.09,162.26c-6.91,0-17.99,1.61-22.43,2.32-1.14.17-1.96,1.18-1.92,2.34l.3,7.61c.02.62.31,1.22.77,1.62.47.41,1.1.61,1.72.55,4.97-.45,14.3-1.21,20.83-1.21,4.75,0,7.47,2.64,7.47,7.22v3.62l-14.92,1.2c-14.29,1.07-20.12,6.36-20.12,18.31s6.37,19.24,17.46,19.24c9.21,0,19.52-4.16,19.62-4.2,2.21,1.69,4.42,3.16,9.09,3.81.64.09,1.31-.1,1.81-.54.49-.43.78-1.06.78-1.72v-39.83c0-13.87-6.5-20.33-20.47-20.33M1731.84,210.88c-.09.03-8.71,2.42-15.05,2.42-5.34,0-6.14-4.93-6.14-7.84,0-4.75,2.56-7.21,7.95-7.71l13.24-.7v13.83Z"/>
        <path class="cls-10" d="M1621.55,162.26c-6.91,0-17.99,1.61-22.43,2.32-1.13.17-1.96,1.18-1.92,2.34l.3,7.61c.02.62.31,1.22.77,1.62.47.41,1.1.61,1.72.55,4.97-.45,14.3-1.21,20.83-1.21,4.74,0,7.46,2.64,7.46,7.22v3.62l-14.92,1.2c-14.29,1.07-20.11,6.36-20.11,18.31s6.36,19.24,17.45,19.24c9.21,0,19.53-4.16,19.62-4.2,2.21,1.69,4.42,3.16,9.09,3.81.64.09,1.31-.1,1.81-.54.49-.43.78-1.06.78-1.72v-39.83c0-13.87-6.5-20.33-20.47-20.33M1628.29,210.88c-.09.03-8.7,2.42-15.05,2.42-5.34,0-6.14-4.93-6.14-7.84,0-4.75,2.56-7.21,7.95-7.71l13.24-.7v13.83Z"/>
        <path class="cls-10" d="M1686.56,163.24c-6.07.36-12.03,3.83-15.75,6.47v-3.73c0-1.26-1.02-2.28-2.29-2.28h-9.17c-1.26,0-2.29,1.01-2.29,2.28v55.51c0,1.26,1.02,2.28,2.29,2.28h9.17c1.27,0,2.29-1.02,2.29-2.28v-38.37c2.07-1.72,8.47-6.52,16.09-7.2,1.17-.1,2.08-1.09,2.08-2.27v-8.14c0-.63-.25-1.22-.72-1.65-.45-.44-1.08-.68-1.7-.62"/>
      </g>
    </g>
    <g>
      <g>
        <path class="cls-5" d="M2362.19,111.77c-19.56-19.45-46.48-31.53-76.14-31.53s-56.7,12.09-76.25,31.53c-19.45,19.56-31.53,46.48-31.53,76.25,0,3.3.22,6.59.44,9.89,3.63-7.69,8.57-14.61,14.72-20.44,10.11-9.78,23.29-16.37,38.02-18.24,2.86-5.49,6.59-10.55,10.99-14.83,11.1-11.21,26.59-18.13,43.62-18.13s32.41,6.92,43.62,18.13c11.1,11.1,18.02,26.59,18.02,43.62,0,4.29-.44,8.68-1.32,12.86-.55,2.64-1.32,5.16-2.2,7.69,6.15,1.54,12.53,2.53,18.68,2.2,25.49-1.65,32.41-33.18,26.59-52.96-5.16-17.69-14.61-33.4-27.25-46.04h0Z"/>
        <path class="cls-4" d="M2323.08,150.89c-9.56-9.45-22.63-15.27-37.03-15.27s-27.58,5.82-37.14,15.27c-9.45,9.56-15.27,22.63-15.27,37.14,0,12.75,4.5,24.39,12.09,33.51,7.47,8.9,17.69,15.27,29.34,17.69,14.5-8.46,20.44-20.44,24.5-28.9,3.85-7.69,6.48-13.19,13.19-13.29,1.32,0,2.86.66,5.27,1.87,3.63,1.65,9.89,4.5,17.25,7.03.77-2.2,1.43-4.61,1.98-7.03.77-3.52,1.1-7.14,1.1-10.88,0-14.5-5.82-27.58-15.27-37.14h0Z"/>
        <path class="cls-2" d="M2262.1,244.83c-9.12-3.85-17.14-9.78-23.51-17.36-6.92-8.35-11.76-18.68-13.51-30-1.43,7.58-1.54,15.05-.44,22.3,1.43,10.77,5.49,20.88,11.32,29.89,7.58-.55,14.39-1.65,20.33-3.19,2.09-.44,3.96-.99,5.82-1.65h0Z"/>
        <path class="cls-3" d="M2235.62,264.5c-10.66-12.2-17.91-27.25-20.22-43.4-.99-7.03-1.1-14.17-.11-21.43-1.32,2.53-2.42,5.05-3.63,7.69-6.26,14.17-10.33,29.45-11.98,45.05,3.08,4.18,6.48,8.13,10.11,11.76,19.56,19.45,46.48,31.53,76.25,31.53,1.87,0,3.63,0,5.49-.11-5.16-.88-10.33-2.09-15.27-3.85-15.93-5.38-30-14.94-40.65-27.25h0Z"/>
        <path class="cls-1" d="M2192,240.65c2.2-12.86,6.04-25.27,11.21-37.03,5.16-11.65,11.65-22.74,19.34-32.96-8.57,2.75-16.37,7.36-22.74,13.51-9.12,8.68-15.38,20.33-17.36,33.4,2.31,8.13,5.49,15.82,9.56,23.07h0Z"/>
        <path class="cls-3" d="M2307.91,214.39c-4.72,9.78-11.65,23.84-29.89,33.84-5.38,2.86-11.87,5.38-19.56,7.25-3.3.88-6.81,1.54-10.44,2.09,4.29,2.2,8.79,3.85,13.51,5.05,9.12,2.31,18.79,2.86,28.46,1.32,9.56-1.43,18.57-4.94,26.59-10,6.7-4.18,12.64-9.45,17.58-15.71-5.6-3.52-10.55-7.91-14.61-13.08-3.85-4.72-6.92-10-9.12-15.71-.77,1.32-1.54,2.97-2.53,4.94h0Z"/>
        <path class="cls-1" d="M2321.54,261.86c-9.01,5.71-19.34,9.56-30.11,11.32-10.88,1.65-21.87,1.1-32.19-1.65l-3.52-.99c41.2,30.77,92.52,19.12,120.53-23.73-4.4.77-8.9.99-13.29.77-7.03-.44-13.95-2.09-20.55-4.83-5.71,7.58-12.86,14.06-20.88,19.12h0Z"/>
        <path class="cls-2" d="M2343.08,232.74c6.37,3.3,13.4,5.16,20.44,5.49,6.37.44,12.86-.44,19.12-2.64,4.94-10,8.35-20.77,10-32.19-6.81,11.43-17.58,15.82-29.23,16.59-15.38.88-31.97-5.16-42.41-9.56,1.65,3.19,3.52,6.15,5.71,8.9,4.4,5.49,10,10.11,16.37,13.4h0Z"/>
      </g>
      <g>
        <g>
          <path class="cls-9" d="M2463.61,256.91h-17.48l-3.76,8.38h-3.45l14.34-31.38h3.27l14.34,31.38h-3.5l-3.76-8.38ZM2462.39,254.22l-7.53-16.86-7.53,16.86h15.06Z"/>
          <path class="cls-9" d="M2527.74,256.91c0,5.33-3.94,8.38-11.79,8.38h-14.43v-31.38h13.54c6.99,0,11.03,2.96,11.03,8.07,0,3.58-1.93,5.96-4.8,7.13,4.04.9,6.46,3.54,6.46,7.8ZM2504.84,236.65v11.39h9.99c5.02,0,7.94-1.93,7.94-5.69s-2.92-5.69-7.94-5.69h-9.99ZM2524.42,256.64c0-4.08-3-5.87-8.52-5.87h-11.07v11.79h11.07c5.51,0,8.52-1.79,8.52-5.92Z"/>
          <path class="cls-9" d="M2557.99,249.61c0-9.15,6.99-15.96,16.5-15.96s16.45,6.77,16.45,15.96-7.04,15.96-16.45,15.96-16.5-6.82-16.5-15.96ZM2587.62,249.61c0-7.49-5.6-13-13.14-13s-13.22,5.51-13.22,13,5.65,13,13.22,13,13.14-5.51,13.14-13Z"/>
          <path class="cls-9" d="M2648.98,233.92l-13.9,31.38h-3.27l-13.9-31.38h3.59l12.01,27.26,12.1-27.26h3.36Z"/>
          <path class="cls-9" d="M2701.14,262.43v2.87h-22.19v-31.38h21.52v2.87h-18.2v11.16h16.23v2.83h-16.23v11.65h18.87Z"/>
        </g>
        <g>
          <polygon class="cls-8" points="2688.84 138.87 2688.84 152.51 2723.68 152.51 2723.68 175.57 2688.84 175.57 2688.84 188.51 2689.55 189.22 2726.27 189.22 2726.98 189.92 2726.98 211.8 2663.89 211.8 2663.89 115.81 2726.27 115.81 2726.98 116.52 2726.98 138.16 2726.27 138.87 2688.84 138.87"/>
          <polygon class="cls-8" points="2564.54 211.8 2538.65 211.8 2538.65 115.81 2563.83 115.81 2564.54 116.52 2564.54 211.8"/>
          <path class="cls-8" d="M2655.43,180.49c-1.65-23.86-26.53-25.41-44.57-30.27-4.1-1.1-11.01-2.35-11.01-7.83,0-9.9,18.96-6.66,24.85-5.06,5.39,1.46,10.54,4.05,15.64,6.24l11.04-19.32.21-1.8c-26.06-15.62-81.64-15.14-78.09,27,.41,4.86,2.76,10.76,6.58,13.89,0,0,.28.43.95,1.12v.04c.69.7,1.53,1.45,2.37,2.03,1.18.89,2.71,1.89,4.69,2.92.43.22.8.33,1.12.34,3.24,1.03,6.42,2.29,9.7,3.2,6.52,1.79,25.01,4.07,28.66,9.01,2.49,3.37.83,7.55-2.75,9.34-6.74,3.38-21.33.65-28.38-1.76-4.05-1.39-7.78-3.58-11.81-5.02l-12.09,19.96c-.02.41.19.68.43.97.42.5,8.19,3.73,9.47,4.19,25.9,9.35,75.68,9.69,72.99-29.18Z"/>
          <path class="cls-8" d="M2510.46,172.9c-.14-.88,3.94-3.82,4.89-4.85,12.68-13.8,8.79-34.43-5.46-45.37-2.74-2.1-11.09-6.86-14.32-6.86h-52.73l-.71.71v18.25h-.05v37.39h.05v39.65h18.13c3.12,0,7.31-5.19,7.73-8.28,1.49-10.95-1.04-24.93.05-36.2.28-1.15-1.71-3.52-2.6-3.52h-9.18l21.9-38.58,22.36,38.58h-9.18c-.89,0-2.88,2.36-2.6,3.52.76,11.24-.99,23.73.02,34.82.3,3.27,1.72,6.33,4.54,8.17.41.27,3.01,1.49,3.22,1.49h36.02l-22.07-38.91Z"/>
        </g>
      </g>
    </g>
  </g>
</svg>